<?xml version="1.0" encoding="UTF-8"?>
<svg version="1.1" xmlns="http://www.w3.org/2000/svg" width="1000" height="250">
<path d="M0 0 C0.93767212 -0.00315216 1.87534424 -0.00630432 2.84143066 -0.009552 C3.86119995 -0.00752777 4.88096924 -0.00550354 5.93164062 -0.00341797 C7.49078186 -0.00485306 7.49078186 -0.00485306 9.0814209 -0.00631714 C11.28393616 -0.0069991 13.48645342 -0.00514374 15.68896484 -0.00097656 C19.07328782 0.00437146 22.45747806 -0.00092105 25.84179688 -0.00732422 C27.97591175 -0.00666344 30.11002655 -0.00538228 32.24414062 -0.00341797 C33.26390991 -0.0054422 34.2836792 -0.00746643 35.33435059 -0.009552 C36.74085876 -0.00482376 36.74085876 -0.00482376 38.17578125 0 C39.42035095 0.00119339 39.42035095 0.00119339 40.69006348 0.00241089 C42.58789062 0.12939453 42.58789062 0.12939453 43.58789062 1.12939453 C43.66060804 3.48253008 43.6715993 5.83773122 43.65039062 8.19189453 C43.64136719 9.48224609 43.63234375 10.77259766 43.62304688 12.10205078 C43.61144531 13.10107422 43.59984375 14.10009766 43.58789062 15.12939453 C42.87761719 15.39494141 42.16734375 15.66048828 41.43554688 15.93408203 C40.51644531 16.28728516 39.59734375 16.64048828 38.65039062 17.00439453 C37.73386719 17.35244141 36.81734375 17.70048828 35.87304688 18.05908203 C33.43848007 18.91130313 33.43848007 18.91130313 32.58789062 21.12939453 C31.27588462 30.69345727 31.37736116 40.415222 31.27148438 50.05126953 C31.25086041 51.64838125 31.22986275 53.24548818 31.20851135 54.84259033 C31.15385158 59.00496493 31.10419991 63.16738408 31.05566406 67.32983398 C30.99610043 72.34614834 30.93018755 77.36238298 30.86536407 82.37863159 C30.76806259 89.96216972 30.67872412 97.54576378 30.58789062 105.12939453 C46.42789063 105.12939453 62.26789063 105.12939453 78.58789062 105.12939453 C78.46778865 91.68788121 78.46778865 91.68788121 78.33007812 78.24658203 C78.26994832 72.75833674 78.21180844 67.27012437 78.16601562 61.78173828 C78.12893447 57.35310484 78.08251498 52.92465577 78.02982712 48.49618149 C78.01140371 46.8130812 77.99625211 45.12994157 77.98454666 43.44678116 C77.92267248 34.85139396 77.85374864 26.49225644 75.58789062 18.12939453 C74.56683228 17.92805908 74.56683228 17.92805908 73.52514648 17.72265625 C72.74147705 17.56812988 71.95780762 17.41360352 71.15039062 17.25439453 C70.32667969 17.09197266 69.50296875 16.92955078 68.65429688 16.76220703 C67.63142578 16.44896484 67.63142578 16.44896484 66.58789062 16.12939453 C65.15472165 13.26305658 65.45588701 10.75703952 65.46289062 7.56689453 C65.4603125 6.38998047 65.45773437 5.21306641 65.45507812 4.00048828 C65.58789062 1.12939453 65.58789062 1.12939453 66.58789062 0.12939453 C68.05594355 0.03116709 69.52866523 0.00141083 71 0 C71.93767212 -0.00315216 72.87534424 -0.00630432 73.84143066 -0.009552 C74.86119995 -0.00752777 75.88096924 -0.00550354 76.93164062 -0.00341797 C78.49078186 -0.00485306 78.49078186 -0.00485306 80.0814209 -0.00631714 C82.28393616 -0.0069991 84.48645342 -0.00514374 86.68896484 -0.00097656 C90.07328782 0.00437146 93.45747806 -0.00092105 96.84179688 -0.00732422 C98.97591175 -0.00666344 101.11002655 -0.00538228 103.24414062 -0.00341797 C104.26390991 -0.0054422 105.2836792 -0.00746643 106.33435059 -0.009552 C107.74085876 -0.00482376 107.74085876 -0.00482376 109.17578125 0 C110.42035095 0.00119339 110.42035095 0.00119339 111.69006348 0.00241089 C113.58789062 0.12939453 113.58789062 0.12939453 114.58789062 1.12939453 C114.66060804 3.48253008 114.6715993 5.83773122 114.65039062 8.19189453 C114.64136719 9.48224609 114.63234375 10.77259766 114.62304688 12.10205078 C114.61144531 13.10107422 114.59984375 14.10009766 114.58789062 15.12939453 C113.13082336 15.6330721 111.67218967 16.13222009 110.21289062 16.62939453 C109.40078125 16.90783203 108.58867187 17.18626953 107.75195312 17.47314453 C105.58789062 18.12939453 105.58789062 18.12939453 103.58789062 18.12939453 C102.3860354 27.56612284 102.43954597 36.96195932 102.44262695 46.45556641 C102.43963083 48.30286222 102.43622726 50.1501574 102.43244934 51.99745178 C102.42365372 56.99117681 102.42127317 61.98488469 102.42063355 66.97861671 C102.41992081 70.10280661 102.4177823 73.2269922 102.41513634 76.35118103 C102.40589934 87.26211828 102.4017996 98.17304335 102.40258789 109.08398438 C102.40318903 119.23711371 102.39262579 129.39018997 102.37684423 139.54330587 C102.36375326 148.27820125 102.35840461 157.0130793 102.3590433 165.74798441 C102.35929772 170.95724769 102.35647702 176.1664637 102.34586525 181.37571716 C102.33615743 186.27430064 102.33612346 191.17279191 102.34338188 196.07137871 C102.34442421 197.86357699 102.34208582 199.65578111 102.33602142 201.44796944 C102.3082518 210.22657229 102.39869319 218.56079008 104.58789062 227.12939453 C105.26859619 227.34990479 105.94930176 227.57041504 106.65063477 227.79760742 C113.46289063 230.00439453 113.46289063 230.00439453 114.58789062 231.12939453 C114.66060804 233.48253008 114.6715993 235.83773122 114.65039062 238.19189453 C114.64136719 239.48224609 114.63234375 240.77259766 114.62304688 242.10205078 C114.61144531 243.10107422 114.59984375 244.10009766 114.58789062 245.12939453 C111.75776936 246.07276829 110.04489145 246.25112282 107.11645508 246.24291992 C105.76539421 246.24280663 105.76539421 246.24280663 104.38703918 246.24269104 C103.41820297 246.23752975 102.44936676 246.23236847 101.45117188 246.22705078 C99.95930611 246.22492836 99.95930611 246.22492836 98.43730164 246.22276306 C95.2583008 246.21716214 92.0793702 246.20460949 88.90039062 246.19189453 C86.74609477 246.18687965 84.59179781 246.18231672 82.4375 246.17822266 C77.15427288 246.16719241 71.87108677 246.15045339 66.58789062 246.12939453 C65.16370002 243.28101332 65.41793554 240.80151545 65.40039062 237.62939453 C65.38621094 236.46408203 65.37203125 235.29876953 65.35742188 234.09814453 C65.58789062 231.12939453 65.58789062 231.12939453 67.58789062 229.12939453 C69.49804688 228.53173828 69.49804688 228.53173828 71.65039062 228.06689453 C74.38864192 227.60576957 74.38864192 227.60576957 76.58789062 226.12939453 C77.49889549 220.3556929 77.75235187 214.7045814 77.79321289 208.86767578 C77.80311249 207.97893265 77.81301208 207.09018951 77.82321167 206.17451477 C77.85456823 203.2636676 77.87948089 200.35280417 77.90429688 197.44189453 C77.92488877 195.41308185 77.94588581 193.38427324 77.9672699 191.35546875 C78.02225975 186.03565792 78.07177013 180.71580986 78.12011719 175.39593506 C78.17937215 169.00225282 78.24547216 162.60863808 78.31041718 156.2150116 C78.40813589 146.5198474 78.49719069 136.82463837 78.58789062 127.12939453 C62.74789062 127.12939453 46.90789062 127.12939453 30.58789062 127.12939453 C30.73721321 141.91947927 30.73721321 141.91947927 30.89453125 156.70947266 C30.96055893 162.7505471 31.0256937 168.79162106 31.08520508 174.83276367 C31.13329773 179.7087281 31.18564991 184.58463062 31.24083138 189.46051979 C31.26105364 191.31141408 31.27979693 193.16232521 31.29696465 195.01325035 C30.09928457 211.79972451 30.09928457 211.79972451 34.00193787 226.92411804 C35.90253747 228.36851669 37.44863971 228.82102958 39.77539062 229.31689453 C41.03351563 229.58501953 42.29164063 229.85314453 43.58789062 230.12939453 C43.58789062 235.07939453 43.58789062 240.02939453 43.58789062 245.12939453 C40.75776936 246.07276829 39.04489145 246.25112282 36.11645508 246.24291992 C34.76539421 246.24280663 34.76539421 246.24280663 33.38703918 246.24269104 C32.41820297 246.23752975 31.44936676 246.23236847 30.45117188 246.22705078 C28.95930611 246.22492836 28.95930611 246.22492836 27.43730164 246.22276306 C24.2583008 246.21716214 21.0793702 246.20460949 17.90039062 246.19189453 C15.74609477 246.18687965 13.59179781 246.18231672 11.4375 246.17822266 C6.15427288 246.16719241 0.87108677 246.15045339 -4.41210938 246.12939453 C-5.83629998 243.28101332 -5.58206446 240.80151545 -5.59960938 237.62939453 C-5.62087891 235.88142578 -5.62087891 235.88142578 -5.64257812 234.09814453 C-5.41210938 231.12939453 -5.41210938 231.12939453 -3.41210938 229.12939453 C-1.37816809 228.67175774 0.64853338 228.37092238 2.71289062 228.08251953 C4.8620127 227.24132229 4.8620127 227.24132229 5.68920517 224.57703304 C6.70909927 220.66440026 6.86602444 217.02447443 6.84185791 213.01405334 C6.84497789 212.21348949 6.84809787 211.41292564 6.8513124 210.58810228 C6.85926867 207.91437212 6.852978 205.2408704 6.84667969 202.56713867 C6.84939062 200.64660001 6.85295213 198.72606239 6.8572998 196.80552673 C6.86641446 191.59480845 6.86288316 186.38416941 6.85654163 181.17344975 C6.85147616 175.71812429 6.85617468 170.26280559 6.85931396 164.80747986 C6.86295231 155.6453225 6.85815826 146.48319739 6.84863281 137.32104492 C6.83775177 126.7328187 6.84127184 116.14466953 6.85228562 105.55644518 C6.86136609 96.46244048 6.86263995 87.36845896 6.85740829 78.2744512 C6.85429236 72.84445937 6.85386885 67.41450373 6.86048126 61.98451424 C6.86626499 56.87832985 6.86223894 51.77224463 6.85069275 46.66607094 C6.84805153 44.79360366 6.84880205 42.92112802 6.85321808 41.04866409 C6.85869629 38.48957041 6.85181181 35.93079299 6.84185791 33.37171936 C6.84631935 32.6335761 6.8507808 31.89543285 6.85537744 31.13492161 C6.81978432 26.40566532 6.05348289 22.57453197 4.58789062 18.12939453 C3.94980469 18.00822266 3.31171875 17.88705078 2.65429688 17.76220703 C1.82800781 17.59462891 1.00171875 17.42705078 0.15039062 17.25439453 C-0.67332031 17.09197266 -1.49703125 16.92955078 -2.34570312 16.76220703 C-3.02761719 16.55337891 -3.70953125 16.34455078 -4.41210938 16.12939453 C-5.84527835 13.26305658 -5.54411299 10.75703952 -5.53710938 7.56689453 C-5.5396875 6.38998047 -5.54226563 5.21306641 -5.54492188 4.00048828 C-5.33630551 -0.5093067 -4.09152168 0.00392327 0 0 Z " fill="#2F2E2E" transform="translate(364.412109375,-0.12939453125)"/>
<path d="M0 0 C1.27545181 -0.00960754 2.55090363 -0.01921509 3.86500549 -0.02911377 C5.27059755 -0.03396394 6.67619168 -0.03824223 8.08178711 -0.04199219 C9.51850893 -0.0477442 10.95523074 -0.05350193 12.39195251 -0.05926514 C15.41250975 -0.06979026 18.43304028 -0.07562165 21.45361328 -0.07910156 C25.30808168 -0.08456115 29.1621923 -0.10852764 33.01654911 -0.13707352 C35.98928316 -0.15578954 38.96193303 -0.16091044 41.93472099 -0.16243744 C43.35437392 -0.16544907 44.77402589 -0.17342685 46.19362068 -0.18662262 C62.75815633 -0.32948599 62.75815633 -0.32948599 69.73413086 5.34863281 C70.49725586 6.27675781 71.26038086 7.20488281 72.04663086 8.16113281 C72.46686523 8.66902344 72.88709961 9.17691406 73.32006836 9.70019531 C86.28264194 27.53355412 82.58803881 56.41087536 79.69213867 76.51757812 C77.31577233 89.93092584 72.75369274 102.0056632 63.05053711 111.72363281 C60.51889805 114.80305343 60.27823878 116.16485848 60.04663086 120.16113281 C60.70084334 123.85131335 61.73358885 127.41471933 62.77319336 131.01269531 C63.07245728 132.08443497 63.37172119 133.15617462 63.68005371 134.26039124 C64.66466275 137.77265638 65.66750154 141.27940291 66.67163086 144.78613281 C67.35834621 147.21408181 68.04437519 149.64222503 68.72973633 152.07055664 C70.47825568 158.24817285 72.24489545 164.42042549 74.01977539 170.59051514 C75.00146454 174.00407891 75.97950501 177.41866845 76.95678711 180.83349609 C78.40984287 185.90331443 79.87470911 190.9695569 81.35101318 196.03265381 C81.89230901 197.89012985 82.43146032 199.74823236 82.96832275 201.60699463 C86.67877481 215.95374709 86.67877481 215.95374709 93.04663086 229.16113281 C95.02663086 230.15113281 95.02663086 230.15113281 97.04663086 231.16113281 C97.04663086 235.78113281 97.04663086 240.40113281 97.04663086 245.16113281 C93.46106078 246.05752533 90.83720894 246.27741127 87.18725586 246.25878906 C86.0722168 246.25556641 84.95717773 246.25234375 83.80834961 246.24902344 C82.64948242 246.24064453 81.49061523 246.23226562 80.29663086 246.22363281 C79.12229492 246.21912109 77.94795898 246.21460938 76.73803711 246.20996094 C73.84085013 246.19818375 70.94376632 246.18173607 68.04663086 246.16113281 C66.62837754 241.26785565 65.29852333 236.35839927 64.03466797 231.42285156 C63.84400757 230.68158524 63.65334717 229.94031891 63.45690918 229.17658997 C63.04464069 227.5737077 62.63273053 225.97073323 62.22114372 224.36767578 C61.3315428 220.90499053 60.43847629 217.443202 59.54562473 213.98135376 C57.89009803 207.56238116 56.23564461 201.14314079 54.58789062 194.72216797 C49.92721528 176.56660075 45.23852802 158.4244378 40.05053711 140.41113281 C39.68862778 139.14462891 39.32671844 137.878125 38.95384216 136.57324219 C38.44398521 134.83010742 38.44398521 134.83010742 37.92382812 133.05175781 C37.6321022 132.05176758 37.34037628 131.05177734 37.03981018 130.02148438 C36.08782301 127.05263398 36.08782301 127.05263398 34.40977478 124.03515625 C32.66357169 120.35349907 33.18660803 118.07032748 34.04663086 114.16113281 C34.62670898 114.07476562 35.20678711 113.98839844 35.80444336 113.89941406 C41.17725169 112.93301784 45.70958879 111.76294301 49.04663086 107.16113281 C56.0233026 93.46618458 57.62482078 78.35481151 57.48413086 63.22363281 C57.48108948 62.52657227 57.4780481 61.82951172 57.47491455 61.11132812 C57.39167847 48.20196618 57.23720942 35.00080139 48.60913086 24.54394531 C44.83149705 21.20073939 41.77713062 20.92786108 36.79663086 21.03613281 C35.18014648 21.06320313 35.18014648 21.06320313 33.53100586 21.09082031 C32.71116211 21.11402344 31.89131836 21.13722656 31.04663086 21.16113281 C30.30351198 26.46788993 29.92118514 31.5679754 29.91964722 36.93838501 C29.91808723 37.67854902 29.91652724 38.41871302 29.91491997 39.18130624 C29.91096048 41.63895804 29.91407997 44.09654706 29.91723633 46.55419922 C29.91587998 48.32574499 29.91409873 50.09729049 29.91192627 51.86883545 C29.90737781 56.66667644 29.90913139 61.46449585 29.91230536 66.26233721 C29.9148447 71.29796944 29.91248681 76.33359987 29.91091919 81.36923218 C29.90910109 89.83095632 29.91149335 98.29267172 29.91625977 106.75439453 C29.92169114 116.50862539 29.91994647 126.2628353 29.91443336 136.01706564 C29.90987938 144.41313181 29.90926315 152.80919172 29.91187203 161.20525873 C29.91342362 166.21010135 29.91365964 171.21493418 29.91033554 176.21977615 C29.90742391 180.93283048 29.90949237 185.64585813 29.9152298 190.35890961 C29.91654033 192.07847169 29.91619271 193.79803606 29.91396713 195.5175972 C28.63944696 212.11499747 28.63944696 212.11499747 32.46140862 226.99372292 C34.36245608 228.39371691 35.93175346 228.85796222 38.23413086 229.34863281 C39.49225586 229.61675781 40.75038086 229.88488281 42.04663086 230.16113281 C42.04663086 235.11113281 42.04663086 240.06113281 42.04663086 245.16113281 C39.21650959 246.10450657 37.50363168 246.28286111 34.57519531 246.2746582 C33.22413445 246.27454491 33.22413445 246.27454491 31.84577942 246.27442932 C30.87694321 246.26926804 29.90810699 246.26410675 28.90991211 246.25878906 C27.41804634 246.25666664 27.41804634 246.25666664 25.89604187 246.25450134 C22.71704104 246.24890042 19.53811043 246.23634777 16.35913086 246.22363281 C14.204835 246.21861793 12.05053804 246.214055 9.89624023 246.20996094 C4.61301312 246.19893069 -0.67017299 246.18219168 -5.95336914 246.16113281 C-7.37755975 243.3127516 -7.12332422 240.83325373 -7.14086914 237.66113281 C-7.16213867 235.91316406 -7.16213867 235.91316406 -7.18383789 234.12988281 C-6.95336914 231.16113281 -6.95336914 231.16113281 -4.95336914 229.16113281 C-3.04321289 228.56347656 -3.04321289 228.56347656 -0.89086914 228.09863281 C1.84738216 227.63750785 1.84738216 227.63750785 4.04663086 226.16113281 C4.96253881 221.11119679 5.19127224 216.16329371 5.18034363 211.04615784 C5.18260918 210.25769578 5.18487474 209.46923373 5.18720895 208.65687889 C5.1935099 206.0301079 5.19272211 203.40338902 5.19189453 200.77661133 C5.19488841 198.88710463 5.19829147 196.99759855 5.20207214 195.10809326 C5.2108918 189.98622987 5.21324937 184.86438319 5.21388793 179.74251294 C5.21459944 176.54079786 5.21673565 173.339087 5.21938515 170.13737297 C5.22863093 158.96291713 5.23272088 147.78847321 5.23193359 136.61401367 C5.23133259 126.20472289 5.2418908 115.79548389 5.25767726 105.38620621 C5.27075808 96.44163792 5.27611728 87.49708655 5.27547818 78.55250877 C5.27522341 73.21359716 5.27806337 67.87473161 5.28865623 62.53582954 C5.29834662 57.51499715 5.29840991 52.49425478 5.2911396 47.47341919 C5.29009503 45.63361924 5.29244911 43.79381366 5.29850006 41.95402336 C5.30624078 39.43694078 5.30156155 36.92016756 5.29386902 34.40309143 C5.29901258 33.68021598 5.30415614 32.95734053 5.30945557 32.21255976 C5.27578168 27.20476945 4.39774539 22.94350054 3.04663086 18.16113281 C2.40854492 18.03996094 1.77045898 17.91878906 1.11303711 17.79394531 C0.28674805 17.62636719 -0.53954102 17.45878906 -1.39086914 17.28613281 C-2.21458008 17.12371094 -3.03829102 16.96128906 -3.88696289 16.79394531 C-4.56887695 16.58511719 -5.25079102 16.37628906 -5.95336914 16.16113281 C-7.38653812 13.29479486 -7.08537275 10.7887778 -7.07836914 7.59863281 C-7.08094727 6.42171875 -7.08352539 5.24480469 -7.08618164 4.03222656 C-6.85100559 -1.05172636 -4.55166237 0.02754312 0 0 Z " fill="#2F2E2E" transform="translate(162.953369140625,-0.1611328125)"/>
<path d="M0 0 C1.64418591 -0.04135001 3.28801154 -0.10241299 4.93066406 -0.18457031 C15.02663215 -0.68062386 22.2186118 -0.19302157 30.08998108 6.57846069 C33.8612227 10.08165168 37.24973857 13.66696299 39.93237305 18.06225586 C40.58894897 19.11401001 40.58894897 19.11401001 41.25878906 20.18701172 C61.82569776 55.31858128 61.31491096 100.92168443 59.33813477 140.39428711 C59.214336 142.96185022 59.12130933 145.52397296 59.0612793 148.09350586 C57.97289695 178.4362865 51.49641145 218.10883204 29.36450195 240.46069336 C20.09671219 248.96598913 13.18725397 250.80445499 0.74487305 250.81225586 C-0.27928711 250.82450195 -1.30344727 250.83674805 -2.35864258 250.84936523 C-13.64760113 250.87128554 -20.23953241 247.18389488 -28.15258789 239.41479492 C-50.5942081 215.28840791 -54.51553154 174.09862214 -54.81762695 142.62475586 C-54.84614746 141.0947998 -54.84614746 141.0947998 -54.87524414 139.53393555 C-55.12827322 125.55096807 -54.79620161 111.6416572 -53.94262695 97.68725586 C-53.86423584 96.37909912 -53.78584473 95.07094238 -53.70507812 93.72314453 C-52.07146698 69.25970015 -47.41548205 44.31637619 -35.50512695 22.68725586 C-34.9138501 21.59977051 -34.32257324 20.51228516 -33.71337891 19.3918457 C-25.15869701 4.80038587 -16.04538277 0.31436755 0 0 Z M-10.81762695 22.62475586 C-13.72477075 25.67622595 -15.77481191 28.95407258 -17.81762695 32.62475586 C-18.47504883 33.64956055 -19.1324707 34.67436523 -19.80981445 35.73022461 C-22.53476807 40.5241725 -23.6699407 45.73584375 -24.94262695 51.06225586 C-25.33164185 52.6591626 -25.33164185 52.6591626 -25.72851562 54.28833008 C-27.7211327 62.70527691 -29.13546668 71.00271312 -29.81762695 79.62475586 C-29.90230225 80.54579102 -29.98697754 81.46682617 -30.07421875 82.41577148 C-31.00780539 93.56238104 -31.01631418 104.69577828 -31.00512695 115.87475586 C-31.00485504 116.89399139 -31.00458313 117.91322693 -31.00430298 118.96334839 C-30.98512632 134.59938107 -30.6441334 150.07860057 -28.81762695 165.62475586 C-28.65689697 167.01887695 -28.65689697 167.01887695 -28.49291992 168.44116211 C-24.79486104 201.73956549 -24.79486104 201.73956549 -6.81762695 228.62475586 C-3.27865474 230.784238 -0.13430427 231.62475586 4.05737305 231.62475586 C5.08862305 231.29475586 6.11987305 230.96475586 7.18237305 230.62475586 C7.93389648 230.4172168 8.68541992 230.20967773 9.4597168 229.99584961 C17.07361825 227.19196294 20.70226509 221.60162936 24.1394043 214.61303711 C32.63960664 195.25830266 34.28044948 172.94538988 35.36987305 152.06225586 C35.41251282 151.25094208 35.45515259 150.4396283 35.49908447 149.60372925 C39.50260173 83.86887502 39.50260173 83.86887502 16.80737305 24.87475586 C12.86206701 20.86280614 9.63666643 18.94130943 4.18237305 17.62475586 C-1.30437732 17.62475586 -6.12438853 19.90121853 -10.81762695 22.62475586 Z " fill="#2E2D2D" transform="translate(544.817626953125,-0.624755859375)"/>
<path d="M0 0 C1.08628693 0.00303635 1.08628693 0.00303635 2.19451904 0.00613403 C3.3334964 0.00350555 3.3334964 0.00350555 4.4954834 0.00082397 C7.0175807 -0.00359473 9.53960847 -0.00065649 12.06170654 0.00271606 C13.80666111 0.00204303 15.55161558 0.00107301 17.29656982 -0.00018311 C20.95852549 -0.0016601 24.62045682 0.00049454 28.28240967 0.00515747 C32.98715147 0.01085476 37.69183622 0.00757577 42.39657593 0.00158501 C46.00124546 -0.00202055 49.60590136 -0.00088204 53.21057129 0.0017128 C54.94580085 0.00238208 56.68103163 0.0015536 58.41625977 -0.00076675 C60.83717142 -0.0032932 63.25798941 0.00054718 65.67889404 0.00613403 C66.40308533 0.0041098 67.12727661 0.00208557 67.87341309 0 C72.82244388 0.0212659 72.82244388 0.0212659 73.93670654 1.13552856 C73.96597779 2.92848721 73.92272928 4.72268169 73.85076904 6.51443481 C73.78599365 8.22203979 73.78599365 8.22203979 73.71990967 9.96414185 C73.66770264 11.19632446 73.61549561 12.42850708 73.56170654 13.69802856 C73.51207764 14.94825806 73.46244873 16.19848755 73.41131592 17.48660278 C73.30762897 20.08304196 73.20180147 22.67939646 73.09393311 25.27566528 C72.94474117 28.93828095 72.80930538 32.60110839 72.67889404 36.26443481 C72.59841815 38.42980883 72.51770111 40.59517389 72.43670654 42.76052856 C72.40141846 43.77832397 72.36613037 44.79611938 72.32977295 45.84475708 C72.27442383 47.2455249 72.27442383 47.2455249 72.21795654 48.67459106 C72.18766357 49.49137329 72.15737061 50.30815552 72.12615967 51.14968872 C71.93670654 53.13552856 71.93670654 53.13552856 70.93670654 55.13552856 C69.27058749 55.17824957 67.60287769 55.17616689 65.93670654 55.13552856 C64.10547556 53.30429758 64.56777039 50.38401112 64.40155029 47.91287231 C64.31453857 46.65281372 64.22752686 45.39275513 64.13787842 44.09451294 C64.0498889 42.75402464 63.96199959 41.41352975 63.87420654 40.07302856 C63.78283125 38.7285988 63.69103979 37.38419726 63.59881592 36.03982544 C63.37400461 32.73864882 63.15349674 29.43724008 62.93670654 26.13552856 C61.92608154 25.66115356 60.91545654 25.18677856 59.87420654 24.69802856 C59.30572998 24.43119263 58.73725342 24.16435669 58.15155029 23.88943481 C49.54377377 20.95945092 39.68068312 22.13552856 30.93670654 22.13552856 C30.60670654 50.51552856 30.27670654 78.89552856 29.93670654 108.13552856 C42.8740534 108.82330521 42.8740534 108.82330521 54.93670654 106.13552856 C56.19469141 102.36157396 56.25706308 98.69937779 56.43670654 94.76052856 C56.85621822 85.65557137 56.85621822 85.65557137 57.93670654 81.13552856 C59.936254 81.092985 61.93712291 81.09472074 63.93670654 81.13552856 C65.59559393 82.79441595 65.06233179 84.79237639 65.07223511 87.00843811 C65.06919876 88.05264671 65.06919876 88.05264671 65.06610107 89.11795044 C65.06872955 90.21303673 65.06872955 90.21303673 65.07141113 91.33024597 C65.07582953 93.75494735 65.07289171 96.17957639 65.06951904 98.60427856 C65.07019209 100.28197239 65.07116211 101.95966613 65.07241821 103.63735962 C65.07389517 107.1580803 65.0717407 110.67877566 65.06707764 114.19949341 C65.06138035 118.72263352 65.06465936 123.2457143 65.0706501 127.76885223 C65.07425578 131.23455252 65.0731171 134.70023863 65.07052231 138.16593933 C65.06985306 139.83418281 65.0706814 141.50242756 65.07300186 143.17066956 C65.0755285 145.4981835 65.07168767 147.82560004 65.06610107 150.15310669 C65.06812531 150.84924576 65.07014954 151.54538483 65.07223511 152.26261902 C65.05096928 157.02126583 65.05096928 157.02126583 63.93670654 158.13552856 C60.93670654 158.26052856 60.93670654 158.26052856 57.93670654 158.13552856 C56.3496046 156.54842662 56.73513456 154.85489353 56.65545654 152.65505981 C56.59938232 151.27930786 56.59938232 151.27930786 56.54217529 149.87576294 C56.50737061 148.9096106 56.47256592 147.94345825 56.43670654 146.94802856 C56.14566887 138.49662886 56.14566887 138.49662886 54.93670654 130.13552856 C46.33292051 127.86817789 39.19163157 128.13552856 29.93670654 128.13552856 C29.93670654 159.81552856 29.93670654 191.49552856 29.93670654 224.13552856 C48.56864597 223.03914418 48.56864597 223.03914418 66.93670654 220.13552856 C67.02234863 219.22263062 67.10799072 218.30973267 67.19622803 217.36917114 C67.51657679 213.96776375 67.8392626 210.56659465 68.16351318 207.16555786 C68.30311651 205.69624502 68.44179997 204.22684447 68.57952881 202.75735474 C68.77817258 200.63968302 68.98017145 198.52235348 69.18280029 196.40505981 C69.30324707 195.13251343 69.42369385 193.85996704 69.54779053 192.54885864 C69.87344488 189.69074592 70.3154962 186.94152398 70.93670654 184.13552856 C72.936254 184.092985 74.93712291 184.09472074 76.93670654 184.13552856 C77.93670654 185.13552856 77.93670654 185.13552856 77.9743042 187.84988403 C77.9335376 189.0553186 77.892771 190.26075317 77.85076904 191.50271606 C77.82989227 192.16139679 77.8090155 192.82007751 77.7875061 193.49871826 C77.71735952 195.66952535 77.63974245 197.83999183 77.56170654 200.01052856 C77.51123221 201.50205342 77.46110446 202.99359004 77.41131592 204.48513794 C77.30851571 207.53635659 77.20239195 210.58743571 77.09393311 213.63845825 C76.94466428 217.85853036 76.81069218 222.07893736 76.67889404 226.29959106 C76.59859973 228.74491788 76.51789349 231.19023122 76.43670654 233.63552856 C76.40141846 234.78521118 76.36613037 235.9348938 76.32977295 237.11941528 C76.27442383 238.68973511 76.27442383 238.68973511 76.21795654 240.29177856 C76.18766357 241.20765747 76.15737061 242.12353638 76.12615967 243.06716919 C75.93670654 245.13552856 75.93670654 245.13552856 74.93670654 246.13552856 C72.64159158 246.23524011 70.34336105 246.26352723 68.04608154 246.2649231 C67.32577759 246.26667542 66.60547363 246.26842773 65.86334229 246.27023315 C63.4711062 246.27465145 61.07894344 246.27171377 58.68670654 246.26834106 C57.03143296 246.26901411 55.37615947 246.26998414 53.72088623 246.27124023 C50.24724387 246.27271718 46.77362718 246.27056277 43.29998779 246.26589966 C38.83738156 246.26020237 34.37483547 246.26348139 29.91223145 246.26947212 C26.49285424 246.27307784 23.0734914 246.2719391 19.65411377 246.26934433 C18.00819898 246.26867509 16.36228291 246.26950338 14.71636963 246.27182388 C12.41998823 246.27435058 10.12370555 246.2705096 7.82733154 246.2649231 C5.86328369 246.26372971 5.86328369 246.26372971 3.85955811 246.26251221 C0.93670654 246.13552856 0.93670654 246.13552856 -0.06329346 245.13552856 C-0.84268728 240.04720032 -0.4873219 236.21493038 2.37420654 231.88552856 C2.82666748 231.28224731 3.27912842 230.67896606 3.74530029 230.05740356 C6.50570105 225.60456037 6.07921556 220.35216425 6.06369019 215.27452087 C6.06525018 214.4891788 6.06681017 213.70383673 6.06841743 212.89469641 C6.07240203 210.26637717 6.06924755 207.63811581 6.06610107 205.00979614 C6.06745629 203.12382982 6.06923691 201.23786375 6.07141113 199.35189819 C6.07597264 194.22977877 6.07420074 189.10767948 6.07103205 183.9855597 C6.06849999 178.62105394 6.07084852 173.2565499 6.07241821 167.89204407 C6.07423821 158.87774344 6.07183885 149.863451 6.06707764 140.84915161 C6.06164359 130.44109336 6.06339212 120.03305473 6.06890404 109.62499696 C6.07344984 100.682137 6.07407829 91.73928293 6.07146537 82.79642218 C6.06990961 77.45855017 6.06968945 72.12068735 6.07300186 66.78281593 C6.07590158 61.75874037 6.07386638 56.73468993 6.0681076 51.71061707 C6.0667909 49.87166066 6.06715552 48.03270211 6.06937027 46.19374657 C6.95177583 31.75846733 6.95177583 31.75846733 3.93670654 18.13552856 C1.85059096 17.48498957 1.85059096 17.48498957 -0.56329346 17.07302856 C-4.96935999 16.22946203 -4.96935999 16.22946203 -6.06329346 15.13552856 C-6.16238648 12.80392801 -6.1929985 10.46922915 -6.18829346 8.13552856 C-6.19087158 6.85677856 -6.19344971 5.57802856 -6.19610596 4.26052856 C-5.98386903 -0.73328153 -4.55779012 0.01958475 0 0 Z " fill="#2F2E2E" transform="translate(272.06329345703125,-0.135528564453125)"/>
<path d="M0 0 C1.39456452 0.00667256 2.78911118 0.01863093 4.18359375 0.03515625 C5.2499707 0.04192383 5.2499707 0.04192383 6.33789062 0.04882812 C8.09899388 0.06064761 9.86005411 0.07858362 11.62109375 0.09765625 C13.04246884 2.94040644 12.74707635 5.33313286 12.74807739 8.51281738 C12.74963738 9.17873414 12.75119737 9.84465089 12.75280464 10.53074694 C12.75680805 12.77247329 12.75362754 15.01413247 12.75048828 17.25585938 C12.75184261 18.85880066 12.75362273 20.46174163 12.75579834 22.06468201 C12.76036886 26.42613674 12.75858467 30.7875679 12.75541925 35.14902306 C12.7528937 39.70583537 12.75523374 44.26264562 12.75680542 48.81945801 C12.75862654 56.47290409 12.75622231 64.12634054 12.75146484 71.77978516 C12.74602233 80.63776754 12.74778503 89.49572692 12.75329125 98.35370874 C12.75782401 105.94862392 12.75847213 113.54353215 12.75585258 121.13844824 C12.75429071 125.67909974 12.7540936 130.21974042 12.75738907 134.76039124 C12.76027014 139.02846928 12.75828771 143.29651755 12.75249481 147.56459236 C12.75116849 149.13438429 12.75155918 150.7041787 12.75375748 152.27396965 C12.75647396 154.41017905 12.75308171 156.54629193 12.74807739 158.68249512 C12.74751185 160.47886036 12.74751185 160.47886036 12.74693489 162.31151581 C12.62109375 165.09765625 12.62109375 165.09765625 11.62109375 167.09765625 C-36.88890625 167.09765625 -85.39890625 167.09765625 -135.37890625 167.09765625 C-135.37890625 163.79765625 -135.37890625 160.49765625 -135.37890625 157.09765625 C-128.44890625 157.09765625 -121.51890625 157.09765625 -114.37890625 157.09765625 C-114.40984375 154.43703125 -114.40984375 154.43703125 -114.44140625 151.72265625 C-114.50390625 146.34765625 -114.50390625 146.34765625 -113.37890625 144.09765625 C-111.7547188 144.01674654 -110.1293888 143.9585063 -108.50390625 143.91015625 C-107.59898438 143.87535156 -106.6940625 143.84054688 -105.76171875 143.8046875 C-104.58222656 143.94970703 -104.58222656 143.94970703 -103.37890625 144.09765625 C-101.16976625 147.41136625 -101.15409072 148.44225835 -101.25390625 152.28515625 C-101.27195313 153.18621094 -101.29 154.08726562 -101.30859375 155.015625 C-101.33179688 155.70269531 -101.355 156.38976562 -101.37890625 157.09765625 C-99.72890625 157.09765625 -98.07890625 157.09765625 -96.37890625 157.09765625 C-96.38414307 156.25468994 -96.38937988 155.41172363 -96.39477539 154.54321289 C-96.41178451 151.42537689 -96.42434031 148.30756448 -96.43383789 145.18969727 C-96.43887682 143.83845239 -96.44570802 142.48721299 -96.4543457 141.13598633 C-96.46643044 139.19745191 -96.47160453 137.25887825 -96.4765625 135.3203125 C-96.48179932 134.15250244 -96.48703613 132.98469238 -96.49243164 131.78149414 C-96.37890625 129.09765625 -96.37890625 129.09765625 -95.37890625 128.09765625 C-93.73660261 127.97310765 -92.08838349 127.92197101 -90.44140625 127.91015625 C-89.54550781 127.89597656 -88.64960937 127.88179688 -87.7265625 127.8671875 C-85.37890625 128.09765625 -85.37890625 128.09765625 -83.37890625 130.09765625 C-83.15185547 132.80322266 -83.15185547 132.80322266 -83.18359375 136.19921875 C-83.19003906 137.4109375 -83.19648437 138.62265625 -83.203125 139.87109375 C-83.21988281 141.14210937 -83.23664063 142.413125 -83.25390625 143.72265625 C-83.26292969 145.00140625 -83.27195313 146.28015625 -83.28125 147.59765625 C-83.30488322 150.76450792 -83.33782996 153.93099049 -83.37890625 157.09765625 C-81.72890625 157.09765625 -80.07890625 157.09765625 -78.37890625 157.09765625 C-78.38112686 156.47347305 -78.38334747 155.84928986 -78.38563538 155.20619202 C-78.40768705 148.73422821 -78.42281235 142.262275 -78.43383789 135.7902832 C-78.43887974 133.37198453 -78.44571303 130.95368892 -78.4543457 128.53540039 C-78.46641782 125.06786342 -78.47213588 121.60036659 -78.4765625 118.1328125 C-78.48172379 117.04428482 -78.48688507 115.95575714 -78.49220276 114.83424377 C-78.49227829 113.83328171 -78.49235382 112.83231964 -78.49243164 111.80102539 C-78.49465225 110.91500137 -78.49687286 110.02897736 -78.49916077 109.11610413 C-78.37890625 107.09765625 -78.37890625 107.09765625 -77.37890625 106.09765625 C-75.1640625 105.89453125 -75.1640625 105.89453125 -72.44140625 105.84765625 C-71.54550781 105.821875 -70.64960937 105.79609375 -69.7265625 105.76953125 C-68.95183594 105.8778125 -68.17710938 105.98609375 -67.37890625 106.09765625 C-65.23107792 109.31939874 -65.13241477 110.14102935 -65.15185547 113.84448242 C-65.15200653 114.80525192 -65.15215759 115.76602142 -65.15231323 116.75590515 C-65.1626358 117.7903627 -65.17295837 118.82482025 -65.18359375 119.890625 C-65.18642365 120.95179031 -65.18925354 122.01295563 -65.19216919 123.10627747 C-65.20337441 126.49935122 -65.22847978 129.89216212 -65.25390625 133.28515625 C-65.2639356 135.58398057 -65.27306153 137.88280901 -65.28125 140.18164062 C-65.30331484 145.82040236 -65.33679581 151.45901053 -65.37890625 157.09765625 C-63.72890625 157.09765625 -62.07890625 157.09765625 -60.37890625 157.09765625 C-60.38334747 156.16249176 -60.3877887 155.22732727 -60.3923645 154.26382446 C-60.43285299 145.4642085 -60.46286288 136.66461135 -60.48253059 127.86492348 C-60.49298176 123.34057365 -60.50716515 118.81629884 -60.52978516 114.29199219 C-60.55146618 109.92834101 -60.56346483 105.56476212 -60.56866074 101.20106125 C-60.57236504 99.53363278 -60.57959832 97.8662084 -60.59036636 96.19881058 C-60.60481845 93.8689433 -60.60688686 91.53937731 -60.60595703 89.20947266 C-60.61314758 88.51535782 -60.62033813 87.82124298 -60.62774658 87.10609436 C-60.60701057 82.32576057 -60.60701057 82.32576057 -58.37890625 80.09765625 C-56.50390625 79.8671875 -56.50390625 79.8671875 -54.37890625 79.91015625 C-53.67765625 79.91660156 -52.97640625 79.92304688 -52.25390625 79.9296875 C-50.37890625 80.09765625 -50.37890625 80.09765625 -48.37890625 81.09765625 C-47.20163172 84.62947983 -47.25896367 87.41101887 -47.26538086 91.1394043 C-47.26523483 91.85185303 -47.26508881 92.56430176 -47.26493835 93.29833984 C-47.26563474 95.65204925 -47.27341433 98.00567942 -47.28125 100.359375 C-47.28311515 101.9917649 -47.2845386 103.62415536 -47.28553772 105.25654602 C-47.28935524 109.552272 -47.29917901 113.84796414 -47.3102417 118.14367676 C-47.32047226 122.52742048 -47.32503887 126.91116966 -47.33007812 131.29492188 C-47.34080195 139.89584885 -47.3578692 148.49674834 -47.37890625 157.09765625 C-46.05890625 157.09765625 -44.73890625 157.09765625 -43.37890625 157.09765625 C-43.388899 155.30360603 -43.388899 155.30360603 -43.39909363 153.47331238 C-43.4598387 142.21642461 -43.50484712 130.95956998 -43.53434277 119.70255566 C-43.5500164 113.9148343 -43.57128575 108.12724497 -43.60522461 102.33959961 C-43.63775735 96.75697337 -43.65574646 91.17447433 -43.66353798 85.59176064 C-43.66909243 83.45903838 -43.67993854 81.32632329 -43.69609642 79.19365501 C-43.71778967 76.21252628 -43.72087656 73.23192704 -43.71948242 70.25073242 C-43.73026825 69.36384735 -43.74105408 68.47696228 -43.75216675 67.5632019 C-43.74804276 66.75131912 -43.74391876 65.93943634 -43.7396698 65.10295105 C-43.74243518 64.39777942 -43.74520056 63.69260778 -43.74804974 62.96606731 C-43.26222931 60.50709865 -42.33989478 59.61481098 -40.37890625 58.09765625 C-37.75 57.76953125 -37.75 57.76953125 -34.81640625 57.84765625 C-33.84574219 57.863125 -32.87507813 57.87859375 -31.875 57.89453125 C-29.37890625 58.09765625 -29.37890625 58.09765625 -27.37890625 59.09765625 C-26.04026344 63.11358468 -26.24822853 66.97239909 -26.26538086 71.15893555 C-26.26523483 72.08596283 -26.26508881 73.01299011 -26.26493835 73.96810913 C-26.26563571 77.03605479 -26.27341988 80.10393993 -26.28125 83.171875 C-26.28311481 85.29751045 -26.28453841 87.42314632 -26.28553772 89.54878235 C-26.28935796 95.14654728 -26.29918406 100.74428632 -26.3102417 106.34204102 C-26.32046641 112.05289357 -26.32503762 117.76375031 -26.33007812 123.47460938 C-26.34080674 134.68230305 -26.35787728 145.8899775 -26.37890625 157.09765625 C-25.05890625 157.09765625 -23.73890625 157.09765625 -22.37890625 157.09765625 C-22.04890625 113.86765625 -21.71890625 70.63765625 -21.37890625 26.09765625 C-19.16595009 24.99117817 -17.83217926 24.90177257 -15.37890625 24.84765625 C-14.67765625 24.821875 -13.97640625 24.79609375 -13.25390625 24.76953125 C-12.63515625 24.8778125 -12.01640625 24.98609375 -11.37890625 25.09765625 C-9.15416092 28.43477424 -9.13083859 29.46684532 -9.13839722 33.35575867 C-9.13564789 34.44530853 -9.13289856 35.5348584 -9.13006592 36.65742493 C-9.14085175 38.45061409 -9.14085175 38.45061409 -9.15185547 40.2800293 C-9.15156342 41.53867798 -9.15127136 42.79732666 -9.15097046 44.09411621 C-9.15039604 47.54636477 -9.16216477 50.99847468 -9.17611837 54.45069098 C-9.18861083 58.05816939 -9.18979506 61.66565088 -9.19216919 65.27314758 C-9.19838833 72.10481846 -9.21480501 78.93642542 -9.23486817 85.76806813 C-9.25721367 93.5454898 -9.2682172 101.3229145 -9.27825904 109.10036027 C-9.29917087 125.09949597 -9.33435527 141.09856787 -9.37890625 157.09765625 C-7.72890625 157.09765625 -6.07890625 157.09765625 -4.37890625 157.09765625 C-4.38028894 155.89306558 -4.38028894 155.89306558 -4.38169956 154.66413975 C-4.4037532 135.15271081 -4.42031702 115.64128435 -4.43071842 96.12984562 C-4.43588174 86.69438798 -4.44292512 77.25893864 -4.4543457 67.82348633 C-4.46429145 59.60261942 -4.47075942 51.38175851 -4.47299474 43.16088575 C-4.47430204 38.80523303 -4.47738906 34.4495975 -4.48463631 30.09395027 C-4.4913948 25.99909011 -4.49352356 21.90425433 -4.49201393 17.80938911 C-4.49229034 16.30206673 -4.49429647 14.79474358 -4.49811172 13.28742599 C-4.50304624 11.23838126 -4.50130444 9.18932361 -4.49916077 7.14027405 C-4.50054346 5.41606027 -4.50054346 5.41606027 -4.50195408 3.65701389 C-4.31462578 -0.23935808 -4.01691988 0.11609595 0 0 Z " fill="#23CC53" transform="translate(135.37890625,79.90234375)"/>
<path d="M0 0 C13.86 0 27.72 0 42 0 C42 2.64 42 5.28 42 8 C40.03177114 9.96822886 36.65191291 9.66248381 34 10 C31.40565987 14.93834919 31.65148877 19.89261907 31.5859375 25.33203125 C31.56657135 26.32377853 31.5472052 27.31552582 31.5272522 28.33732605 C31.46761547 31.4956307 31.42113445 34.6539721 31.375 37.8125 C31.3368056 39.95769792 31.29775302 42.10288075 31.2578125 44.24804688 C31.1603164 49.49861804 31.08062089 54.74903419 31 60 C44.53 60 58.06 60 72 60 C71.87981225 54.14660074 71.75702979 48.29337323 71.62768555 42.44018555 C71.58450129 40.4509601 71.5428153 38.46170152 71.50268555 36.47241211 C71.44458102 33.60520463 71.38100445 30.7381614 71.31640625 27.87109375 C71.29969376 26.98852402 71.28298126 26.10595428 71.26576233 25.19664001 C71.59874021 17.07976163 71.59874021 17.07976163 69 10 C67.845 9.835 66.69 9.67 65.5 9.5 C62 9 62 9 61 8 C61 5.36 61 2.72 61 0 C74.86 0 88.72 0 103 0 C103 2.64 103 5.28 103 8 C102 9 102 9 98.5625 9.3125 C94.9994412 9.57042331 94.9994412 9.57042331 93.79237556 11.73529434 C92.90281555 14.27776498 92.75371454 16.23097412 92.75949097 18.92279053 C92.75674164 19.91274521 92.75399231 20.90269989 92.75115967 21.9226532 C92.75835022 23.0023085 92.76554077 24.08196381 92.77294922 25.19433594 C92.77265717 26.3360878 92.77236511 27.47783966 92.77206421 28.65419006 C92.77345841 32.43099547 92.78902413 36.20760402 92.8046875 39.984375 C92.8084173 42.60182589 92.81126443 45.21927817 92.81326294 47.83673096 C92.81947694 54.0238012 92.83588666 60.21080069 92.85596192 66.39783978 C92.87832342 73.44252856 92.88931498 80.48722073 92.89935279 87.53193617 C92.92025297 102.02132726 92.9554274 116.51066264 93 131 C93.63808594 131.06058594 94.27617188 131.12117187 94.93359375 131.18359375 C95.75988281 131.26738281 96.58617187 131.35117188 97.4375 131.4375 C98.67306641 131.55931641 98.67306641 131.55931641 99.93359375 131.68359375 C102 132 102 132 103 133 C103 135.97 103 138.94 103 142 C89.14 142 75.28 142 61 142 C61 138.7 61 135.4 61 132 C63.05078125 131.77213542 65.1015625 131.54427083 67.15234375 131.31640625 C69.01140229 131.18113386 69.01140229 131.18113386 70 130 C71.18202085 123.82297066 71.21726764 117.65235809 71.31640625 111.37890625 C71.3475779 109.72905983 71.3475779 109.72905983 71.37937927 108.04588318 C71.4444742 104.5514823 71.50357269 101.05700979 71.5625 97.5625 C71.60572335 95.18553963 71.64933883 92.80858636 71.69335938 90.43164062 C71.80084809 84.62116591 71.90021932 78.8106326 72 73 C58.47 73 44.94 73 31 73 C31.0970083 80.29604496 31.19978836 87.59153179 31.31738281 94.88720703 C31.35562791 97.36827654 31.39048853 99.84940065 31.421875 102.33056641 C31.46762202 105.90026339 31.52560169 109.46958594 31.5859375 113.0390625 C31.59748871 114.14553131 31.60903992 115.25200012 31.62094116 116.39199829 C31.72090685 121.62745395 31.88591028 126.11163113 34 131 C35.134375 131.144375 36.26875 131.28875 37.4375 131.4375 C41 132 41 132 42 133 C42 135.97 42 138.94 42 142 C28.14 142 14.28 142 0 142 C0 133 0 133 1 132 C3.32817964 131.63239269 5.6618385 131.29758419 8 131 C10.3224489 125.46493097 10.28320681 120.41038574 10.25878906 114.51586914 C10.2622937 113.47285141 10.26579834 112.42983368 10.26940918 111.35520935 C10.27819531 107.91512349 10.27238781 104.47524412 10.265625 101.03515625 C10.26697264 98.63911398 10.26891401 96.24307198 10.27142334 93.84703064 C10.27437047 88.8277628 10.27009048 83.80856619 10.26074219 78.78930664 C10.24935414 72.3622803 10.25590574 65.93542112 10.26788712 59.50840092 C10.27512201 54.56097662 10.27281017 49.6135918 10.26763153 44.66616631 C10.26629923 42.29673683 10.26792804 39.92730375 10.27259064 37.55787849 C10.27768186 34.24299789 10.26990863 30.92838604 10.25878906 27.61352539 C10.26283752 26.63823883 10.26688599 25.66295227 10.27105713 24.65811157 C10.23833141 19.37942317 9.7326571 14.99575273 8 10 C6.865625 9.855625 5.73125 9.71125 4.5625 9.5625 C1 9 1 9 0 8 C0 5.36 0 2.72 0 0 Z " fill="#302F2F" transform="translate(893,0)"/>
<path d="M0 0 C7.42398208 -0.09302654 14.84783674 -0.16392923 22.27228546 -0.20724869 C25.72047132 -0.22804893 29.16825594 -0.25622536 32.61621094 -0.30175781 C36.58784035 -0.35387244 40.55931207 -0.37300789 44.53125 -0.390625 C46.37233337 -0.42159271 46.37233337 -0.42159271 48.25061035 -0.45318604 C55.33189732 -0.45502942 59.99547848 0.15110795 66 4 C71.90107747 10.06056605 73.9765796 17.38823168 74.3125 25.625 C74.01404717 37.01887561 71.57224168 47.25793295 63.48828125 55.55078125 C60.31975428 58.37002178 56.84494752 60.26061898 53 62 C53.76183594 62.16113281 54.52367187 62.32226562 55.30859375 62.48828125 C62.93775811 64.49796125 67.52852847 67.29165774 72.21484375 73.6875 C78.91593149 86.12190351 77.96629957 101.65684272 74.3125 114.875 C72.36817988 120.61638007 69.69120667 125.2237142 66 130 C65.2575 131.0725 64.515 132.145 63.75 133.25 C59.34656031 137.65343969 52.38642335 141.73535791 46.00679016 142.12025452 C45.24956161 142.11803391 44.49233307 142.11581329 43.7121582 142.11352539 C42.85149246 142.11344986 41.99082672 142.11337433 41.1040802 142.11329651 C40.17899155 142.10813522 39.25390289 142.10297394 38.30078125 142.09765625 C37.35059616 142.0962413 36.40041107 142.09482635 35.4214325 142.09336853 C32.38508971 142.08776875 29.34882052 142.07521632 26.3125 142.0625 C24.25455836 142.05748497 22.19661556 142.05292207 20.13867188 142.04882812 C15.09241954 142.0377994 10.04622225 142.02053493 5 142 C4.6875 139.375 4.6875 139.375 5 136 C6.22960701 134.77245499 6.22960701 134.77245499 7.48405457 133.52011108 C11.35175688 129.0631705 10.65948122 123.92655647 10.56762695 118.30322266 C10.56835709 117.13191803 10.56908722 115.9606134 10.56983948 114.7538147 C10.56636172 110.89008962 10.52748801 107.02757648 10.48828125 103.1640625 C10.47895379 100.48218749 10.47159141 97.80037922 10.46684265 95.11849976 C10.45132586 88.78611656 10.41032744 82.45416695 10.3600952 76.12197435 C10.30413371 68.9104256 10.27669825 61.69885572 10.25161803 54.48714375 C10.19940918 39.65787448 10.11150951 24.82894481 10 10 C9.36191406 9.93941406 8.72382812 9.87882813 8.06640625 9.81640625 C7.24011719 9.73261719 6.41382813 9.64882812 5.5625 9.5625 C4.73878906 9.48128906 3.91507813 9.40007813 3.06640625 9.31640625 C1 9 1 9 0 8 C-0.14115161 5.32941149 -0.04247107 2.67567762 0 0 Z M31 11 C31 26.51 31 42.02 31 58 C40.98625685 57.73032302 40.98625685 57.73032302 48 53 C53.95207124 43.64948809 54.52095134 32.16724001 52.3125 21.4375 C50.72537284 17.28073838 49.17936298 15.10366386 46 12 C40.90858969 10.55535135 40.90858969 10.55535135 31 11 Z M31 69 C31 89.13 31 109.26 31 130 C38.36618498 131.07762721 38.36618498 131.07762721 45 129 C51.81400209 123.2700437 54.41426533 116.58034511 56 108 C56.35806278 103.62729395 56.27702154 99.37591434 56 95 C55.93039062 93.89011719 55.86078125 92.78023437 55.7890625 91.63671875 C54.95939138 83.79171735 52.9150788 77.47009122 47 72 C41.61831264 69.21138475 37.047006 69 31 69 Z " fill="#30302F" transform="translate(607,0)"/>
<path d="M0 0 C2.51154979 0.02676262 5.01861757 0.0002104 7.5300293 -0.03173828 C17.93220186 -0.05579343 24.58154133 0.9601223 32.68432617 7.87060547 C49.8435226 27.21610878 53.1893527 52.25595 51.70385742 77.31420898 C50.33698035 95.15819255 47.70236566 117.47853425 34.39526367 130.90185547 C33.3016969 131.83114203 32.1987558 132.74962303 31.08276367 133.65185547 C30.31963867 134.49748047 29.55651367 135.34310547 28.77026367 136.21435547 C20.4329797 143.77607814 11.9435798 146.67026487 0.74682617 146.64404297 C-11.13695083 146.0069174 -20.68076116 142.85683329 -29.23754883 134.34326172 C-45.97374904 115.2526469 -48.95656816 89.26446212 -47.58129883 64.78466797 C-45.94483749 42.19611146 -41.65560545 21.10614825 -23.91723633 5.65185547 C-23.40926514 5.16168945 -22.90129395 4.67152344 -22.37792969 4.16650391 C-16.0211627 -0.94208116 -7.73599106 -0.09816289 0 0 Z M-12.17895508 14.33544922 C-26.57207341 28.8382294 -26.69654712 51.57412249 -26.91723633 70.65185547 C-26.82637459 90.73230003 -24.89550069 114.2728371 -10.27270508 129.34716797 C-5.68650354 133.41089085 -2.10744687 133.99671239 3.94213867 133.85107422 C9.87712999 133.29873014 13.95264986 131.20916315 18.20776367 127.02685547 C33.24785967 108.84847173 32.26525428 78.11610066 30.3215332 55.91552734 C28.62804063 39.86024805 24.94328419 25.23079657 13.77026367 13.15185547 C5.3622323 8.45900075 -4.31820269 8.48400832 -12.17895508 14.33544922 Z " fill="#30302F" transform="translate(743.917236328125,-0.65185546875)"/>
<path d="M0 0 C27.72 0 55.44 0 84 0 C84 7.95563585 83.89881739 15.81676762 83.5 23.75 C83.45230469 24.74515625 83.40460938 25.7403125 83.35546875 26.765625 C83.23952672 29.17721929 83.1210178 31.58865603 83 34 C81.35 34 79.7 34 78 34 C76.25672377 28.77017132 75.61770865 23.85385251 75.24609375 18.35546875 C75.13779615 15.98238325 75.13779615 15.98238325 74 14 C63.11 13.505 63.11 13.505 52 13 C52.10816838 27.07371424 52.22029033 41.14738181 52.33933926 55.2210083 C52.39446321 61.75620887 52.44786616 68.29141399 52.49731445 74.82666016 C52.54511355 81.13552639 52.59746154 87.4443401 52.65294075 93.75314331 C52.67329401 96.15801685 52.69201841 98.56290476 52.70907402 100.96780396 C52.73327415 104.34056781 52.76330671 107.71323376 52.79467773 111.0859375 C52.80331093 112.57163994 52.80331093 112.57163994 52.81211853 114.08735657 C52.31536628 123.10552418 52.31536628 123.10552418 55 131 C56.155 131.165 57.31 131.33 58.5 131.5 C62 132 62 132 63 133 C63.07179964 134.51928038 63.08392007 136.04167482 63.0625 137.5625 C63.05347656 138.38878906 63.04445313 139.21507812 63.03515625 140.06640625 C63.02355469 140.70449219 63.01195312 141.34257812 63 142 C57.17928378 142.02464638 51.35859766 142.0428343 45.5378418 142.05493164 C43.55606559 142.05997267 41.57429311 142.06680538 39.5925293 142.07543945 C36.75047891 142.08751515 33.90847753 142.09323045 31.06640625 142.09765625 C29.72891075 142.10539818 29.72891075 142.10539818 28.36439514 142.11329651 C26.24259399 142.11349177 24.1208922 142.0621003 22 142 C21 141 21 141 20.8671875 139.1875 C20.86976563 138.465625 20.87234375 137.74375 20.875 137 C20.87113281 135.9171875 20.87113281 135.9171875 20.8671875 134.8125 C21 133 21 133 22 132 C24.97 131.67 27.94 131.34 31 131 C31.33 92.06 31.66 53.12 32 13 C24.41 13.33 16.82 13.66 9 14 C8.71077627 20.20765272 8.71077627 20.20765272 8.43188477 26.41577148 C8.39377686 27.18477783 8.35566895 27.95378418 8.31640625 28.74609375 C8.26141968 29.93223267 8.26141968 29.93223267 8.20532227 31.14233398 C8 33 8 33 7 34 C4.5 34.125 4.5 34.125 2 34 C-6.02772972 25.97227028 0.34387016 11.34771529 0 0 Z " fill="#313130" transform="translate(803,0)"/>
<path d="M0 0 C0.77629761 -0.0033284 1.55259521 -0.0066568 2.35241699 -0.01008606 C4.00349331 -0.0151627 5.65457995 -0.01749416 7.30566406 -0.01733398 C9.80551754 -0.01949815 12.30491353 -0.03758294 14.8046875 -0.05664062 C16.41145683 -0.05957905 18.01822825 -0.06156084 19.625 -0.0625 C20.36286743 -0.06968552 21.10073486 -0.07687103 21.86096191 -0.08427429 C29.33471587 -0.05219742 36.75971265 0.80938834 42.78125 5.5625 C53.53115813 16.6080306 53.73580256 33.2900405 53.5546875 47.66015625 C53.11981837 63.11680112 49.66277551 79.79517115 38.34375 91.16796875 C32.37109466 95.70718681 27.54642339 97.32214574 20.05078125 97.265625 C18.99173836 97.26350258 18.99173836 97.26350258 17.91130066 97.26133728 C15.65957374 97.25574639 13.40794679 97.24319563 11.15625 97.23046875 C9.62825665 97.22545257 8.10026173 97.22088987 6.57226562 97.21679688 C2.82938865 97.20577995 -0.91341373 97.18852162 -4.65625 97.16796875 C-5.34375 95.41796875 -5.34375 95.41796875 -5.65625 93.16796875 C-4.93395454 92.34960541 -4.93395454 92.34960541 -4.19706726 91.51470947 C-2.03674504 88.22443212 -2.25975339 85.17395995 -2.31567383 81.37011719 C-2.31501671 80.19881256 -2.31501671 80.19881256 -2.31434631 79.00384521 C-2.31643292 76.42808857 -2.3397575 73.8529864 -2.36328125 71.27734375 C-2.36887767 69.48944454 -2.37314755 67.70154072 -2.37614441 65.91363525 C-2.38758957 61.21174379 -2.41705393 56.51013107 -2.45025635 51.80834961 C-2.4809643 47.00899018 -2.4946513 42.20958564 -2.50976562 37.41015625 C-2.54192394 27.99597139 -2.59311635 18.58199327 -2.65625 9.16796875 C-4.63625 8.17796875 -6.61625 7.18796875 -8.65625 6.16796875 C-8.698971 4.5018497 -8.69688832 2.8341399 -8.65625 1.16796875 C-6.66620304 -0.82207821 -2.72443817 0.00402065 0 0 Z M11.34375 9.16796875 C11.34375 35.23796875 11.34375 61.30796875 11.34375 88.16796875 C15.28601843 90.13910296 20.13076795 88.92582813 24.34375 88.16796875 C30.70645283 85.10444517 34.00718878 80.54202394 36.54296875 74.140625 C39.29024042 65.10836691 39.72859924 56.33502135 39.78125 46.91796875 C39.7913208 45.74661377 39.8013916 44.57525879 39.81176758 43.3684082 C39.70308522 32.42540548 38.36038564 20.81168385 30.84375 12.35546875 C24.7410181 7.01557834 20.78078078 9.16796875 11.34375 9.16796875 Z " fill="#34A5E5" transform="translate(791.65625,147.83203125)"/>
<path d="M0 0 C4.69560343 -0.07466101 9.39085443 -0.12884101 14.08691406 -0.16479492 C15.68137641 -0.17979745 17.27579808 -0.20020621 18.87011719 -0.22631836 C21.17393077 -0.26308134 23.4771946 -0.27981155 25.78125 -0.29296875 C26.48366821 -0.30845261 27.18608643 -0.32393646 27.90979004 -0.33988953 C32.93870986 -0.34156504 37.59112543 0.45279718 42 3 C47.2195423 9.20118905 47.43142706 16.30068632 47 24 C46.06968276 31.81937531 44.21499124 39.07728069 38.25 44.5 C37.5075 44.995 36.765 45.49 36 46 C38.22640661 54.10640357 41.1154186 61.94230566 44.13354492 69.77929688 C44.94253559 71.88812648 45.73590348 74.00244856 46.52929688 76.1171875 C47.04853062 77.47171815 47.56868028 78.82589815 48.08984375 80.1796875 C48.55253662 81.39382324 49.01522949 82.60795898 49.49194336 83.85888672 C50.79291622 87.05217248 50.79291622 87.05217248 53.18188477 89.05126953 C55 91 55 91 55 97 C49.39 97 43.78 97 38 97 C37.19175781 94.54046875 36.38351562 92.0809375 35.55078125 89.546875 C34.75087438 87.12365178 33.94936378 84.70096448 33.14770508 82.27832031 C32.59818104 80.61480937 32.050284 78.95075992 31.50415039 77.28613281 C28.61384529 68.48010701 25.70205803 59.80675697 21.87182617 51.35644531 C21 49 21 49 21 45 C22.258125 44.649375 23.51625 44.29875 24.8125 43.9375 C28.18996357 42.64260672 28.8808317 42.18451866 30.9375 39 C33.78395793 30.22034079 33.99656273 20.17769635 29.921875 11.77734375 C27.44640422 9.1417879 27.44640422 9.1417879 20 9 C20.33 35.4 20.66 61.8 21 89 C22.65 89.66 24.3 90.32 26 91 C26 92.98 26 94.96 26 97 C17.42 97 8.84 97 0 97 C0 94.69 0 92.38 0 90 C2.475 89.505 2.475 89.505 5 89 C6.21830033 80.46346652 6.12728917 71.97134048 6.09765625 63.37109375 C6.09578803 61.76969955 6.09436603 60.16830477 6.09336853 58.56690979 C6.08957519 54.37977482 6.07977257 50.1926753 6.06866455 46.0055542 C6.05838152 41.72180663 6.05385623 37.43805326 6.04882812 33.15429688 C6.03814703 24.7695151 6.02110946 16.38476198 6 8 C3.03 7.505 3.03 7.505 0 7 C0 4.69 0 2.38 0 0 Z " fill="#33A5E5" transform="translate(898,148)"/>
<path d="M0 0 C1.06812172 -0.00855011 1.06812172 -0.00855011 2.15782166 -0.01727295 C3.67184965 -0.02674228 5.18589844 -0.03326457 6.69995117 -0.03710938 C8.99370723 -0.04673386 11.28653577 -0.07770239 13.58007812 -0.109375 C27.75591381 -0.21492229 27.75591381 -0.21492229 33.96484375 3.203125 C39.14464474 9.65671063 39.36894948 16.30752079 38.96484375 24.203125 C37.8530286 33.80132664 34.94787905 40.49710267 27.96484375 47.203125 C34.21373696 71.63795493 34.21373696 71.63795493 46.96484375 91.203125 C46.96484375 93.183125 46.96484375 95.163125 46.96484375 97.203125 C41.68484375 97.203125 36.40484375 97.203125 30.96484375 97.203125 C30.56168945 96.0385376 30.15853516 94.8739502 29.74316406 93.67407227 C28.233757 89.31722988 26.71918854 84.96219612 25.203125 80.60766602 C24.55004193 78.72956819 23.89832407 76.85099501 23.24804688 74.97192383 C22.30835437 72.25733666 21.36362134 69.54454708 20.41796875 66.83203125 C20.13238098 66.00353165 19.84679321 65.17503204 19.55255127 64.32142639 C17.84239136 59.43413482 15.91082306 54.77305418 13.62078857 50.12632751 C12.96484375 48.203125 12.96484375 48.203125 13.96484375 45.203125 C15.07859375 44.749375 16.19234375 44.295625 17.33984375 43.828125 C21.3079184 42.04933292 22.25577483 41.09600422 23.96484375 37.203125 C25.1909319 33.44715075 25.16778489 29.75753987 25.21484375 25.828125 C25.25351562 23.89839844 25.25351562 23.89839844 25.29296875 21.9296875 C24.94481495 17.9756551 23.8860225 15.63091236 21.96484375 12.203125 C21.96484375 11.543125 21.96484375 10.883125 21.96484375 10.203125 C18.66484375 9.873125 15.36484375 9.543125 11.96484375 9.203125 C12.29484375 35.603125 12.62484375 62.003125 12.96484375 89.203125 C14.94484375 89.863125 16.92484375 90.523125 18.96484375 91.203125 C19.00756475 92.86924405 19.00548207 94.53695385 18.96484375 96.203125 C17.2193877 97.94858105 14.80360158 97.3333566 12.43359375 97.3359375 C11.31339844 97.33722656 10.19320312 97.33851563 9.0390625 97.33984375 C7.85957031 97.33597656 6.68007813 97.33210938 5.46484375 97.328125 C3.69560547 97.33392578 3.69560547 97.33392578 1.890625 97.33984375 C0.77042969 97.33855469 -0.34976563 97.33726562 -1.50390625 97.3359375 C-2.53966797 97.33480957 -3.57542969 97.33368164 -4.64257812 97.33251953 C-7.03515625 97.203125 -7.03515625 97.203125 -8.03515625 96.203125 C-8.16015625 93.703125 -8.16015625 93.703125 -8.03515625 91.203125 C-7.54015625 90.708125 -7.54015625 90.708125 -7.03515625 90.203125 C-5.38515625 90.203125 -3.73515625 90.203125 -2.03515625 90.203125 C-2.03515625 63.473125 -2.03515625 36.743125 -2.03515625 9.203125 C-4.01515625 8.213125 -5.99515625 7.223125 -8.03515625 6.203125 C-8.07787725 4.53700595 -8.07579457 2.86929615 -8.03515625 1.203125 C-6.12065865 -0.7113726 -2.60832736 0.01602869 0 0 Z " fill="#34A4E5" transform="translate(672.03515625,147.796875)"/>
<path d="M0 0 C5.82071622 -0.02464638 11.64140234 -0.0428343 17.4621582 -0.05493164 C19.44393441 -0.05997267 21.42570689 -0.06680538 23.4074707 -0.07543945 C26.24952109 -0.08751515 29.09152247 -0.09323045 31.93359375 -0.09765625 C32.82525742 -0.10281754 33.71692108 -0.10797882 34.63560486 -0.11329651 C36.75740601 -0.11349177 38.8791078 -0.0621003 41 0 C42 1 42 1 42.1328125 2.86328125 C42.11127449 9.61544611 41.64658552 16.28012901 41 23 C39.35 22.67 37.7 22.34 36 22 C35.505 16.555 35.505 16.555 35 11 C29.21553546 9.67313977 29.21553546 9.67313977 20 10 C19.67 20.89 19.34 31.78 19 43 C25.435 42.505 25.435 42.505 32 42 C32 39.03 32 36.06 32 33 C34.475 32.505 34.475 32.505 37 32 C37 42.23 37 52.46 37 63 C35.35 62.67 33.7 62.34 32 62 C31.93941406 61.36191406 31.87882813 60.72382813 31.81640625 60.06640625 C31.73261719 59.24011719 31.64882813 58.41382813 31.5625 57.5625 C31.48128906 56.73878906 31.40007813 55.91507813 31.31640625 55.06640625 C31.21069185 53.01337975 31.21069185 53.01337975 30 52 C26.37 51.67 22.74 51.34 19 51 C19 63.21 19 75.42 19 88 C28.0824529 87.51702801 28.0824529 87.51702801 37 86 C37.66 81.71 38.32 77.42 39 73 C40.65 73 42.3 73 44 73 C44.02755664 75.12492345 44.04664147 77.24995705 44.0625 79.375 C44.07410156 80.55835938 44.08570313 81.74171875 44.09765625 82.9609375 C43.98419885 87.65353536 43.4670674 92.32932604 43 97 C29.8 97 16.6 97 3 97 C3 92 3 92 5 89 C5.18389742 86.40192685 5.25238111 83.91288353 5.22705078 81.31567383 C5.22734283 80.5349501 5.22763489 79.75422638 5.22793579 78.94984436 C5.22654224 76.36879367 5.21097993 73.78803152 5.1953125 71.20703125 C5.19158246 69.41770078 5.18873544 67.62836827 5.18673706 65.83903503 C5.1790999 61.12898115 5.15945069 56.41905057 5.1373291 51.70904541 C5.11687247 46.90305245 5.10773573 42.09703957 5.09765625 37.29101562 C5.07620489 27.8606229 5.04206792 18.4303217 5 9 C2.525 8.01 2.525 8.01 0 7 C0 4.69 0 2.38 0 0 Z " fill="#34A5E5" transform="translate(850,148)"/>
<path d="M0 0 C1.5234375 1.16796875 1.5234375 1.16796875 3.5234375 4.16796875 C3.53210499 7.0311292 3.43307114 9.76072502 3.2109375 12.60546875 C3.16259766 13.36923828 3.11425781 14.13300781 3.06445312 14.91992188 C2.82100081 18.46076637 2.45735891 21.7336872 1.5234375 25.16796875 C-0.1265625 24.83796875 -1.7765625 24.50796875 -3.4765625 24.16796875 C-3.49074219 23.35972656 -3.50492188 22.55148438 -3.51953125 21.71875 C-3.77935037 14.94389266 -3.77935037 14.94389266 -6.6015625 8.91796875 C-10.23526962 6.70614703 -12.28850924 6.55879737 -16.4765625 7.16796875 C-19.40866659 8.59439777 -20.27132503 9.75749381 -21.7265625 12.66796875 C-23.03145832 18.75748257 -23.18337522 24.57632209 -21.5390625 30.60546875 C-18.00751524 34.99314868 -13.06085668 36.29888019 -7.83984375 38.0546875 C-2.70780696 39.87276331 0.76932008 41.42987362 3.62890625 46.19921875 C9.25820881 58.5886008 6.81632002 72.76630813 2.5234375 85.16796875 C-0.82640508 91.56654447 -5.58915517 95.87216631 -12.4765625 98.16796875 C-18.6822777 98.59594911 -23.80097054 97.78147158 -29.4765625 95.16796875 C-30.559375 94.73484375 -31.6421875 94.30171875 -32.7578125 93.85546875 C-35.4765625 91.16796875 -35.4765625 91.16796875 -35.86083984 88.50097656 C-35.84270983 85.11429087 -35.63684563 81.79256792 -35.3515625 78.41796875 C-35.27679687 77.24363281 -35.20203125 76.06929688 -35.125 74.859375 C-34.93637052 71.95919677 -34.71927482 69.06404002 -34.4765625 66.16796875 C-32.8265625 66.16796875 -31.1765625 66.16796875 -29.4765625 66.16796875 C-29.37859375 67.19277344 -29.280625 68.21757812 -29.1796875 69.2734375 C-29.02953299 70.63421277 -28.87844163 71.99488489 -28.7265625 73.35546875 C-28.63375 74.36577148 -28.63375 74.36577148 -28.5390625 75.39648438 C-27.98575502 80.12265245 -26.77924972 82.76385544 -23.4765625 86.16796875 C-20.8507479 88.15996603 -19.39121114 88.17107244 -16.0390625 88.29296875 C-11.57164008 86.88220377 -10.57646816 85.2175487 -8.41015625 81.21875 C-5.78960521 75.46230943 -6.05826669 69.63591402 -7.1015625 63.48046875 C-8.7919797 59.40810004 -10.59178905 57.92724693 -14.4765625 56.16796875 C-17.78756954 54.92994003 -21.10065486 53.73077235 -24.453125 52.609375 C-29.18172155 50.35504409 -30.96634515 47.24509428 -33.1640625 42.60546875 C-36.79978466 31.93802023 -36.46515938 18.89497879 -31.6015625 8.66796875 C-28.77787831 3.75496513 -26.20489296 -0.24941404 -20.66015625 -2.32421875 C-13.40338971 -4.01183888 -6.54010338 -3.60119616 0 0 Z " fill="#35A5E4" transform="translate(992.4765625,149.83203125)"/>
<path d="M0 0 C1.134375 0.020625 2.26875 0.04125 3.4375 0.0625 C3.69836899 1.13325272 3.95923798 2.20400543 4.22801208 3.3072052 C6.68397861 13.38715399 9.14127051 23.46677886 11.59986782 33.54608631 C12.86387896 38.72823382 14.12741924 43.9104952 15.38989258 49.09301758 C16.60775937 54.09235295 17.82685106 59.09138816 19.04680061 64.09021568 C19.51253156 65.99952188 19.97781746 67.9089367 20.44265556 69.81846046 C21.09268042 72.4883915 21.74427186 75.15793557 22.39624023 77.82739258 C22.58901047 78.62077026 22.7817807 79.41414795 22.98039246 80.23156738 C24.08672391 86.39285412 24.08672391 86.39285412 28 90.75 C28.804375 91.183125 29.60875 91.61625 30.4375 92.0625 C30.1075 93.7125 29.7775 95.3625 29.4375 97.0625 C21.1875 97.0625 12.9375 97.0625 4.4375 97.0625 C4.4375 94.7525 4.4375 92.4425 4.4375 90.0625 C6.0875 90.0625 7.7375 90.0625 9.4375 90.0625 C8.96009783 87.31218307 8.48064736 84.56225 8 81.8125 C7.86529297 81.03519531 7.73058594 80.25789063 7.59179688 79.45703125 C7.45966797 78.70292969 7.32753906 77.94882813 7.19140625 77.171875 C7.01073608 76.13498535 7.01073608 76.13498535 6.82641602 75.07714844 C6.43640068 73.05680535 5.93655193 71.05870774 5.4375 69.0625 C-0.8325 68.7325 -7.1025 68.4025 -13.5625 68.0625 C-14.27228646 75.05896653 -14.93662615 82.05803942 -15.5625 89.0625 C-13.9125 89.7225 -12.2625 90.3825 -10.5625 91.0625 C-10.5625 93.0425 -10.5625 95.0225 -10.5625 97.0625 C-16.8325 97.0625 -23.1025 97.0625 -29.5625 97.0625 C-29.5625 94.7525 -29.5625 92.4425 -29.5625 90.0625 C-27.0875 89.5675 -27.0875 89.5675 -24.5625 89.0625 C-24.19646919 87.40988914 -24.19646919 87.40988914 -23.82304382 85.72389221 C-20.43014683 70.42079868 -16.96251831 55.13514346 -13.47973633 39.85229492 C-12.73593452 36.58743292 -11.99420889 33.32210899 -11.25415039 30.05639648 C-10.35149088 26.07326976 -9.44530817 22.09096053 -8.53653526 18.10922432 C-8.19279022 16.60036114 -7.85030598 15.09121017 -7.50910378 13.58176994 C-7.0365644 11.49244278 -6.5595098 9.40419727 -6.08129883 7.31616211 C-5.81134598 6.12913193 -5.54139313 4.94210175 -5.26325989 3.71910095 C-4.30214223 0.07547618 -4.30214223 0.07547618 0 0 Z M-4.5625 29.0625 C-5.56967113 33.31083355 -6.56699375 37.56141924 -7.5625 41.8125 C-7.84867188 43.0190625 -8.13484375 44.225625 -8.4296875 45.46875 C-8.70039062 46.62890625 -8.97109375 47.7890625 -9.25 48.984375 C-9.50136719 50.05268555 -9.75273438 51.12099609 -10.01171875 52.22167969 C-10.68939113 55.23469245 -10.68939113 55.23469245 -10.5625 59.0625 C-5.9425 59.0625 -1.3225 59.0625 3.4375 59.0625 C2.29905615 52.32670723 0.95715377 45.65870555 -0.5625 39 C-0.7284668 38.24984619 -0.89443359 37.49969238 -1.06542969 36.72680664 C-1.99667053 32.47640626 -1.99667053 32.47640626 -4.5625 29.0625 Z " fill="#35A5E5" transform="translate(750.5625,147.9375)"/>
<path d="M0 0 C0.88602402 0.00222061 1.77204803 0.00444122 2.68492126 0.00672913 C3.68588333 0.00680466 4.6868454 0.00688019 5.71813965 0.00695801 C6.80666733 0.01211929 7.89519501 0.01728058 9.01670837 0.02259827 C10.67928932 0.02472069 10.67928932 0.02472069 12.37545776 0.02688599 C15.93168281 0.03250418 19.48784596 0.04505977 23.04405212 0.05775452 C25.44834809 0.06276717 27.85264504 0.06733048 30.25694275 0.07142639 C36.16516716 0.08247952 42.07335522 0.09923535 47.98155212 0.12025452 C48.99200007 3.15159836 49.03188161 4.86421394 48.86045837 8.00697327 C48.81211853 8.94476624 48.76377869 9.8825592 48.713974 10.84877014 C48.65789978 11.82523499 48.60182556 12.80169983 48.54405212 13.80775452 C48.49184509 14.79582092 48.43963806 15.78388733 48.385849 16.80189514 C48.25619906 19.24167127 48.12123471 21.68103557 47.98155212 24.12025452 C46.66155212 24.12025452 45.34155212 24.12025452 43.98155212 24.12025452 C42.03904345 20.23523716 42.32805656 15.37730897 41.98155212 11.12025452 C37.69155212 10.79025452 33.40155212 10.46025452 28.98155212 10.12025452 C29.31155212 36.52025452 29.64155212 62.92025452 29.98155212 90.12025452 C31.63155212 90.12025452 33.28155212 90.12025452 34.98155212 90.12025452 C35.98155212 91.12025452 35.98155212 91.12025452 35.98155212 97.12025452 C27.40155212 97.12025452 18.82155212 97.12025452 9.98155212 97.12025452 C9.98155212 94.81025452 9.98155212 92.50025452 9.98155212 90.12025452 C12.45655212 89.62525452 12.45655212 89.62525452 14.98155212 89.12025452 C16.16472124 85.37689376 16.15431123 81.66785582 16.18687439 77.78138733 C16.19677399 77.04928543 16.20667358 76.31718353 16.21687317 75.56289673 C16.24839032 73.14975691 16.27320677 70.73659742 16.29795837 68.32337952 C16.31853636 66.6475728 16.33953305 64.97177117 16.3609314 63.29597473 C16.41606486 58.89017364 16.46551255 54.48432639 16.51377869 50.07844543 C16.56405749 45.58062136 16.61971023 41.08286414 16.6749115 36.58509827 C16.78238635 27.76353873 16.88335818 18.94192225 16.98155212 10.12025452 C12.36155212 10.45025452 7.74155212 10.78025452 2.98155212 11.12025452 C3.00217712 12.52275452 3.02280212 13.92525452 3.04405212 15.37025452 C3.08984978 18.48449541 2.85389333 21.12544534 1.98155212 24.12025452 C0.66155212 24.12025452 -0.65844788 24.12025452 -2.01844788 24.12025452 C-2.21431698 20.30813549 -2.39874353 16.49554917 -2.58094788 12.68275452 C-2.63702209 11.59414124 -2.69309631 10.50552795 -2.75086975 9.38392639 C-2.79920959 8.34945374 -2.84754944 7.31498108 -2.89735413 6.24916077 C-2.94448547 5.29082336 -2.99161682 4.33248596 -3.04017639 3.34510803 C-3.01200756 0.46080942 -2.87200361 0.17110742 0 0 Z " fill="#32A6E8" transform="translate(613.0184478759766,147.87974548339844)"/>
<path d="M0 0 C1.12873535 0.14912842 1.12873535 0.14912842 2.28027344 0.30126953 C1.56753672 15.68655177 -0.13003702 30.98760918 -1.71972656 46.30126953 C-2.70972656 46.63126953 -3.69972656 46.96126953 -4.71972656 47.30126953 C-5.70972656 45.65126953 -6.69972656 44.00126953 -7.71972656 42.30126953 C-7.95046875 42.88392578 -8.18121094 43.46658203 -8.41894531 44.06689453 C-13.33842637 56.43365323 -18.43632921 68.56274084 -24.71972656 80.30126953 C-25.10773438 81.02797852 -25.49574219 81.7546875 -25.89550781 82.50341797 C-30.51468931 91.10022797 -35.37081383 99.40273789 -40.80175781 107.50976562 C-43.49921656 111.65526927 -45.10922151 115.59945433 -46.18457031 120.41064453 C-46.71972656 122.30126953 -46.71972656 122.30126953 -48.71972656 124.30126953 C-51.92892379 124.21898242 -53.28894095 123.74690982 -55.53222656 121.42626953 C-57.68662927 115.75678872 -57.60839881 109.81917422 -55.59472656 104.11376953 C-54.97597656 103.51564453 -54.35722656 102.91751953 -53.71972656 102.30126953 C-52.75905273 102.35839111 -51.79837891 102.4155127 -50.80859375 102.47436523 C-47.63837889 102.65052031 -47.63837889 102.65052031 -45.91210938 100.3996582 C-45.4206543 99.51511963 -44.92919922 98.63058105 -44.42285156 97.71923828 C-43.86178711 96.73439453 -43.30072266 95.74955078 -42.72265625 94.73486328 C-41.85495605 93.12804687 -41.85495605 93.12804687 -40.96972656 91.48876953 C-40.35774414 90.39306641 -39.74576172 89.29736328 -39.11523438 88.16845703 C-37.29438789 84.89112413 -35.50605979 81.59750398 -33.71972656 78.30126953 C-32.79415685 76.64026893 -31.86723016 74.9800232 -30.93847656 73.32080078 C-26.10914577 64.56314072 -21.94763156 55.56483369 -18.03222656 46.36376953 C-17.58524414 45.32607422 -17.13826172 44.28837891 -16.67773438 43.21923828 C-16.27522461 42.24728516 -15.87271484 41.27533203 -15.45800781 40.27392578 C-15.09747314 39.41033447 -14.73693848 38.54674316 -14.36547852 37.65698242 C-13.64359422 35.02353759 -13.62677636 33.79182855 -14.71972656 31.30126953 C-15.70972656 30.64126953 -16.69972656 29.98126953 -17.71972656 29.30126953 C-16.89077418 22.29649277 -13.57972476 17.36011272 -9.96972656 11.42626953 C-9.34839844 10.35634766 -8.72707031 9.28642578 -8.08691406 8.18408203 C-7.47589844 7.17345703 -6.86488281 6.16283203 -6.23535156 5.12158203 C-5.68137695 4.19619629 -5.12740234 3.27081055 -4.55664062 2.31738281 C-2.71972656 0.30126953 -2.71972656 0.30126953 0 0 Z " fill="#1FA9E7" transform="translate(150.7197265625,-0.30126953125)"/>
<path d="M0 0 C0.99 0 1.98 0 3 0 C4.86491766 3.83953637 5.30994017 5.9233252 4 10 C2.39179559 12.19117851 0.80103892 14.170481 -1 16.1875 C-1.49910889 16.75919922 -1.99821777 17.33089844 -2.51245117 17.91992188 C-3.52795791 19.07976049 -4.54770655 20.23589953 -5.57177734 21.38818359 C-6.80845173 22.78382877 -8.0252592 24.19703038 -9.23828125 25.61328125 C-13.62297843 30.65857311 -18.31279974 35.30987544 -23.1875 39.875 C-23.76991455 40.42285156 -24.3523291 40.97070312 -24.95239258 41.53515625 C-27.65769929 44.02987483 -30.2197252 46.14295063 -33.3203125 48.16015625 C-36.83293593 50.57188458 -37.50455346 53.08335431 -39 57 C-40.6875 58.9375 -40.6875 58.9375 -42 60 C-46.64341322 58.53365898 -46.64341322 58.53365898 -48.140625 56.29296875 C-49.8549924 51.71872484 -49.56267569 46.79582889 -49 42 C-47 38.75 -47 38.75 -45 37 C-44.236875 37.165 -43.47375 37.33 -42.6875 37.5 C-39.96403764 38.09145396 -39.96403764 38.09145396 -37 38 C-34.69181896 36.24525991 -34.69181896 36.24525991 -32.3125 33.9375 C-29.32155769 31.15342401 -26.33161352 28.42144526 -23.1875 25.8125 C-15.53768523 19.14422969 -8.26726795 11.38890581 -2.375 3.125 C-1.59125 2.09375 -0.8075 1.0625 0 0 Z " fill="#E03A41" transform="translate(52,171)"/>
<path d="M0 0 C3 1 3 1 4.625 3.875 C5.28252275 6.62210777 5.0837784 7.81345745 3.9140625 10.41796875 C2.0549447 13.37248224 0.06067688 16.18219401 -2 19 C-2.78507986 20.11932505 -3.56756391 21.24047454 -4.34765625 22.36328125 C-7.69129151 27.1430594 -11.07344428 31.87699812 -14.72265625 36.4296875 C-19.20092457 42.0252801 -23.01741629 47.15820675 -25.28125 54.07421875 C-26 56 -26 56 -28 58 C-30.4375 58.4375 -30.4375 58.4375 -33 58 C-35.82637079 54.29880016 -36.38815075 51.54055693 -36.3125 46.9375 C-36.30863281 45.91527344 -36.30476563 44.89304688 -36.30078125 43.83984375 C-36.00287377 41.0271329 -35.57549152 39.33325387 -34 37 C-31.625 36.3125 -31.625 36.3125 -29 36 C-24.11314304 35.17967001 -22.31206781 31.95949312 -19.5625 28.125 C-19.05041992 27.42697266 -18.53833984 26.72894531 -18.01074219 26.00976562 C-11.80485876 17.4827693 -5.88769995 8.74842272 0 0 Z " fill="#EAC238" transform="translate(91,117)"/>
<path d="M0 0 C1.32 0.33 2.64 0.66 4 1 C3.80921875 1.58265625 3.6184375 2.1653125 3.421875 2.765625 C2.72239472 6.47027984 4.58341834 9.62951261 6 13 C9.33276158 20.9296741 9.33276158 20.9296741 8 25 C6.8452141 21.96165799 5.70280979 18.91880147 4.5625 15.875 C4.23701172 15.0190625 3.91152344 14.163125 3.57617188 13.28125 C1.92672186 8.86004378 0.54932623 4.71956339 0 0 Z " fill="#5590B0" transform="translate(919,193)"/>
<path d="M0 0 C1.65 0 3.3 0 5 0 C4.67 5.28 4.34 10.56 4 16 C3.67 16 3.34 16 3 16 C2.67 11.71 2.34 7.42 2 3 C1.01 3.33 0.02 3.66 -1 4 C-1 4.99 -1 5.98 -1 7 C-1.66 7 -2.32 7 -3 7 C-1.125 2.25 -1.125 2.25 0 0 Z " fill="#52A9CF" transform="translate(148,0)"/>
<path d="M0 0 C0.99 0 1.98 0 3 0 C3 0.99 3 1.98 3 3 C1.25 4.38671875 1.25 4.38671875 -1 5.6875 C-1.7425 6.12449219 -2.485 6.56148437 -3.25 7.01171875 C-3.8275 7.33785156 -4.405 7.66398438 -5 8 C-3.56647994 5.07143541 -2.18515618 2.44737492 0 0 Z " fill="#BE5F64" transform="translate(52,171)"/>
<path d="M0 0 C0.66 0.33 1.32 0.66 2 1 C0.54782324 2.50596108 -0.91192861 4.00462104 -2.375 5.5 C-3.18710937 6.3353125 -3.99921875 7.170625 -4.8359375 8.03125 C-7 10 -7 10 -9 10 C-7.61811547 6.78956118 -6.07578097 4.95063635 -3.375 2.75 C-2.74335937 2.22921875 -2.11171875 1.7084375 -1.4609375 1.171875 C-0.73777344 0.59179688 -0.73777344 0.59179688 0 0 Z " fill="#4D4C4C" transform="translate(526,2)"/>
<path d="M0 0 C0.99 0.495 0.99 0.495 2 1 C1.01 1.495 1.01 1.495 0 2 C0 1.34 0 0.68 0 0 Z " fill="#CEDDEE" transform="translate(48,169)"/>
<path d="M0 0 C2 1 2 1 2 1 Z " fill="#FFFFFF" transform="translate(53,155)"/>
</svg>
