<?xml version="1.0" encoding="UTF-8"?>
<svg version="1.1" xmlns="http://www.w3.org/2000/svg" width="250" height="60">
<path d="M0 0 C3.41598333 -0.65998744 6.90288322 -0.46296219 10.375 -0.4375 C11.81359375 -0.4674707 11.81359375 -0.4674707 13.28125 -0.49804688 C20.15279483 -0.49326168 20.15279483 -0.49326168 23.63671875 1.53515625 C25.5310126 4.96008296 25.54583348 8.06585497 25.4375 11.875 C25.44458984 12.56980469 25.45167969 13.26460937 25.45898438 13.98046875 C25.40041716 18.76495974 24.26954695 21.85360124 22 26 C20.8710357 29.89430165 21.098478 32.27493227 22.3984375 36.08984375 C22.71296875 37.03923828 23.0275 37.98863281 23.3515625 38.96679688 C23.68929687 39.94712891 24.02703125 40.92746094 24.375 41.9375 C28.38415835 53.80053691 28.38415835 53.80053691 29 59 C26.36 59 23.72 59 21 59 C19.85574369 54.92624972 18.71655433 50.85112696 17.58203125 46.7746582 C17.19539995 45.38820225 16.80738875 44.00213034 16.41796875 42.61645508 C15.85833995 40.6242051 15.30369449 38.630625 14.75 36.63671875 C14.41484375 35.43748779 14.0796875 34.23825684 13.734375 33.00268555 C13 30 13 30 13 27 C13.99 26.67 14.98 26.34 16 26 C17.8781431 22.45030954 18.27214113 19.41736833 18.25 15.4375 C18.25515625 14.50808594 18.2603125 13.57867187 18.265625 12.62109375 C17.99438101 9.9445538 17.36116595 8.29561718 16 6 C15.01 6 14.02 6 13 6 C13 22.17 13 38.34 13 55 C13.99 55 14.98 55 16 55 C16 56.32 16 57.64 16 59 C11.71 59 7.42 59 3 59 C3 57.68 3 56.36 3 55 C3.66 54.67 4.32 54.34 5 54 C5 37.83 5 21.66 5 5 C4.01 4.67 3.02 4.34 2 4 C2 6.64 2 9.28 2 12 C1.01 12 0.02 12 -1 12 C-1.33 13.65 -1.66 15.3 -2 17 C-1.34878174 17.31372559 -0.69756348 17.62745117 -0.02661133 17.95068359 C2.59710198 20.60379159 2.46519153 22.63490573 2.47883606 26.26040649 C2.46132797 27.09486298 2.44381989 27.92931946 2.42578125 28.7890625 C2.42249313 29.64809174 2.41920502 30.50712097 2.41581726 31.3921814 C2.40539854 33.20619288 2.38545209 35.02017101 2.35668945 36.83398438 C2.31255892 39.62127834 2.29524831 42.40771224 2.28320312 45.1953125 C2.26978177 46.95574169 2.25485955 48.71616021 2.23828125 50.4765625 C2.23089432 51.31506744 2.22350739 52.15357239 2.21589661 53.01748657 C2.11827807 58.88172193 2.11827807 58.88172193 1 60 C-1.73894085 60.08858646 -4.4525327 60.11523479 -7.19140625 60.09765625 C-8.01124496 60.0962413 -8.83108368 60.09482635 -9.67576599 60.09336853 C-12.30471382 60.08775289 -14.93357773 60.07519779 -17.5625 60.0625 C-19.34049357 60.05748701 -21.11848846 60.05292376 -22.89648438 60.04882812 C-27.26435545 60.03777839 -31.63216348 60.02050331 -36 60 C-36 56.7 -36 53.4 -36 50 C-34.9790625 49.7525 -34.9790625 49.7525 -33.9375 49.5 C-28.33300907 46.63813229 -24.75217025 41.53845831 -22 36 C-19.82504896 33.71351301 -17.60355947 31.53889238 -15.25 29.4375 C-13.8531491 28.070845 -13.8531491 28.070845 -13.625 26.125 C-13 24 -13 24 -10.75 21.9375 C-6.2989253 17.78402622 -3.629747 11.24415123 -2.484375 5.34375 C-2 3 -2 3 0 0 Z M-5 21 C-5.66 22.32 -6.32 23.64 -7 25 C-6.01 25 -5.02 25 -4 25 C-4.33 23.68 -4.66 22.36 -5 21 Z M-9 27 C-9 27.99 -9 28.98 -9 30 C-9.99 30 -10.98 30 -12 30 C-12.33 30.99 -12.66 31.98 -13 33 C-11.35 33 -9.7 33 -8 33 C-8 31.02 -8 29.04 -8 27 C-8.33 27 -8.66 27 -9 27 Z M-15 35 C-15.99 36.485 -15.99 36.485 -17 38 C-16.01 38 -15.02 38 -14 38 C-14.33 37.01 -14.66 36.02 -15 35 Z M-19 40 C-19.66 41.32 -20.32 42.64 -21 44 C-20.01 44 -19.02 44 -18 44 C-18.33 42.68 -18.66 41.36 -19 40 Z M-23 45 C-24.0260734 46.31337396 -25.02727325 47.64664105 -26 49 C-24.68 49.33 -23.36 49.66 -22 50 C-22 48.35 -22 46.7 -22 45 C-22.33 45 -22.66 45 -23 45 Z M-28 50 C-28.99 51.485 -28.99 51.485 -30 53 C-29.01 53.33 -28.02 53.66 -27 54 C-27.33 52.68 -27.66 51.36 -28 50 Z M-32 54 C-31 56 -31 56 -31 56 Z " fill="#36BC5C" transform="translate(36,0)"/>
<path d="M0 0 C6.02102024 0.07318367 6.02102024 0.07318367 8.62109375 1.73828125 C13.92491902 8.08083788 13.16210624 15.70782843 12.6875 23.5 C11.8328126 27.90803345 10.39114075 30.81352122 7.125 34 C4.6875 35.5 4.6875 35.5 2.6875 35.5 C2.86925781 36.15597168 3.05101562 36.81194336 3.23828125 37.48779297 C4.05732427 40.44947352 4.87245898 43.41221575 5.6875 46.375 C5.97367188 47.40753906 6.25984375 48.44007812 6.5546875 49.50390625 C6.82539063 50.49003906 7.09609375 51.47617187 7.375 52.4921875 C7.62636719 53.40339355 7.87773437 54.31459961 8.13671875 55.25341797 C8.6875 57.5 8.6875 57.5 8.6875 59.5 C6.3775 59.5 4.0675 59.5 1.6875 59.5 C1.6875 58.84 1.6875 58.18 1.6875 57.5 C2.3475 57.5 3.0075 57.5 3.6875 57.5 C3.3575 55.85 3.0275 54.2 2.6875 52.5 C0.7075 52.995 0.7075 52.995 -1.3125 53.5 C-1.3125 55.48 -1.3125 57.46 -1.3125 59.5 C-4.6125 59.5 -7.9125 59.5 -11.3125 59.5 C-12.7975 55.045 -12.7975 55.045 -14.3125 50.5 C-14.6425 52.81 -14.9725 55.12 -15.3125 57.5 C-14.6525 57.5 -13.9925 57.5 -13.3125 57.5 C-13.3125 58.16 -13.3125 58.82 -13.3125 59.5 C-15.6225 59.5 -17.9325 59.5 -20.3125 59.5 C-20.3125 53.89 -20.3125 48.28 -20.3125 42.5 C-20.9725 42.5 -21.6325 42.5 -22.3125 42.5 C-22.3125 41.18 -22.3125 39.86 -22.3125 38.5 C-23.3025 38.5 -24.2925 38.5 -25.3125 38.5 C-25.3125 44.77 -25.3125 51.04 -25.3125 57.5 C-24.6525 57.5 -23.9925 57.5 -23.3125 57.5 C-23.3125 58.16 -23.3125 58.82 -23.3125 59.5 C-25.9525 59.5 -28.5925 59.5 -31.3125 59.5 C-31.3125 58.84 -31.3125 58.18 -31.3125 57.5 C-30.6525 57.5 -29.9925 57.5 -29.3125 57.5 C-29.3125 51.23 -29.3125 44.96 -29.3125 38.5 C-31.64325929 39.45865509 -31.64325929 39.45865509 -33.3125 42.5 C-34.3125 41.5 -34.3125 41.5 -34.375 38.4375 C-34.354375 37.468125 -34.33375 36.49875 -34.3125 35.5 C-30.54173111 35.44200876 -26.77107666 35.40640694 -23 35.375 C-21.92814453 35.35824219 -20.85628906 35.34148438 -19.75195312 35.32421875 C-18.72392578 35.31777344 -17.69589844 35.31132813 -16.63671875 35.3046875 C-15.68885498 35.29421387 -14.74099121 35.28374023 -13.7644043 35.27294922 C-11.3125 35.5 -11.3125 35.5 -8.3125 37.5 C-8.04223613 41.0134303 -8.21885349 44.05049677 -8.9375 47.5 C-9.40680136 51.25441088 -8.51927534 53.95066077 -7.3125 57.5 C-6.6525 57.5 -5.9925 57.5 -5.3125 57.5 C-5.03535156 56.24703125 -4.75820312 54.9940625 -4.47265625 53.703125 C-4.10679904 52.05207708 -3.74091207 50.40103576 -3.375 48.75 C-3.19259766 47.925 -3.01019531 47.1 -2.82226562 46.25 C-2.64501953 45.45078125 -2.46777344 44.6515625 -2.28515625 43.828125 C-2.12281494 43.0949707 -1.96047363 42.36181641 -1.79321289 41.60644531 C-1.32696454 39.56338247 -0.82829351 37.53106238 -0.3125 35.5 C-1.199375 35.45875 -2.08625 35.4175 -3 35.375 C-7.4235333 34.20651951 -8.76256856 32.21561438 -11.3125 28.5 C-13.45284031 22.33636177 -13.42407579 14.04018449 -11.48828125 7.875 C-8.49001457 1.81159079 -6.66339966 0.18111166 0 0 Z M-4.0625 4.8125 C-6.80893337 8.52018506 -6.50970035 12.36412959 -6.5625 16.8125 C-6.58828125 18.10800781 -6.6140625 19.40351563 -6.640625 20.73828125 C-6.29196337 24.73543781 -5.41982743 27.11304242 -3.3125 30.5 C-1.26156855 31.90466953 -1.26156855 31.90466953 0.6875 32.5 C4.60353304 29.70579508 4.60353304 29.70579508 6.6875 25.5 C6.83453064 23.06551182 6.90855339 20.6262523 6.9375 18.1875 C6.96328125 16.89199219 6.9890625 15.59648437 7.015625 14.26171875 C6.65628194 10.14210719 5.7023456 6.5148456 2.6875 3.5 C-0.17514617 3.19866882 -1.7172729 3.05357968 -4.0625 4.8125 Z M-15.3125 38.5 C-15.3125 41.14 -15.3125 43.78 -15.3125 46.5 C-14.3225 46.17 -13.3325 45.84 -12.3125 45.5 C-12.3125 43.52 -12.3125 41.54 -12.3125 39.5 C-13.3025 39.17 -14.2925 38.84 -15.3125 38.5 Z M-0.3125 45.5 C-0.3125 46.82 -0.3125 48.14 -0.3125 49.5 C0.3475 49.5 1.0075 49.5 1.6875 49.5 C1.0275 48.18 0.3675 46.86 -0.3125 45.5 Z " fill="#3CA0D9" transform="translate(186.3125,-0.49999999999999994)"/>
<path d="M0 0 C4.29 0 8.58 0 13 0 C13 1.32 13 2.64 13 4 C12.01 4.495 12.01 4.495 11 5 C10.67 11.6 10.34 18.2 10 25 C13.63 25 17.26 25 21 25 C21 18.07 21 11.14 21 4 C20.01 4 19.02 4 18 4 C18 2.68 18 1.36 18 0 C22.29 0 26.58 0 31 0 C31 1.32 31 2.64 31 4 C30.01 4.495 30.01 4.495 29 5 C29 21.17 29 37.34 29 54 C29.66 54.33 30.32 54.66 31 55 C31 56.32 31 57.64 31 59 C26.71 59 22.42 59 18 59 C18 57.68 18 56.36 18 55 C18.99 54.505 18.99 54.505 20 54 C20.33 46.41 20.66 38.82 21 31 C17.37 31 13.74 31 10 31 C10.33 38.59 10.66 46.18 11 54 C11.66 54.33 12.32 54.66 13 55 C13 56.32 13 57.64 13 59 C8.71 59 4.42 59 0 59 C1 55 1 55 3 53 C3.29206811 50.81710685 3.29206811 50.81710685 3.22705078 48.27490234 C3.22689972 47.29403656 3.22674866 46.31317078 3.22659302 45.30258179 C3.21627045 44.24108917 3.20594788 43.17959656 3.1953125 42.0859375 C3.19106766 40.45877304 3.19106766 40.45877304 3.18673706 38.79873657 C3.17551578 35.32404687 3.15040762 31.84961218 3.125 28.375 C3.11497272 26.02344121 3.10584643 23.6718784 3.09765625 21.3203125 C3.07557011 15.54678756 3.04207345 9.77341199 3 4 C2.01 3.67 1.02 3.34 0 3 C0 2.01 0 1.02 0 0 Z " fill="#373636" transform="translate(89,0)"/>
<path d="M0 0 C2.91765891 -0.10806144 5.83131125 -0.18732877 8.75 -0.25 C9.9875 -0.30027344 9.9875 -0.30027344 11.25 -0.3515625 C14.9737057 -0.41162227 17.30730197 -0.41370939 20.55078125 1.5234375 C22.55263553 4.94439602 22.54696173 8.0261845 22.4375 11.875 C22.44458984 12.56980469 22.45167969 13.26460937 22.45898438 13.98046875 C22.40041716 18.76495974 21.26954695 21.85360124 19 26 C17.8710357 29.89430165 18.098478 32.27493227 19.3984375 36.08984375 C19.71296875 37.03923828 20.0275 37.98863281 20.3515625 38.96679688 C20.68929687 39.94712891 21.02703125 40.92746094 21.375 41.9375 C25.38415835 53.80053691 25.38415835 53.80053691 26 59 C23.36 59 20.72 59 18 59 C16.85574369 54.92624972 15.71655433 50.85112696 14.58203125 46.7746582 C14.19539995 45.38820225 13.80738875 44.00213034 13.41796875 42.61645508 C12.85833995 40.6242051 12.30369449 38.630625 11.75 36.63671875 C11.41484375 35.43748779 11.0796875 34.23825684 10.734375 33.00268555 C10 30 10 30 10 27 C10.99 26.67 11.98 26.34 13 26 C14.8781431 22.45030954 15.27214113 19.41736833 15.25 15.4375 C15.25515625 14.50808594 15.2603125 13.57867187 15.265625 12.62109375 C14.99438101 9.9445538 14.36116595 8.29561718 13 6 C12.01 6 11.02 6 10 6 C10 22.17 10 38.34 10 55 C10.99 55 11.98 55 13 55 C13 56.32 13 57.64 13 59 C8.71 59 4.42 59 0 59 C0 57.68 0 56.36 0 55 C0.99 54.505 0.99 54.505 2 54 C2 37.83 2 21.66 2 5 C1.34 4.67 0.68 4.34 0 4 C0 2.68 0 1.36 0 0 Z " fill="#353434" transform="translate(39,0)"/>
<path d="M0 0 C2.88671875 0.46484375 2.88671875 0.46484375 5.94921875 2.83984375 C13.93790726 15.55047082 12.52733165 32.35894759 9.88671875 46.46484375 C8.58339606 51.41507856 6.97837701 55.15485384 3.69921875 59.08984375 C-0.30063167 61.04532618 -3.74949537 61.37727171 -8.11328125 60.46484375 C-14.21218557 55.95695795 -16.47363853 49.65656269 -17.765625 42.42578125 C-19.34587679 28.96700758 -19.32708725 13.04602881 -10.8515625 1.7890625 C-7.61459856 -0.67684936 -3.91189428 -0.11797027 0 0 Z M-6.11328125 5.46484375 C-6.75265625 6.51671875 -7.39203125 7.56859375 -8.05078125 8.65234375 C-8.41042969 9.24402344 -8.77007812 9.83570313 -9.140625 10.4453125 C-14.3208077 21.20095289 -12.18620925 39.18283674 -9.0625 50.35546875 C-8.03579492 52.63703559 -7.08694389 53.93363949 -5.11328125 55.46484375 C-2.5513828 55.61958987 -2.5513828 55.61958987 -0.11328125 54.46484375 C6.46375897 47.15702128 5.48490225 33.77858458 5.04785156 24.5078125 C4.3446346 14.98786614 4.3446346 14.98786614 0.44921875 6.58984375 C-1.75121201 5.0055336 -3.47466389 5.2509018 -6.11328125 5.46484375 Z " fill="#363535" transform="translate(140.11328125,-0.46484375)"/>
<path d="M0 0 C6.93 0 13.86 0 21 0 C20.67 4.62 20.34 9.24 20 14 C19.34 13.67 18.68 13.34 18 13 C18 10.69 18 8.38 18 6 C15.36 6 12.72 6 10 6 C10 12.6 10 19.2 10 26 C11.65 25.67 13.3 25.34 15 25 C15.33 23.02 15.66 21.04 16 19 C16.99 19.33 17.98 19.66 19 20 C19 25.61 19 31.22 19 37 C17.515 37.495 17.515 37.495 16 38 C15.67 36.02 15.34 34.04 15 32 C13.35 31.67 11.7 31.34 10 31 C10 38.26 10 45.52 10 53 C12.64 52.67 15.28 52.34 18 52 C18.33 49.36 18.66 46.72 19 44 C19.99 44 20.98 44 22 44 C21.67 48.95 21.34 53.9 21 59 C14.73 59 8.46 59 2 59 C2.33 40.85 2.66 22.7 3 4 C2.01 4 1.02 4 0 4 C0 2.68 0 1.36 0 0 Z " fill="#3A3939" transform="translate(66,0)"/>
<path d="M0 0 C3.63 0 7.26 0 11 0 C11 1.98 11 3.96 11 6 C10.34 6 9.68 6 9 6 C9 5.01 9 4.02 9 3 C8.01 3 7.02 3 6 3 C6 5.31 6 7.62 6 10 C6.66 10 7.32 10 8 10 C8 9.34 8 8.68 8 8 C8.66 8 9.32 8 10 8 C10 10.64 10 13.28 10 16 C9.34 16 8.68 16 8 16 C8 15.01 8 14.02 8 13 C7.34 13 6.68 13 6 13 C6 15.64 6 18.28 6 21 C7.32 21 8.64 21 10 21 C10 20.01 10 19.02 10 18 C10.66 18 11.32 18 12 18 C12 19.32 12 20.64 12 22 C12.66 22 13.32 22 14 22 C13.86105852 18.89548451 13.712657 15.79149165 13.5625 12.6875 C13.52318359 11.80642578 13.48386719 10.92535156 13.44335938 10.01757812 C13.40146484 9.17001953 13.35957031 8.32246094 13.31640625 7.44921875 C13.27974854 6.66893311 13.24309082 5.88864746 13.20532227 5.0847168 C13.05874737 2.80670899 13.05874737 2.80670899 12 0 C13.62490954 -0.02698189 15.24994633 -0.04638757 16.875 -0.0625 C18.23238281 -0.07990234 18.23238281 -0.07990234 19.6171875 -0.09765625 C22 0 22 0 24 1 C25.37227311 5.11681934 24.5596212 7.100947 23 11 C23.35993491 14.59934905 24.58062084 17.68811529 26 21 C26.33 19.35 26.66 17.7 27 16 C29.51083114 17.25541557 29.87125446 18.50063488 31 21 C31.66 21 32.32 21 33 21 C33.33 19.02 33.66 17.04 34 15 C33.030625 14.71125 32.06125 14.4225 31.0625 14.125 C28 13 28 13 27 11 C26.73577283 7.43293326 26.61264047 4.83927897 28.125 1.5625 C30 0 30 0 33.125 -0.3125 C36 0 36 0 37 1 C37.04080783 2.99958364 37.04254356 5.00045254 37 7 C36.34 7 35.68 7 35 7 C34.505 5.515 34.505 5.515 34 4 C33.34 4 32.68 4 32 4 C31.67 5.65 31.34 7.3 31 9 C31.969375 9.309375 32.93875 9.61875 33.9375 9.9375 C37 11 37 11 38 12 C38.45306987 21.21242061 38.45306987 21.21242061 36 24 C32.41410857 24.99184231 30.55287397 25.18429132 27 24 C25.33378384 23.96125079 23.66605828 23.9549714 22 24 C20.515 20.535 20.515 20.535 19 17 C19 19.31 19 21.62 19 24 C13.06 24 7.12 24 1 24 C1.33 17.07 1.66 10.14 2 3 C1.34 3 0.68 3 0 3 C0 2.01 0 1.02 0 0 Z M18 3 C18 5.64 18 8.28 18 11 C19.66621425 9.8354799 19.66621425 9.8354799 21 8 C20.76956136 5.34533951 20.76956136 5.34533951 20 3 C19.34 3 18.68 3 18 3 Z " fill="#439DD0" transform="translate(212,35)"/>
<path d="M0 0 C3.63 0 7.26 0 11 0 C10.67 0.99 10.34 1.98 10 3 C9.34 3 8.68 3 8 3 C8 6.63 8 10.26 8 14 C11.3 14 14.6 14 18 14 C17.88648483 12.18674449 17.75887039 10.37436643 17.625 8.5625 C17.55539063 7.55316406 17.48578125 6.54382813 17.4140625 5.50390625 C17.27742188 4.67761719 17.14078125 3.85132813 17 3 C16.34 2.67 15.68 2.34 15 2 C15 1.34 15 0.68 15 0 C18.63 0 22.26 0 26 0 C25.67 0.99 25.34 1.98 25 3 C24.84929203 5.13661258 24.7514034 7.27712124 24.68359375 9.41796875 C24.64169922 10.67158203 24.59980469 11.92519531 24.55664062 13.21679688 C24.51732422 14.52712891 24.47800781 15.83746094 24.4375 17.1875 C24.39429008 18.52279978 24.350675 19.85808652 24.30664062 21.19335938 C24.20043498 24.46213297 24.09839003 27.73098333 24 31 C24.66 31 25.32 31 26 31 C26 31.99 26 32.98 26 34 C22.37 34 18.74 34 15 34 C15 33.01 15 32.02 15 31 C15.99 31 16.98 31 18 31 C18 26.71 18 22.42 18 18 C14.7 18 11.4 18 8 18 C8.11455681 19.91731918 8.24206258 21.8338675 8.375 23.75 C8.44460937 24.81734375 8.51421875 25.8846875 8.5859375 26.984375 C8.87451003 30.28466713 8.87451003 30.28466713 11 34 C7.37 34 3.74 34 0 34 C0 33.01 0 32.02 0 31 C0.66 30.67 1.32 30.34 2 30 C2 20.76 2 11.52 2 2 C1.34 2 0.68 2 0 2 C0 1.34 0 0.68 0 0 Z " fill="#383737" transform="translate(223,0)"/>
<path d="M0 0 C6.02102024 0.07318367 6.02102024 0.07318367 8.62109375 1.73828125 C13.92491902 8.08083788 13.16210624 15.70782843 12.6875 23.5 C11.87123102 27.70989121 10.3675923 30.69989141 7.5625 34 C3.52134527 36.10842856 0.15051626 36.40360364 -4.3125 35.5 C-7.85852998 33.73449778 -9.92127074 31.44647905 -11.44921875 27.75 C-13.3232777 20.69471924 -13.71326034 12.42375055 -10.4375 5.75 C-7.16172364 0.73998909 -5.90659741 0.16054172 0 0 Z M-4.0625 4.8125 C-6.80893337 8.52018506 -6.50970035 12.36412959 -6.5625 16.8125 C-6.58828125 18.10800781 -6.6140625 19.40351563 -6.640625 20.73828125 C-6.29196337 24.73543781 -5.41982743 27.11304242 -3.3125 30.5 C-1.26156855 31.90466953 -1.26156855 31.90466953 0.6875 32.5 C4.60353304 29.70579508 4.60353304 29.70579508 6.6875 25.5 C6.83453064 23.06551182 6.90855339 20.6262523 6.9375 18.1875 C6.96328125 16.89199219 6.9890625 15.59648437 7.015625 14.26171875 C6.65628194 10.14210719 5.7023456 6.5148456 2.6875 3.5 C-0.17514617 3.19866882 -1.7172729 3.05357968 -4.0625 4.8125 Z " fill="#3C3C3B" transform="translate(186.3125,-0.49999999999999994)"/>
<path d="M0 0 C2.77245014 -0.13487595 5.53837088 -0.23400807 8.3125 -0.3125 C9.49102539 -0.3753418 9.49102539 -0.3753418 10.69335938 -0.43945312 C12.89733201 -0.48634616 14.84386511 -0.46347625 17 0 C19.09375 2.26171875 19.09375 2.26171875 20 5 C19.85546875 7.1328125 19.85546875 7.1328125 19.1875 9.125 C18.36388533 11.69068448 18 13.24042847 18 16 C18.66 16.66 19.32 17.32 20 18 C20.63068386 22.62774524 20.54355814 26.78934777 18.625 31.0625 C17 33 17 33 15 34 C10.71 34 6.42 34 2 34 C2 23.77 2 13.54 2 3 C1.34 2.67 0.68 2.34 0 2 C0 1.34 0 0.68 0 0 Z M9 3 C9 6.3 9 9.6 9 13 C10.32 12.67 11.64 12.34 13 12 C13.68493373 9.14221967 13.68493373 9.14221967 14 6 C13.34 5.01 12.68 4.02 12 3 C11.01 3 10.02 3 9 3 Z M9 17 C9 21.62 9 26.24 9 31 C10.32 30.67 11.64 30.34 13 30 C14.17673198 27.64653604 14.16623866 26.1193967 14.1875 23.5 C14.20167969 22.7059375 14.21585938 21.911875 14.23046875 21.09375 C14.19666303 18.77966683 14.19666303 18.77966683 12 17 C11.01 17 10.02 17 9 17 Z " fill="#3B3B3A" transform="translate(151,0)"/>
<path d="M0 0 C2.475 0.99 2.475 0.99 5 2 C5 14.87 5 27.74 5 41 C2.03 41 -0.94 41 -4 41 C-3.67 30.11 -3.34 19.22 -3 8 C-2.01 8 -1.02 8 0 8 C-0.185625 7.05125 -0.37125 6.1025 -0.5625 5.125 C-1 2 -1 2 0 0 Z " fill="#20CA51" transform="translate(32,17)"/>
<path d="M0 0 C0.33 0 0.66 0 1 0 C1.02464775 5.53588533 1.04283496 11.071739 1.05493164 16.60766602 C1.05997244 18.4924373 1.06680498 20.37720465 1.07543945 22.26196289 C1.08751617 24.96501636 1.09323068 27.66801831 1.09765625 30.37109375 C1.10281754 31.21900986 1.10797882 32.06692596 1.11329651 32.9405365 C1.11349195 34.96071068 1.06206211 36.98077934 1 39 C0 40 0 40 -3.51000977 40.11352539 C-5.07048422 40.11336626 -6.63096393 40.10767142 -8.19140625 40.09765625 C-9.01124496 40.0962413 -9.83108368 40.09482635 -10.67576599 40.09336853 C-13.30471382 40.08775289 -15.93357773 40.07519779 -18.5625 40.0625 C-20.34049357 40.05748701 -22.11848846 40.05292376 -23.89648438 40.04882812 C-28.26435545 40.03777839 -32.63216348 40.02050331 -37 40 C-37 36.7 -37 33.4 -37 30 C-35.9790625 29.7525 -35.9790625 29.7525 -34.9375 29.5 C-29.33907115 26.64122782 -25.74138828 21.53965184 -23 16 C-20.21046117 12.99023442 -17.35573428 10.36144264 -14 8 C-12.875 11.75 -12.875 11.75 -14 14 C-14.66 14 -15.32 14 -16 14 C-16.28875 14.5775 -16.5775 15.155 -16.875 15.75 C-17.91666667 17.83333333 -18.95833333 19.91666667 -20 22 C-20.99 22 -21.98 22 -23 22 C-23.12375 22.61875 -23.2475 23.2375 -23.375 23.875 C-24 26 -24 26 -26 28 C-25.34 28.66 -24.68 29.32 -24 30 C-24.99 30 -25.98 30 -27 30 C-27 32.64 -27 35.28 -27 38 C-18.09 38 -9.18 38 0 38 C0 25.46 0 12.92 0 0 Z M-29 30 C-29.99 31.485 -29.99 31.485 -31 33 C-30.01 33.33 -29.02 33.66 -28 34 C-28.33 32.68 -28.66 31.36 -29 30 Z M-33 34 C-32 36 -32 36 -32 36 Z " fill="#4AAE77" transform="translate(37,20)"/>
<path d="M0 0 C7.26 0 14.52 0 22 0 C22 2.64 22 5.28 22 8 C21.34 8 20.68 8 20 8 C19.67 6.35 19.34 4.7 19 3 C17.35 3 15.7 3 14 3 C14 12.24 14 21.48 14 31 C14.99 31.33 15.98 31.66 17 32 C17 32.66 17 33.32 17 34 C13.37 34 9.74 34 6 34 C6 33.01 6 32.02 6 31 C6.66 31 7.32 31 8 31 C8 21.76 8 12.52 8 3 C6.68 3.33 5.36 3.66 4 4 C3.67 5.32 3.34 6.64 3 8 C2.34 8 1.68 8 1 8 C0.67 5.36 0.34 2.72 0 0 Z " fill="#3A3A39" transform="translate(200,0)"/>
<path d="M0 0 C3.63 0 7.26 0 11 0 C11 1.98 11 3.96 11 6 C10.34 6 9.68 6 9 6 C9 5.01 9 4.02 9 3 C8.01 3 7.02 3 6 3 C6 5.31 6 7.62 6 10 C6.66 10 7.32 10 8 10 C8 9.34 8 8.68 8 8 C8.66 8 9.32 8 10 8 C10 10.64 10 13.28 10 16 C9.34 16 8.68 16 8 16 C8 15.01 8 14.02 8 13 C7.34 13 6.68 13 6 13 C6 15.64 6 18.28 6 21 C7.32 21 8.64 21 10 21 C10 20.01 10 19.02 10 18 C10.66 18 11.32 18 12 18 C12 19.32 12 20.64 12 22 C12.66 22 13.32 22 14 22 C13.67 15.07 13.34 8.14 13 1 C15.31 1 17.62 1 20 1 C19.01 1.33 18.02 1.66 17 2 C17 8.6 17 15.2 17 22 C17.66 22 18.32 22 19 22 C19 22.66 19 23.32 19 24 C13.06 24 7.12 24 1 24 C1.33 17.07 1.66 10.14 2 3 C1.34 3 0.68 3 0 3 C0 2.01 0 1.02 0 0 Z " fill="#479BCB" transform="translate(212,35)"/>
<path d="M0 0 C1.58294782 -0.05437607 3.16644256 -0.09296271 4.75 -0.125 C5.63171875 -0.14820313 6.5134375 -0.17140625 7.421875 -0.1953125 C10.1618036 0.01225785 11.71219824 0.5019739 14 2 C16.72615357 7.19267347 16.15271671 12.42233848 15 18 C12.85333333 22.57333333 12.85333333 22.57333333 10 24 C8.29297265 24.06996014 6.58331997 24.08440154 4.875 24.0625 C3.96492187 24.05347656 3.05484375 24.04445313 2.1171875 24.03515625 C1.06917969 24.01775391 1.06917969 24.01775391 0 24 C0 16 0 8 0 0 Z M5 3 C5 8.94 5 14.88 5 21 C6.65 20.67 8.3 20.34 10 20 C11.79172099 13.92193109 12.28545662 9.96758117 10 4 C8.35 3.67 6.7 3.34 5 3 Z " fill="#34A4E5" transform="translate(196,35)"/>
<path d="M0 0 C7.59 0 15.18 0 23 0 C23 0.33 23 0.66 23 1 C20.69 1.33 18.38 1.66 16 2 C16 8.6 16 15.2 16 22 C15.67 22 15.34 22 15 22 C14.67 17.05 14.34 12.1 14 7 C13.34 7 12.68 7 12 7 C12 5.68 12 4.36 12 3 C11.01 3 10.02 3 9 3 C9 9.27 9 15.54 9 22 C9.66 22 10.32 22 11 22 C11 22.66 11 23.32 11 24 C8.36 24 5.72 24 3 24 C3 23.34 3 22.68 3 22 C3.66 22 4.32 22 5 22 C5 15.73 5 9.46 5 3 C2.66924071 3.95865509 2.66924071 3.95865509 1 7 C0.67 6.67 0.34 6.34 0 6 C0 4.02 0 2.04 0 0 Z " fill="#4F97BF" transform="translate(152,35)"/>
<path d="M0 0 C0.99 0 1.98 0 3 0 C4.00410968 3.62387457 5.00258908 7.24927651 6 10.875 C6.28617188 11.90753906 6.57234375 12.94007812 6.8671875 14.00390625 C7.13789063 14.99003906 7.40859375 15.97617187 7.6875 16.9921875 C7.93886719 17.90339355 8.19023437 18.81459961 8.44921875 19.75341797 C9 22 9 22 9 24 C6.69 24 4.38 24 2 24 C2 23.34 2 22.68 2 22 C2.66 22 3.32 22 4 22 C3.67 20.35 3.34 18.7 3 17 C1.68 17.33 0.36 17.66 -1 18 C-1 19.98 -1 21.96 -1 24 C-4.3 24 -7.6 24 -11 24 C-10.67 23.34 -10.34 22.68 -10 22 C-8.35 22 -6.7 22 -5 22 C-4.72285156 20.74703125 -4.44570312 19.4940625 -4.16015625 18.203125 C-3.79429904 16.55207708 -3.42841207 14.90103576 -3.0625 13.25 C-2.88009766 12.425 -2.69769531 11.6 -2.50976562 10.75 C-2.33251953 9.95078125 -2.15527344 9.1515625 -1.97265625 8.328125 C-1.81031494 7.5949707 -1.64797363 6.86181641 -1.48071289 6.10644531 C-1.01446454 4.06338247 -0.51579351 2.03106238 0 0 Z M0 10 C0 11.32 0 12.64 0 14 C0.66 14 1.32 14 2 14 C1.34 12.68 0.68 11.36 0 10 Z " fill="#3DA0D8" transform="translate(186,35)"/>
<path d="M0 0 C0.66 0.33 1.32 0.66 2 1 C1.67 2.65 1.34 4.3 1 6 C0.34 6 -0.32 6 -1 6 C-1.433125 6.86625 -1.433125 6.86625 -1.875 7.75 C-2.91666667 9.83333333 -3.95833333 11.91666667 -5 14 C-5.99 14 -6.98 14 -8 14 C-8.0825 14.58523437 -8.165 15.17046875 -8.25 15.7734375 C-9.22273886 18.66125599 -10.6493825 19.71932081 -13 21.625 C-15.95572315 23.94555299 -15.95572315 23.94555299 -18 27 C-19.32 27 -20.64 27 -22 27 C-22 25.35 -22 23.7 -22 22 C-20.9790625 21.7525 -20.9790625 21.7525 -19.9375 21.5 C-14.33300907 18.63813229 -10.75217025 13.53845831 -8 8 C-6.37550757 6.29220027 -4.70779973 4.62449243 -3 3 C-2.401875 2.401875 -1.80375 1.80375 -1.1875 1.1875 C-0.795625 0.795625 -0.40375 0.40375 0 0 Z " fill="#D43D44" transform="translate(22,28)"/>
<path d="M0 0 C0.99 0 1.98 0 3 0 C2.67 3.96 2.34 7.92 2 12 C1.01 12 0.02 12 -1 12 C-1.33 13.65 -1.66 15.3 -2 17 C-2.66 17 -3.32 17 -4 17 C-4.1546875 18.11375 -4.1546875 18.11375 -4.3125 19.25 C-5.05269611 22.21078443 -6.15719597 23.61971146 -8 26 C-8.70514846 28.14733927 -8.70514846 28.14733927 -9 30 C-10.32 29.67 -11.64 29.34 -13 29 C-13.3125 26.8125 -13.3125 26.8125 -13 24 C-11.83121456 22.86460843 -10.65584531 21.73485877 -9.44140625 20.6484375 C-5.86065616 16.55337913 -3.51409768 10.64838199 -2.484375 5.34375 C-2 3 -2 3 0 0 Z " fill="#24A3D9" transform="translate(36,0)"/>
<path d="M0 0 C0.99 0 1.98 0 3 0 C3.33 6.27 3.66 12.54 4 19 C-0.29 19 -4.58 19 -9 19 C-9 16.36 -9 13.72 -9 11 C-8.01 11 -7.02 11 -6 11 C-6 13.31 -6 15.62 -6 18 C-5.34 18 -4.68 18 -4 18 C-4 14.04 -4 10.08 -4 6 C-3.34 6 -2.68 6 -2 6 C-2 9.96 -2 13.92 -2 18 C-1.34 18 -0.68 18 0 18 C0 12.06 0 6.12 0 0 Z " fill="#0ED045" transform="translate(19,39)"/>
<path d="M0 0 C3.3 0 6.6 0 10 0 C10 0.33 10 0.66 10 1 C7.36 1.33 4.72 1.66 2 2 C2 8.93 2 15.86 2 23 C2.99 23 3.98 23 5 23 C5 22.34 5 21.68 5 21 C6.32 20.67 7.64 20.34 9 20 C9.66 17.36 10.32 14.72 11 12 C12.32 13.32 13.64 14.64 15 16 C13.375 21.75 13.375 21.75 10 24 C7.51953125 24.1953125 7.51953125 24.1953125 4.8125 24.125 C3.91144531 24.10695313 3.01039063 24.08890625 2.08203125 24.0703125 C1.39496094 24.04710938 0.70789063 24.02390625 0 24 C0 16 0 8 0 0 Z " fill="#5694B5" transform="translate(196,35)"/>
<path d="M0 0 C1.62490954 -0.02698189 3.24994633 -0.04638757 4.875 -0.0625 C5.77992188 -0.07410156 6.68484375 -0.08570313 7.6171875 -0.09765625 C10 0 10 0 12 1 C13.32016935 4.45275062 12.97643706 6.52442938 11.5625 9.8125 C11.046875 10.864375 10.53125 11.91625 10 13 C9.01 13 8.02 13 7 13 C6.67 15.97 6.34 18.94 6 22 C5.67 22 5.34 22 5 22 C5 15.4 5 8.8 5 2 C3.35 2 1.7 2 0 2 C0 1.34 0 0.68 0 0 Z M6 3 C6 5.64 6 8.28 6 11 C7.66621425 9.8354799 7.66621425 9.8354799 9 8 C8.76956136 5.34533951 8.76956136 5.34533951 8 3 C7.34 3 6.68 3 6 3 Z " fill="#5195BC" transform="translate(224,35)"/>
<path d="M0 0 C2.31 0 4.62 0 7 0 C6.01 0.33 5.02 0.66 4 1 C4.33 7.93 4.66 14.86 5 22 C3.68 22 2.36 22 1 22 C0.67 14.74 0.34 7.48 0 0 Z " fill="#34A5E5" transform="translate(225,36)"/>
<path d="M0 0 C2.64 0 5.28 0 8 0 C6.68 0.33 5.36 0.66 4 1 C4.33 7.6 4.66 14.2 5 21 C5.66 21 6.32 21 7 21 C7 21.66 7 22.32 7 23 C4.69 23 2.38 23 0 23 C0 22.34 0 21.68 0 21 C0.66 21 1.32 21 2 21 C2 14.4 2 7.8 2 1 C1.34 0.67 0.68 0.34 0 0 Z " fill="#31A5E8" transform="translate(166,36)"/>
<path d="M0 0 C2.20808081 5.19548425 1.93402724 8.58264203 1 14 C0.01 13.67 -0.98 13.34 -2 13 C-2.08636719 12.30132812 -2.17273438 11.60265625 -2.26171875 10.8828125 C-2.68204824 8.16031137 -3.13743453 5.61803791 -4 3 C-6.45748398 1.24431996 -6.45748398 1.24431996 -9 1 C-5.64919071 -1.10976881 -3.77897651 -1.0497157 0 0 Z " fill="#419ED2" transform="translate(210,37)"/>
<path d="M0 0 C0.66 0.33 1.32 0.66 2 1 C1.67 2.65 1.34 4.3 1 6 C0.34 6 -0.32 6 -1 6 C-1.433125 6.86625 -1.433125 6.86625 -1.875 7.75 C-2.91666667 9.83333333 -3.95833333 11.91666667 -5 14 C-6.65 13.67 -8.3 13.34 -10 13 C-8.59799333 8.5390697 -6.40216594 6.15322697 -3 3 C-2.401875 2.401875 -1.80375 1.80375 -1.1875 1.1875 C-0.795625 0.795625 -0.40375 0.40375 0 0 Z " fill="#E7BF36" transform="translate(22,28)"/>
<path d="M0 0 C3.52387645 4.11118919 6 7.46508112 6 13 C4.35 12.67 2.7 12.34 1 12 C0.01 8.37 -0.98 4.74 -2 1 C-1.34 0.67 -0.68 0.34 0 0 Z " fill="#3E9FD6" transform="translate(232,46)"/>
<path d="M0 0 C2.51083114 1.25541557 2.87125446 2.50063488 4 5 C4.66 5 5.32 5 6 5 C6.33 3.35 6.66 1.7 7 0 C7.33 1.32 7.66 2.64 8 4 C8.66 4 9.32 4 10 4 C9.67 5.32 9.34 6.64 9 8 C5.33694766 8.74926071 2.57644848 9.2380014 -1 8 C-0.67 5.36 -0.34 2.72 0 0 Z " fill="#4D9AC4" transform="translate(239,51)"/>
<path d="M0 0 C0.99 0 1.98 0 3 0 C3.67408308 1.26691507 4.33900497 2.53870749 5 3.8125 C5.556875 4.87404297 5.556875 4.87404297 6.125 5.95703125 C7 8 7 8 7 11 C5.1875 10.9375 5.1875 10.9375 3 10 C1.18721244 6.5039097 0 3.96018245 0 0 Z " fill="#3BA0DB" transform="translate(172,47)"/>
<path d="M0 0 C0.33 1.32 0.66 2.64 1 4 C2.65 4 4.3 4 6 4 C4.02 4.99 4.02 4.99 2 6 C2 7.98 2 9.96 2 12 C-1.3 12 -4.6 12 -8 12 C-7.67 11.34 -7.34 10.68 -7 10 C-5.35 10 -3.7 10 -2 10 C-1.34 6.7 -0.68 3.4 0 0 Z " fill="#4E99C2" transform="translate(183,47)"/>
<path d="M0 0 C1.32 0.33 2.64 0.66 4 1 C3.01 1 2.02 1 1 1 C1 3.64 1 6.28 1 9 C-2.3 8.67 -5.6 8.34 -9 8 C-8 6 -8 6 -5 5 C-4.34 4.34 -3.68 3.68 -3 3 C-2.34 3.33 -1.68 3.66 -1 4 C-0.67 2.68 -0.34 1.36 0 0 Z " fill="#51B069" transform="translate(9,49)"/>
<path d="M0 0 C0.66 0.33 1.32 0.66 2 1 C1.67 2.65 1.34 4.3 1 6 C0.34 6 -0.32 6 -1 6 C-1.33 6.66 -1.66 7.32 -2 8 C-3.32 7.67 -4.64 7.34 -6 7 C-4.02 4.69 -2.04 2.38 0 0 Z " fill="#DDBC44" transform="translate(22,28)"/>
<path d="M0 0 C1.9723138 2.9584707 3 5.40258537 3 9 C3.33 9.66 3.66 10.32 4 11 C2.68 11 1.36 11 0 11 C-1.28571429 3.57142857 -1.28571429 3.57142857 0 0 Z " fill="#5D91AC" transform="translate(185,39)"/>
<path d="M0 0 C0.66 0 1.32 0 2 0 C3.7578125 5.95703125 3.7578125 5.95703125 4 8 C3.01 9.485 3.01 9.485 2 11 C2 10.34 2 9.68 2 9 C0.68 9.33 -0.64 9.66 -2 10 C-2 9.34 -2 8.68 -2 8 C-1.34 7.67 -0.68 7.34 0 7 C0 4.69 0 2.38 0 0 Z " fill="#5396BB" transform="translate(173,38)"/>
<path d="M0 0 C0.33 0 0.66 0 1 0 C1 1.65 1 3.3 1 5 C0.01 5 -0.98 5 -2 5 C-2 5.66 -2 6.32 -2 7 C-3.32 7.33 -4.64 7.66 -6 8 C-5.34 6.02 -4.68 4.04 -4 2 C-2.68 2.33 -1.36 2.66 0 3 C0 2.01 0 1.02 0 0 Z " fill="#37A0CC" transform="translate(37,7)"/>
<path d="M0 0 C1.32 1.32 2.64 2.64 4 4 C3.34 5.32 2.68 6.64 2 8 C1.67 7.67 1.34 7.34 1 7 C0.67 7.66 0.34 8.32 0 9 C-0.66 8.67 -1.32 8.34 -2 8 C-1.34 5.36 -0.68 2.72 0 0 Z " fill="#4E9AC3" transform="translate(207,47)"/>
<path d="M0 0 C0.99 0 1.98 0 3 0 C3 2.31 3 4.62 3 7 C2.01 7.33 1.02 7.66 0 8 C0 5.36 0 2.72 0 0 Z " fill="#515050" transform="translate(85,44)"/>
<path d="M0 0 C2 1 2 1 3.1875 3.4375 C4 6 4 6 3 8 C1.68 8 0.36 8 -1 8 C-0.67 5.36 -0.34 2.72 0 0 Z " fill="#5396BA" transform="translate(239,51)"/>
<path d="M0 0 C0.99 0.33 1.98 0.66 3 1 C2.67 1.66 2.34 2.32 2 3 C1.34 3 0.68 3 0 3 C0 4.32 0 5.64 0 7 C-0.99 6.67 -1.98 6.34 -3 6 C-2.625 3.5625 -2.625 3.5625 -2 1 C-1.34 0.67 -0.68 0.34 0 0 Z " fill="#1AACDF" transform="translate(32,14)"/>
<path d="M0 0 C-1.49097658 3.7952131 -3.75700849 5.61042731 -7 8 C-4.18918919 0 -4.18918919 0 0 0 Z " fill="#474545" transform="translate(133,0)"/>
<path d="M0 0 C0.66 0 1.32 0 2 0 C1.6875 2.375 1.6875 2.375 1 5 C0.01 5.66 -0.98 6.32 -2 7 C-1.125 1.125 -1.125 1.125 0 0 Z " fill="#D5353A" transform="translate(12,41)"/>
</svg>
