<?xml version="1.0" encoding="UTF-8"?>
<svg version="1.1" xmlns="http://www.w3.org/2000/svg" width="400" height="400">
<path d="M0 0 C0.74093399 -0.0038269 1.48186798 -0.00765381 2.24525452 -0.01159668 C3.81122192 -0.01431668 5.37723468 -0.0069491 6.94311523 0.00976562 C9.33615919 0.03114727 11.72619101 0.00998648 14.11914062 -0.015625 C15.6419337 -0.01298114 17.16472489 -0.00785495 18.6875 0 C19.40115219 -0.00809692 20.11480438 -0.01619385 20.8500824 -0.02453613 C23.88314006 0.03248128 26.01539541 0.28132748 28.59972572 1.9174633 C31.4366743 6.01327275 30.95479431 9.99992409 30.90463257 14.86941528 C30.9094614 15.93314546 30.91429023 16.99687565 30.91926539 18.09284008 C30.93056699 21.66907427 30.91319336 25.24459832 30.89599609 28.82080078 C30.89814116 31.37969151 30.90201767 33.93858129 30.90750122 36.49746704 C30.9162033 42.73279978 30.90630094 48.96786739 30.88780062 55.20317139 C30.86704194 62.46013055 30.86717273 69.71704375 30.86814578 76.97402702 C30.86914715 89.91843914 30.85081929 102.86275244 30.82177734 115.80712891 C30.79359055 128.37680867 30.77943628 140.94640148 30.78076172 153.51611328 C30.78084163 154.29055043 30.78092154 155.06498758 30.78100388 155.86289252 C30.78108459 156.63597243 30.7811653 157.40905233 30.78124845 158.2055589 C30.78262696 172.5048167 30.77085629 186.80403745 30.75294202 201.10328326 C30.74690162 206.1658937 30.744782 211.22849735 30.74387741 216.29111099 C30.74237332 223.09872849 30.72971436 229.90624137 30.70954514 236.71383286 C30.70368276 239.21890449 30.70124688 241.72398671 30.70240021 244.22906494 C30.70337528 247.63515981 30.69213307 251.04099339 30.67758179 254.447052 C30.68067899 255.4501444 30.6837762 256.45323679 30.68696725 257.48672593 C30.67729392 258.84752315 30.67729392 258.84752315 30.66742516 260.23581123 C30.66601631 261.02270179 30.66460746 261.80959234 30.66315591 262.62032807 C30.41015625 264.53125 30.41015625 264.53125 28.41015625 266.53125 C25.71992677 266.78079766 25.71992677 266.78079766 22.2166357 266.78013897 C21.57135724 266.78274625 20.92607877 266.78535354 20.26124641 266.78803983 C18.07811494 266.79438447 15.89526626 266.78634941 13.71214294 266.77848816 C12.1395795 266.78007498 10.56701673 266.7825373 8.99445587 266.78580457 C4.65687265 266.79224451 0.31938214 266.78612961 -4.01819503 266.77804029 C-8.68966408 266.77148337 -13.36112242 266.77640736 -18.03259277 266.77992249 C-27.19015412 266.78497364 -36.34767946 266.77931148 -45.50523634 266.77007218 C-56.15833667 266.75970869 -66.81142913 266.75975782 -77.46453356 266.76024476 C-96.46521424 266.76074583 -115.46587812 266.75157173 -134.46655273 266.73706055 C-152.92554022 266.72297026 -171.38451292 266.71588982 -189.84350586 266.71655273 C-191.54893756 266.71661267 -191.54893756 266.71661267 -193.28882242 266.71667381 C-194.42376526 266.71671417 -195.55870809 266.71675452 -196.72804314 266.7167961 C-217.71222344 266.7174851 -238.69639743 266.71160094 -259.68057569 266.70264288 C-267.1155832 266.69962044 -274.55058955 266.69856261 -281.98559761 266.69811058 C-291.03908987 266.69742999 -300.09257148 266.69298694 -309.14605922 266.68377777 C-313.76988414 266.67914575 -318.39369541 266.67611942 -323.01752281 266.67737198 C-327.24325661 266.67846123 -331.46896012 266.67498435 -335.6946876 266.66772345 C-337.23030059 266.66589939 -338.76591669 266.66579014 -340.30152983 266.66749074 C-342.37511141 266.66953427 -344.44859165 266.66553047 -346.52216434 266.65988445 C-347.67808805 266.65918003 -348.83401175 266.6584756 -350.02496344 266.65774983 C-352.58984375 266.53125 -352.58984375 266.53125 -353.58984375 265.53125 C-353.68877315 263.36644203 -353.71955475 261.19831215 -353.71484375 259.03125 C-353.71742188 257.8453125 -353.72 256.659375 -353.72265625 255.4375 C-353.58984375 252.53125 -353.58984375 252.53125 -352.58984375 251.53125 C-350.7792935 251.43748947 -348.96507174 251.4138089 -347.15209961 251.41772461 C-345.41040749 251.41783791 -345.41040749 251.41783791 -343.63352966 251.41795349 C-341.73825279 251.42569542 -341.73825279 251.42569542 -339.8046875 251.43359375 C-337.87575401 251.43571617 -337.87575401 251.43571617 -335.90785217 251.43788147 C-332.48340932 251.44170582 -329.05900866 251.45153538 -325.63458252 251.46258545 C-322.14246186 251.47280136 -318.65033441 251.47737947 -315.15820312 251.48242188 C-308.30206597 251.49315773 -301.44595688 251.51023316 -294.58984375 251.53125 C-294.62464844 250.42265625 -294.65945313 249.3140625 -294.6953125 248.171875 C-294.72345724 246.70834852 -294.75075667 245.24480561 -294.77734375 243.78125 C-294.80248047 243.05164063 -294.82761719 242.32203125 -294.85351562 241.5703125 C-294.89669905 238.40352772 -294.77838276 235.93683783 -293.43383789 233.04443359 C-290.86936513 230.94002446 -289.19157008 231.04375288 -285.8984375 231.0703125 C-284.78919922 231.07417969 -283.67996094 231.07804688 -282.53710938 231.08203125 C-281.37888672 231.10652344 -280.22066406 231.13101563 -279.02734375 231.15625 C-277.28420898 231.15818359 -277.28420898 231.15818359 -275.50585938 231.16015625 C-266.87051505 231.2505787 -266.87051505 231.2505787 -264.58984375 233.53125 C-264.36279297 235.41064453 -264.36279297 235.41064453 -264.39453125 237.6640625 C-264.40097656 238.46972656 -264.40742188 239.27539062 -264.4140625 240.10546875 C-264.43919922 241.36810547 -264.43919922 241.36810547 -264.46484375 242.65625 C-264.47386719 243.50574219 -264.48289062 244.35523438 -264.4921875 245.23046875 C-264.51578728 247.33084884 -264.55165892 249.43108444 -264.58984375 251.53125 C-259.30984375 251.53125 -254.02984375 251.53125 -248.58984375 251.53125 C-248.6055542 250.31542236 -248.62126465 249.09959473 -248.63745117 247.84692383 C-248.69183176 243.32762297 -248.72622347 238.80835094 -248.75463867 234.28881836 C-248.76970676 232.33434177 -248.79016499 230.37989888 -248.81616211 228.42553711 C-248.8526324 225.61303377 -248.86958997 222.80097826 -248.8828125 219.98828125 C-248.89829636 219.11726273 -248.91378021 218.2462442 -248.92973328 217.34883118 C-248.93201711 209.07928025 -248.93201711 209.07928025 -245.58984375 205.53125 C-243.00195312 204.90014648 -243.00195312 204.90014648 -239.93359375 204.90234375 C-238.27650391 204.89944336 -238.27650391 204.89944336 -236.5859375 204.89648438 C-235.43222656 204.92033203 -234.27851563 204.94417969 -233.08984375 204.96875 C-231.93613281 204.95779297 -230.78242188 204.94683594 -229.59375 204.93554688 C-221.25755938 205.0085007 -221.25755938 205.0085007 -218.75463867 206.96801758 C-216.94286254 210.95498837 -217.22228603 214.78326352 -217.296875 219.109375 C-217.30111984 220.0359491 -217.30536469 220.96252319 -217.30973816 221.91717529 C-217.32651053 224.87216434 -217.3641602 227.82646761 -217.40234375 230.78125 C-217.41739245 232.78644847 -217.43108053 234.79165765 -217.44335938 236.796875 C-217.47640937 241.70859696 -217.52818193 246.61980726 -217.58984375 251.53125 C-212.30984375 251.53125 -207.02984375 251.53125 -201.58984375 251.53125 C-201.61340942 248.01053833 -201.61340942 248.01053833 -201.63745117 244.41870117 C-201.68711781 236.67146712 -201.720281 228.9242261 -201.74528027 221.17687511 C-201.76094903 216.47875244 -201.7822093 211.78079261 -201.81616211 207.08276367 C-201.84871252 202.55051888 -201.86668764 198.01843091 -201.87447548 193.48607826 C-201.88002677 191.75526777 -201.89086688 190.02446604 -201.90703392 188.29372215 C-201.92875112 185.87295224 -201.93181312 183.45283377 -201.93041992 181.03198242 C-201.94120575 180.31341064 -201.95199158 179.59483887 -201.96310425 178.85449219 C-201.94496922 175.95029648 -201.92206139 174.00441926 -200.2245636 171.5867157 C-197.84509039 170.05039597 -195.96690695 170.14262422 -193.15234375 170.1328125 C-192.09273437 170.12894531 -191.033125 170.12507812 -189.94140625 170.12109375 C-188.83539063 170.13269531 -187.729375 170.14429688 -186.58984375 170.15625 C-184.93082031 170.13884766 -184.93082031 170.13884766 -183.23828125 170.12109375 C-182.17867187 170.12496094 -181.1190625 170.12882813 -180.02734375 170.1328125 C-178.57134766 170.13788818 -178.57134766 170.13788818 -177.0859375 170.14306641 C-174.58984375 170.53125 -174.58984375 170.53125 -172.9551239 171.5867157 C-170.87859505 174.54426369 -171.19700579 177.55020555 -171.24926758 181.03198242 C-171.2488295 181.79319901 -171.24839142 182.55441559 -171.24794006 183.33869934 C-171.25003022 185.85496666 -171.2733714 188.37056782 -171.296875 190.88671875 C-171.30247016 192.63120662 -171.30674064 194.37569921 -171.30973816 196.12019348 C-171.32119326 200.71195487 -171.3506661 205.30343164 -171.3838501 209.89508057 C-171.41453668 214.58040517 -171.42824047 219.26577575 -171.44335938 223.95117188 C-171.47553528 233.14467643 -171.52830858 242.33789502 -171.58984375 251.53125 C-165.97984375 251.53125 -160.36984375 251.53125 -154.58984375 251.53125 C-154.5998365 249.28285812 -154.5998365 249.28285812 -154.61003113 246.98904419 C-154.67073696 232.89161357 -154.71594564 218.79422897 -154.74528027 204.69670296 C-154.76076319 197.44830204 -154.78187975 190.19999855 -154.81616211 182.95166016 C-154.84602106 176.63556666 -154.86540838 170.31954372 -154.87210923 164.00338161 C-154.8760275 160.65757256 -154.88526507 157.31196535 -154.90703392 153.96622086 C-154.92867973 150.23533196 -154.93181603 146.50486694 -154.93041992 142.77392578 C-154.94120575 141.65902771 -154.95199158 140.54412964 -154.96310425 139.39544678 C-154.95898026 138.38299896 -154.95485626 137.37055115 -154.9506073 136.3274231 C-154.95337268 135.44434542 -154.95613806 134.56126774 -154.95898724 133.65143013 C-154.77626121 132.60194097 -154.77626121 132.60194097 -154.58984375 131.53125 C-150.01718944 128.48281379 -145.46769771 129.20237407 -140.08984375 129.21875 C-138.50236328 129.19458008 -138.50236328 129.19458008 -136.8828125 129.16992188 C-135.86832031 129.16927734 -134.85382813 129.16863281 -133.80859375 129.16796875 C-132.87982422 129.16498779 -131.95105469 129.16200684 -130.99414062 129.15893555 C-128.15537818 129.59852863 -127.31984742 130.28914612 -125.58984375 132.53125 C-124.37483217 134.96127317 -124.46668164 136.49784025 -124.46958923 139.21353149 C-124.46752724 140.69433952 -124.46752724 140.69433952 -124.46542358 142.20506287 C-124.46901886 143.29190872 -124.47261414 144.37875458 -124.47631836 145.49853516 C-124.47617233 146.63999496 -124.47602631 147.78145477 -124.47587585 148.95750427 C-124.47657469 152.74512609 -124.48436577 156.53269923 -124.4921875 160.3203125 C-124.49405178 162.94062269 -124.49547564 165.56093323 -124.49647522 168.1812439 C-124.49958623 174.38252161 -124.50779653 180.58378174 -124.51782471 186.7850517 C-124.52899297 193.84421163 -124.5344981 200.90337239 -124.53952014 207.96253896 C-124.54997932 222.48545194 -124.56777521 237.00835014 -124.58984375 251.53125 C-119.63984375 251.53125 -114.68984375 251.53125 -109.58984375 251.53125 C-109.60094681 249.6085881 -109.61204987 247.68592621 -109.62348938 245.70500183 C-109.7246782 227.61984424 -109.80001953 209.53474369 -109.84890461 191.44936657 C-109.87470636 182.15061781 -109.90989434 172.8520801 -109.96704102 163.5534668 C-110.01681588 155.45050666 -110.04912042 147.34769934 -110.06028622 139.24459058 C-110.06681509 134.95240544 -110.08220007 130.66065754 -110.11849403 126.36861229 C-110.15236042 122.33104332 -110.16291593 118.29409285 -110.15538216 114.25639534 C-110.15676093 112.77245602 -110.16674971 111.28849663 -110.18587112 109.80467987 C-110.21065505 107.78275408 -110.20180804 105.76049851 -110.19111633 103.7384491 C-110.19802978 102.03912373 -110.19802978 102.03912373 -110.20508289 100.30546856 C-109.58984375 97.53125 -109.58984375 97.53125 -107.25589275 95.66855335 C-102.26730181 93.54048249 -96.96138815 94.05173088 -91.61499023 94.08520508 C-89.52944036 94.09374142 -87.44660962 94.06488388 -85.36132812 94.03320312 C-83.38422852 94.03416992 -83.38422852 94.03416992 -81.3671875 94.03515625 C-80.16312256 94.03330322 -78.95905762 94.0314502 -77.71850586 94.02954102 C-73.88677086 94.64399403 -72.94541161 95.49872743 -70.58984375 98.53125 C-70.09765244 101.41289902 -70.09765244 101.41289902 -70.10882568 104.82073975 C-70.1005777 106.76003609 -70.1005777 106.76003609 -70.09216309 108.73851013 C-70.10631886 110.16910162 -70.12085809 111.59968935 -70.13574219 113.03027344 C-70.1368706 114.53823313 -70.13623692 116.04619503 -70.13397217 117.55415344 C-70.13282384 121.64695365 -70.15635203 125.73928557 -70.184268 129.83197689 C-70.20926203 134.10941638 -70.21162207 138.38686643 -70.21636963 142.66436768 C-70.2288053 150.7639698 -70.26163486 158.86335613 -70.30176759 166.96286321 C-70.34646694 176.18403178 -70.36846771 185.40521062 -70.38854933 194.62646055 C-70.43036702 213.59484946 -70.50153562 232.56302448 -70.58984375 251.53125 C-65.63984375 251.53125 -60.68984375 251.53125 -55.58984375 251.53125 C-55.59260913 249.94289479 -55.59260913 249.94289479 -55.59543037 248.32245159 C-55.63978338 222.58480689 -55.67267334 196.84716712 -55.69346809 171.1094923 C-55.70379096 158.66306896 -55.71787055 146.21667083 -55.74072266 133.77026367 C-55.76062565 122.9249437 -55.77355283 112.07964198 -55.77802074 101.23430425 C-55.78063337 95.48911328 -55.78679508 89.74397454 -55.80130386 83.99880028 C-55.81483897 78.59560412 -55.81907467 73.1924819 -55.81605911 67.7892704 C-55.8166111 65.80224328 -55.8206127 63.81521379 -55.8282547 61.82820129 C-55.83815227 59.12289892 -55.83583169 56.4178786 -55.83035278 53.71257019 C-55.83909131 52.52337495 -55.83909131 52.52337495 -55.84800637 51.31015557 C-55.82708437 47.50859878 -55.75169656 45.77402922 -53.58984375 42.53125 C-49.28512345 40.96073166 -44.61298135 41.30853891 -40.08984375 41.28125 C-39.23519531 41.260625 -38.38054687 41.24 -37.5 41.21875 C-36.67371094 41.21359375 -35.84742188 41.2084375 -34.99609375 41.203125 C-33.87170898 41.18910645 -33.87170898 41.18910645 -32.72460938 41.17480469 C-29.78409477 41.66578723 -28.66317434 42.3543025 -26.58984375 44.53125 C-26.19808122 47.39823439 -26.06687778 49.88225401 -26.10882568 52.75053406 C-26.10540798 53.59839267 -26.10199028 54.44625128 -26.09846902 55.31980258 C-26.09186075 58.17146805 -26.11391455 61.02220001 -26.13574219 63.8737793 C-26.13687003 65.91360451 -26.13623804 67.95343135 -26.13397217 69.99325562 C-26.13282163 75.54056309 -26.15638608 81.08752661 -26.184268 86.63475394 C-26.20922497 92.42834477 -26.21161914 98.22194294 -26.21636963 104.01557922 C-26.22881619 114.99096387 -26.26166058 125.96618968 -26.30176759 136.9415043 C-26.34643301 149.43466324 -26.36845918 161.92782965 -26.38854933 174.42104852 C-26.43039171 200.12454015 -26.50157946 225.8278795 -26.58984375 251.53125 C-21.30984375 251.53125 -16.02984375 251.53125 -10.58984375 251.53125 C-10.59260913 250.26196529 -10.59537451 248.99268059 -10.59822369 247.68493271 C-10.66316795 217.56879693 -10.71265061 187.45267918 -10.74303974 157.33649056 C-10.74679195 153.63139072 -10.75067491 149.92629103 -10.75463867 146.22119141 C-10.7554256 145.4835588 -10.75621253 144.74592619 -10.75702331 143.98594108 C-10.77008466 132.03524624 -10.7937425 120.0845946 -10.82130214 108.13392541 C-10.84933609 95.87553427 -10.86601574 83.61716579 -10.87210923 71.35874391 C-10.87622986 63.79189004 -10.88925421 56.22515827 -10.91359315 48.65834197 C-10.93129455 42.86048808 -10.93321446 37.06271279 -10.92916679 31.26483727 C-10.92999454 28.88315007 -10.93599374 26.5014584 -10.94746017 24.11979866 C-10.9623153 20.87614107 -10.95882268 17.63301227 -10.9506073 14.38934326 C-10.95934582 13.4399304 -10.96808435 12.49051754 -10.97708768 11.51233459 C-10.93373239 5.20943656 -10.93373239 5.20943656 -9.27968311 1.9474678 C-6.52276226 -0.36304791 -3.4303948 -0.03881034 0 0 Z " fill="#14D049" transform="translate(353.58984375,133.46875)"/>
<path d="M0 0 C0.446445 8.75082864 -0.93847505 17.14981933 -2.37109375 25.74609375 C-2.61594012 27.24909053 -2.86015622 28.75219011 -3.10377502 30.25538635 C-3.61264096 33.38517756 -4.12660512 36.51406996 -4.64477539 39.64233398 C-5.30879892 43.65154228 -5.96365023 47.66217853 -6.6152029 51.67343044 C-7.23893888 55.51068089 -7.86741736 59.34715022 -8.49609375 63.18359375 C-8.61523069 63.91340391 -8.73436764 64.64321407 -8.85711479 65.39513969 C-9.19434585 67.4558473 -9.53497514 69.51596268 -9.87670898 71.57592773 C-10.06990219 72.74711655 -10.2630954 73.91830536 -10.46214294 75.12498474 C-11 78 -11 78 -12 81 C-15.06382739 80.67567593 -15.98970965 80.01098513 -18.140625 77.71484375 C-18.83671875 76.79832031 -19.5328125 75.88179688 -20.25 74.9375 C-20.95640625 74.01839844 -21.6628125 73.09929687 -22.390625 72.15234375 C-22.92171875 71.44207031 -23.4528125 70.73179688 -24 70 C-26.39536824 73.05507621 -28.48087473 76.26139841 -30.56396484 79.53149414 C-40.07058658 94.45381489 -50.22990732 108.63909805 -61.54394531 122.24414062 C-63.57048769 124.6879523 -65.56434207 127.15796025 -67.5625 129.625 C-72.45229505 135.5974065 -77.4770471 141.45484403 -82.53271484 147.28710938 C-83.57730394 148.50654983 -84.60741923 149.73845266 -85.62744141 150.97851562 C-86.15901855 151.61982422 -86.6905957 152.26113281 -87.23828125 152.921875 C-87.71950439 153.5106543 -88.20072754 154.09943359 -88.6965332 154.70605469 C-90 156 -90 156 -92 156 C-92.66 157.32 -93.32 158.64 -94 160 C-94.66 160 -95.32 160 -96 160 C-96.33 160.99 -96.66 161.98 -97 163 C-97.66 163 -98.32 163 -99 163 C-99 163.66 -99 164.32 -99 165 C-99.66 165 -100.32 165 -101 165 C-101.33 165.99 -101.66 166.98 -102 168 C-103.9375 170.1875 -103.9375 170.1875 -106 172 C-106.66 172 -107.32 172 -108 172 C-108 172.66 -108 173.32 -108 174 C-109.57421875 175.55078125 -109.57421875 175.55078125 -111.6875 177.3125 C-112.41582031 177.94027344 -113.14414062 178.56804687 -113.89453125 179.21484375 C-115.54443671 180.61374319 -117.20731374 181.99734613 -118.875 183.375 C-121.41716558 186.51532219 -121.72501896 188.82109773 -122.4140625 192.71484375 C-123.55607532 197.16869376 -126.24411971 200.60740528 -129.8125 203.4375 C-134.42562991 204.62373341 -138.41819945 204.68305024 -142.75 202.8125 C-146.77933072 199.56665026 -149.6010487 196.01290881 -151 191 C-151.57434976 183.87806296 -149.97156122 179.41231749 -146.375 173.1875 C-143.0197022 170.09709413 -139.53964815 169.1200218 -135 169 C-132.65855933 169.63760842 -130.32412182 170.30189783 -128 171 C-124.403768 167.42867266 -120.81097548 163.8539316 -117.22119141 160.27612305 C-116.00205617 159.06198559 -114.78202107 157.84875094 -113.56103516 156.63647461 C-111.7960683 154.88377449 -110.03447093 153.12774494 -108.2734375 151.37109375 C-107.46681168 150.57220985 -107.46681168 150.57220985 -106.64389038 149.75718689 C-103.31266232 146.42644261 -100.24340041 142.97683806 -97.28726196 139.30726624 C-96.65006729 138.66016945 -96.65006729 138.66016945 -96 138 C-95.34 138 -94.68 138 -94 138 C-93.75636719 137.43796875 -93.51273437 136.8759375 -93.26171875 136.296875 C-91.75819064 133.55980215 -89.93300252 131.54204059 -87.8125 129.25 C-86.59820312 127.92162109 -86.59820312 127.92162109 -85.359375 126.56640625 C-84.58078125 125.71949219 -83.8021875 124.87257813 -83 124 C-77.43169222 117.88696646 -72.37690856 111.42472201 -67.39306641 104.83447266 C-65.9528538 102.93791508 -64.49863043 101.05268755 -63.04296875 99.16796875 C-56.55539333 90.71395479 -50.67613927 82.04800123 -45.16699219 72.92822266 C-43.61424592 70.36261805 -42.03790683 67.81186423 -40.46191406 65.26049805 C-38.96961712 62.84339265 -37.48461453 60.4218293 -36 58 C-37.34964844 57.57074219 -37.34964844 57.57074219 -38.7265625 57.1328125 C-41.4267567 56.19837775 -43.84586687 55.18317231 -46.375 53.875 C-47.06335938 53.52179687 -47.75171875 53.16859375 -48.4609375 52.8046875 C-48.96882813 52.53914063 -49.47671875 52.27359375 -50 52 C-49.49863284 47.67121485 -48.24295705 45.76170213 -45.140625 42.75 C-44.35429687 41.9765625 -43.56796875 41.203125 -42.7578125 40.40625 C-41.93023437 39.6121875 -41.10265625 38.818125 -40.25 38 C-39.43789063 37.2059375 -38.62578125 36.411875 -37.7890625 35.59375 C-35.53271153 33.38884677 -33.26679817 31.19414952 -31 29 C-28.18418906 26.24661813 -25.46011164 23.46603933 -22.9375 20.4375 C-20.72842769 17.8365871 -18.55082312 15.27752065 -16 13 C-15.34 13 -14.68 13 -14 13 C-14 12.34 -14 11.68 -14 11 C-12.125 8.875 -12.125 8.875 -10 7 C-9.34 7 -8.68 7 -8 7 C-7.67 6.01 -7.34 5.02 -7 4 C-6.34 4 -5.68 4 -5 4 C-4.67 3.01 -4.34 2.02 -4 1 C-2 -0 -2 -0 0 0 Z " fill="#13A9EC" transform="translate(398,0)"/>
<path d="M0 0 C2.59339581 1.31244727 3.6479153 2.87194013 5.2421875 5.2890625 C5.77457031 6.06894531 6.30695313 6.84882813 6.85546875 7.65234375 C7.9296875 9.9765625 7.9296875 9.9765625 7.96875 11.9609375 C6.36248875 15.07684279 3.74317781 16.85833203 0.9921875 18.9140625 C0.0626123 19.62477905 0.0626123 19.62477905 -0.88574219 20.34985352 C-2.9364416 21.90711921 -5.00088446 23.44428497 -7.0703125 24.9765625 C-7.77494629 25.49992187 -8.47958008 26.02328125 -9.20556641 26.5625 C-32.91653381 44.09845785 -57.76512833 59.95687045 -84.1953125 73.1015625 C-84.8769043 73.44646729 -85.55849609 73.79137207 -86.26074219 74.14672852 C-89.89454863 75.96925281 -93.49270924 77.53081974 -97.3203125 78.9140625 C-100.85621816 80.4074469 -101.85436494 81.95485254 -103.3203125 85.4765625 C-103.75537109 86.6521875 -103.75537109 86.6521875 -104.19921875 87.8515625 C-105.51844499 91.06976462 -107.02050509 92.34999855 -110.0703125 93.9765625 C-114.47526856 95.14306012 -117.94653786 95.32233931 -122.3203125 93.9765625 C-126.57953118 90.87894892 -129.26351882 87.77219643 -130.7421875 82.6484375 C-131.776202 76.07210527 -130.32755444 70.74018865 -127.0703125 64.9765625 C-123.9659087 61.42635659 -120.86202595 60.21026425 -116.1953125 59.6015625 C-113.12832343 59.96960119 -112.03089513 60.45734692 -109.5078125 62.0390625 C-106.38394096 64.22586727 -106.38394096 64.22586727 -103.7265625 63.7734375 C-97.85130678 62.01086078 -92.48086935 58.82788121 -87.0703125 55.9765625 C-86.25788086 55.54907715 -85.44544922 55.1215918 -84.60839844 54.68115234 C-58.15845017 40.68377238 -32.10942899 24.9117941 -9.1953125 5.546875 C-7.865 4.42925781 -7.865 4.42925781 -6.5078125 3.2890625 C-5.74339844 2.62519531 -4.97898437 1.96132813 -4.19140625 1.27734375 C-2.0703125 -0.0234375 -2.0703125 -0.0234375 0 0 Z " fill="#E43138" transform="translate(142.0703125,279.0234375)"/>
<path d="M0 0 C2.51350582 1.11987883 3.33902774 2.30461511 4.78515625 4.62890625 C5.22472656 5.304375 5.66429687 5.97984375 6.1171875 6.67578125 C7.24223489 9.57316357 7.00203621 10.95929318 5.97265625 13.87890625 C4.1953125 16.1171875 4.1953125 16.1171875 2.03515625 18.19140625 C1.32488281 18.88878906 0.61460937 19.58617187 -0.1171875 20.3046875 C-2.02734375 21.87890625 -2.02734375 21.87890625 -4.02734375 21.87890625 C-4.02734375 22.53890625 -4.02734375 23.19890625 -4.02734375 23.87890625 C-5.671875 25.5703125 -5.671875 25.5703125 -7.83984375 27.44140625 C-8.54753906 28.06144531 -9.25523437 28.68148437 -9.984375 29.3203125 C-12.02734375 30.87890625 -12.02734375 30.87890625 -15.02734375 31.87890625 C-15.02734375 32.53890625 -15.02734375 33.19890625 -15.02734375 33.87890625 C-16.62068614 35.31440351 -18.27985457 36.67717952 -19.96484375 38.00390625 C-24.55522722 41.66316543 -28.94701897 45.45357784 -33.25 49.4453125 C-35.02734375 50.87890625 -35.02734375 50.87890625 -37.02734375 50.87890625 C-37.02734375 51.53890625 -37.02734375 52.19890625 -37.02734375 52.87890625 C-38.828125 54.5078125 -38.828125 54.5078125 -41.33984375 56.44140625 C-46.09636289 60.14839641 -50.76676266 63.94149133 -55.41015625 67.7890625 C-57.72123721 69.6344779 -60.07937058 71.2870068 -62.52734375 72.94140625 C-66.03418134 75.50929341 -67.09646782 77.82290474 -68.328125 81.91796875 C-69.81876667 86.0984275 -72.60000918 89.07374316 -76.46484375 91.25390625 C-80.73528089 92.29547628 -83.87521476 92.2315988 -88.08984375 90.94140625 C-92.28489344 87.99594583 -94.29751585 84.67659134 -96.02734375 79.87890625 C-97.03159532 73.65444135 -96.25387458 68.36400866 -93.02734375 62.87890625 C-89.99164001 59.70521598 -87.8663714 58.12750703 -83.65234375 56.87890625 C-80.09138595 56.87890625 -79.23186163 57.17978621 -76.2578125 58.70703125 C-73.21959346 59.89642764 -73.21959346 59.89642764 -70.15234375 59.14648438 C-68.20122198 57.7561514 -66.47031723 56.25928939 -64.71484375 54.62890625 C-64.07256836 54.07420654 -63.43029297 53.51950684 -62.76855469 52.94799805 C-61.46228791 51.8185742 -60.16544016 50.67816125 -58.87841797 49.52685547 C-56.23582869 47.17424697 -53.51407805 44.93385653 -50.77734375 42.69140625 C-49.9265625 41.97597656 -49.07578125 41.26054687 -48.19921875 40.5234375 C-46.02734375 38.87890625 -46.02734375 38.87890625 -43.02734375 37.87890625 C-43.02734375 37.21890625 -43.02734375 36.55890625 -43.02734375 35.87890625 C-41.31401621 34.29356923 -39.53045328 32.7834941 -37.71484375 31.31640625 C-36.72871094 30.51074219 -35.74257812 29.70507812 -34.7265625 28.875 C-32.02734375 26.87890625 -32.02734375 26.87890625 -29.02734375 25.87890625 C-29.02734375 25.21890625 -29.02734375 24.55890625 -29.02734375 23.87890625 C-23.55115327 18.87890625 -23.55115327 18.87890625 -21.02734375 18.87890625 C-20.77855469 18.29496094 -20.52976562 17.71101563 -20.2734375 17.109375 C-18.85238938 14.56574341 -17.2954146 13.08482927 -15.08984375 11.19140625 C-14.40019531 10.58941406 -13.71054688 9.98742187 -13 9.3671875 C-11.02734375 7.87890625 -11.02734375 7.87890625 -8.02734375 6.87890625 C-8.02734375 6.21890625 -8.02734375 5.55890625 -8.02734375 4.87890625 C-2.86016331 -0.17083827 -2.86016331 -0.17083827 0 0 Z " fill="#F6C727" transform="translate(242.02734375,194.12109375)"/>
<path d="M0 0 C0.33 0 0.66 0 1 0 C1 81.84 1 163.68 1 248 C-4.94 248 -10.88 248 -17 248 C-17.0154612 244.11336327 -17.0154612 244.11336327 -17.03123474 240.14820862 C-17.12859164 215.79327058 -17.23141882 191.43836008 -17.33933926 167.08346653 C-17.39469659 154.56078096 -17.44818264 142.03809253 -17.49731445 129.51538086 C-17.54012561 118.60487268 -17.58639573 107.6943857 -17.63687855 96.78391021 C-17.66350429 91.00304223 -17.68835789 85.22217852 -17.70907402 79.44128609 C-17.72860296 74.00690075 -17.75273529 68.57255584 -17.78049088 63.13820648 C-17.78988122 61.13745035 -17.7975493 59.13668532 -17.80341911 57.13591576 C-17.81164675 54.41682401 -17.82591369 51.69783128 -17.84178162 48.97877502 C-17.84275972 48.17626157 -17.84373783 47.37374811 -17.84474558 46.54691607 C-17.54119469 42.97738073 -17.54119469 42.97738073 -19 40 C-20.70772358 39.91286169 -22.41898649 39.89299993 -24.12890625 39.90234375 C-25.16337891 39.90556641 -26.19785156 39.90878906 -27.26367188 39.91210938 C-28.35228516 39.92048828 -29.44089844 39.92886719 -30.5625 39.9375 C-31.65498047 39.94201172 -32.74746094 39.94652344 -33.87304688 39.95117188 C-36.58208495 39.96300174 -39.29101599 39.97948457 -42 40 C-43.58406024 43.16812047 -43.15394104 46.58136003 -43.15821838 50.06106567 C-43.16315636 50.90398631 -43.16809434 51.74690695 -43.17318195 52.61537063 C-43.18860986 55.4559807 -43.19693185 58.29656808 -43.20532227 61.13720703 C-43.21489663 63.16703493 -43.22490645 65.19686081 -43.23532104 67.22668457 C-43.262424 72.7511705 -43.28340432 78.27566503 -43.30332303 83.80018091 C-43.32514941 89.56845329 -43.35255444 95.33669904 -43.37937927 101.10494995 C-43.42935154 112.0342363 -43.47427351 122.9635374 -43.51740164 133.89285266 C-43.56673532 146.33282506 -43.62166776 158.77277073 -43.67708123 171.21271729 C-43.79097087 196.80845346 -43.89759605 222.40421553 -44 248 C-49.61 248 -55.22 248 -61 248 C-61.0154612 245.13146835 -61.0154612 245.13146835 -61.03123474 242.20498657 C-61.12880005 224.22244487 -61.23145856 206.2399387 -61.33933926 188.25745583 C-61.39467609 179.01149395 -61.44815883 169.76552822 -61.49731445 160.51953125 C-61.54015066 152.46306974 -61.58642722 144.40663669 -61.63687855 136.35021913 C-61.66348404 132.0823006 -61.68833722 127.81438773 -61.70907402 123.54643631 C-61.72862944 119.5328021 -61.7527699 115.51922209 -61.78049088 111.50563622 C-61.78986712 110.0293838 -61.79754034 108.55311947 -61.80341911 107.07684898 C-61.81167044 105.06753581 -61.82653615 103.05825299 -61.84178162 101.04898071 C-61.84823417 99.92254969 -61.85468672 98.79611866 -61.8613348 97.63555336 C-61.82286649 95.02126526 -61.82286649 95.02126526 -63 93 C-67.68139254 92.97534712 -72.36274759 92.95716261 -77.04418945 92.94506836 C-78.63794614 92.94002843 -80.23169819 92.9331965 -81.82543945 92.92456055 C-84.11150253 92.91248001 -86.39750467 92.90676845 -88.68359375 92.90234375 C-89.7586039 92.89460182 -89.7586039 92.89460182 -90.85533142 92.88670349 C-92.57063672 92.88650737 -94.28581266 92.93807993 -96 93 C-97.80607057 94.80607057 -97.14446732 97.57071603 -97.15821838 100.00465393 C-97.1680072 101.31022247 -97.17779602 102.61579102 -97.18788147 103.96092224 C-97.19378645 105.4212948 -97.19959684 106.88166774 -97.20532227 108.34204102 C-97.21489528 109.86926543 -97.22490501 111.39648716 -97.23532104 112.92370605 C-97.2624387 117.08258801 -97.28341098 121.2414814 -97.30332303 125.40040326 C-97.32514042 129.74196806 -97.35254982 134.08349737 -97.37937927 138.42503357 C-97.42936377 146.65211008 -97.47428116 154.87920624 -97.51740164 163.10632128 C-97.56672492 172.47015585 -97.62166119 181.83395481 -97.67708123 191.19775498 C-97.79098962 210.46513716 -97.89761016 229.73255341 -98 249 C-103.94 249 -109.88 249 -116 249 C-116.33 208.74 -116.66 168.48 -117 127 C-129.375 127.495 -129.375 127.495 -142 128 C-142.33 167.93 -142.66 207.86 -143 249 C-149.27 249 -155.54 249 -162 249 C-162.33 222.27 -162.66 195.54 -163 168 C-162.34 168.33 -161.68 168.66 -161 169 C-161 194.74 -161 220.48 -161 247 C-155.39 247 -149.78 247 -144 247 C-144.00666183 245.50107208 -144.01332367 244.00214417 -144.02018738 242.45779419 C-144.08089321 228.36036357 -144.12610189 214.26297897 -144.15543652 200.16545296 C-144.17091944 192.91705204 -144.192036 185.66874855 -144.22631836 178.42041016 C-144.25617731 172.10431666 -144.27556463 165.78829372 -144.28226548 159.47213161 C-144.28618375 156.12632256 -144.29542132 152.78071535 -144.31719017 149.43497086 C-144.33883598 145.70408196 -144.34197228 141.97361694 -144.34057617 138.24267578 C-144.351362 137.12777771 -144.36214783 136.01287964 -144.3732605 134.86419678 C-144.36913651 133.85174896 -144.36501251 132.83930115 -144.36076355 131.7961731 C-144.36352893 130.91309542 -144.36629431 130.03001774 -144.36914349 129.12018013 C-144.24732614 128.42052069 -144.12550879 127.72086124 -144 127 C-139.42734569 123.95156379 -134.87785396 124.67112407 -129.5 124.6875 C-127.91251953 124.66333008 -127.91251953 124.66333008 -126.29296875 124.63867188 C-125.27847656 124.63802734 -124.26398438 124.63738281 -123.21875 124.63671875 C-122.28998047 124.63373779 -121.36121094 124.63075684 -120.40429688 124.62768555 C-117.56553443 125.06727863 -116.73000367 125.75789612 -115 128 C-113.78498842 130.43002317 -113.87683789 131.96659025 -113.87974548 134.68228149 C-113.87837082 135.66948685 -113.87699615 136.6566922 -113.87557983 137.67381287 C-113.88097275 139.30408165 -113.88097275 139.30408165 -113.88647461 140.96728516 C-113.88632858 142.10874496 -113.88618256 143.25020477 -113.8860321 144.42625427 C-113.88673094 148.21387609 -113.89452202 152.00144923 -113.90234375 155.7890625 C-113.90420803 158.40937269 -113.90563189 161.02968323 -113.90663147 163.6499939 C-113.90974248 169.85127161 -113.91795278 176.05253174 -113.92798096 182.2538017 C-113.93914922 189.31296163 -113.94465435 196.37212239 -113.94967639 203.43128896 C-113.96013557 217.95420194 -113.97793146 232.47710014 -114 247 C-109.05 247 -104.1 247 -99 247 C-99.01665459 244.11600716 -99.01665459 244.11600716 -99.03364563 241.17375183 C-99.13483445 223.08859424 -99.21017578 205.00349369 -99.25906086 186.91811657 C-99.28486261 177.61936781 -99.32005059 168.3208301 -99.37719727 159.0222168 C-99.42697213 150.91925666 -99.45927667 142.81644934 -99.47044247 134.71334058 C-99.47697134 130.42115544 -99.49235632 126.12940754 -99.52865028 121.83736229 C-99.56251667 117.79979332 -99.57307218 113.76284285 -99.56553841 109.72514534 C-99.56691718 108.24120602 -99.57690596 106.75724663 -99.59602737 105.27342987 C-99.6208113 103.25150408 -99.61196429 101.22924851 -99.60127258 99.2071991 C-99.60588155 98.07431552 -99.61049051 96.94143194 -99.61523914 95.77421856 C-99 93 -99 93 -96.666049 91.13730335 C-91.67745806 89.00923249 -86.3715444 89.52048088 -81.02514648 89.55395508 C-78.93959661 89.56249142 -76.85676587 89.53363388 -74.77148438 89.50195312 C-72.79438477 89.50291992 -72.79438477 89.50291992 -70.77734375 89.50390625 C-69.57327881 89.50205322 -68.36921387 89.5002002 -67.12866211 89.49829102 C-63.29692711 90.11274403 -62.35556786 90.96747743 -60 94 C-59.50780869 96.88164902 -59.50780869 96.88164902 -59.51898193 100.28948975 C-59.51348328 101.58235397 -59.50798462 102.8752182 -59.50231934 104.20726013 C-59.51647511 105.63785162 -59.53101434 107.06843935 -59.54589844 108.49902344 C-59.54702685 110.00698313 -59.54639317 111.51494503 -59.54412842 113.02290344 C-59.54298009 117.11570365 -59.56650828 121.20803557 -59.59442425 125.30072689 C-59.61941828 129.57816638 -59.62177832 133.85561643 -59.62652588 138.13311768 C-59.63896155 146.2327198 -59.67179111 154.33210613 -59.71192384 162.43161321 C-59.75662319 171.65278178 -59.77862396 180.87396062 -59.79870558 190.09521055 C-59.84052327 209.06359946 -59.91169187 228.03177448 -60 247 C-55.05 247 -50.1 247 -45 247 C-45.00184359 245.94109653 -45.00368717 244.88219305 -45.00558662 243.79120159 C-45.04993963 218.05355689 -45.08282959 192.31591712 -45.10362434 166.5782423 C-45.11394721 154.13181896 -45.1280268 141.68542083 -45.15087891 129.23901367 C-45.1707819 118.3936937 -45.18370908 107.54839198 -45.18817699 96.70305425 C-45.19078962 90.95786328 -45.19695133 85.21272454 -45.21146011 79.46755028 C-45.22499522 74.06435412 -45.22923092 68.6612319 -45.22621536 63.2580204 C-45.22676735 61.27099328 -45.23076895 59.28396379 -45.23841095 57.29695129 C-45.24830852 54.59164892 -45.24598794 51.8866286 -45.24050903 49.18132019 C-45.24924756 47.99212495 -45.24924756 47.99212495 -45.25816262 46.77890557 C-45.23724062 42.97734878 -45.16185281 41.24277922 -43 38 C-38.6952797 36.42948166 -34.0231376 36.77728891 -29.5 36.75 C-28.64535156 36.729375 -27.79070312 36.70875 -26.91015625 36.6875 C-26.08386719 36.68234375 -25.25757813 36.6771875 -24.40625 36.671875 C-23.28186523 36.65785645 -23.28186523 36.65785645 -22.13476562 36.64355469 C-19.19425102 37.13453723 -18.07333059 37.8230525 -16 40 C-15.60823747 42.86698439 -15.47703403 45.35100401 -15.51898193 48.21928406 C-15.51556423 49.06714267 -15.51214653 49.91500128 -15.50862527 50.78855258 C-15.502017 53.64021805 -15.5240708 56.49095001 -15.54589844 59.3425293 C-15.54702628 61.38235451 -15.54639429 63.42218135 -15.54412842 65.46200562 C-15.54297788 71.00931309 -15.56654233 76.55627661 -15.59442425 82.10350394 C-15.61938122 87.89709477 -15.62177539 93.69069294 -15.62652588 99.48432922 C-15.63897244 110.45971387 -15.67181683 121.43493968 -15.71192384 132.4102543 C-15.75658926 144.90341324 -15.77861543 157.39657965 -15.79870558 169.88979852 C-15.84054796 195.59329015 -15.91173571 221.2966295 -16 247 C-10.72 247 -5.44 247 0 247 C0 165.49 0 83.98 0 0 Z " fill="#A8CBB8" transform="translate(343,138)"/>
<path d="M0 0 C1.42179565 0.03927612 1.42179565 0.03927612 2.87231445 0.0793457 C4.41435547 0.10351562 4.41435547 0.10351562 5.98754883 0.12817383 C7.0594043 0.17006836 8.13125977 0.21196289 9.2355957 0.25512695 C10.31905273 0.27768555 11.40250977 0.30024414 12.51879883 0.32348633 C15.19661475 0.38246906 17.87166597 0.46472388 20.5480957 0.56762695 C20.5480957 0.89762695 20.5480957 1.22762695 20.5480957 1.56762695 C19.39051758 1.62821289 18.23293945 1.68879883 17.0402832 1.7512207 C15.50121114 1.83568198 13.96214915 1.92032713 12.4230957 2.00512695 C11.66254883 2.04444336 10.90200195 2.08375977 10.1184082 2.12426758 C8.99692383 2.18710937 8.99692383 2.18710937 7.8527832 2.2512207 C7.17199707 2.28787842 6.49121094 2.32453613 5.78979492 2.36230469 C3.02491147 2.61554657 0.28677575 3.11118028 -2.4519043 3.56762695 C-2.7819043 18.41762695 -3.1119043 33.26762695 -3.4519043 48.56762695 C-9.7219043 48.56762695 -15.9919043 48.56762695 -22.4519043 48.56762695 C-22.8894043 39.13012695 -22.8894043 39.13012695 -23.02001953 36.15185547 C-23.05812744 35.38284912 -23.09623535 34.61384277 -23.13549805 33.8215332 C-23.17215576 33.03077393 -23.20881348 32.24001465 -23.24658203 31.42529297 C-23.25753686 29.55361255 -23.25753686 29.55361255 -24.4519043 28.56762695 C-26.14749155 28.46830542 -27.84716177 28.43682689 -29.5456543 28.43481445 C-30.57561523 28.43352539 -31.60557617 28.43223633 -32.66674805 28.4309082 C-33.75084961 28.43477539 -34.83495117 28.43864258 -35.9519043 28.44262695 C-37.57805664 28.43682617 -37.57805664 28.43682617 -39.23706055 28.4309082 C-40.26702148 28.43219727 -41.29698242 28.43348633 -42.3581543 28.43481445 C-43.78611328 28.43650635 -43.78611328 28.43650635 -45.24291992 28.43823242 C-47.42642568 28.32063239 -47.42642568 28.32063239 -48.4519043 29.56762695 C-48.7819043 35.83762695 -49.1119043 42.10762695 -49.4519043 48.56762695 C-68.9219043 48.56762695 -88.3919043 48.56762695 -108.4519043 48.56762695 C-108.7819043 47.90762695 -109.1119043 47.24762695 -109.4519043 46.56762695 C-90.3119043 46.56762695 -71.1719043 46.56762695 -51.4519043 46.56762695 C-51.4519043 41.28762695 -51.4519043 36.00762695 -51.4519043 30.56762695 C-48.4519043 26.56762695 -48.4519043 26.56762695 -45.84814453 26.08178711 C-44.82922119 26.09000488 -43.81029785 26.09822266 -42.76049805 26.10668945 C-41.65125977 26.11055664 -40.54202148 26.11442383 -39.39916992 26.1184082 C-38.24094727 26.14290039 -37.08272461 26.16739258 -35.8894043 26.19262695 C-34.14626953 26.19456055 -34.14626953 26.19456055 -32.36791992 26.1965332 C-23.73257559 26.28695566 -23.73257559 26.28695566 -21.4519043 28.56762695 C-21.22485352 30.44702148 -21.22485352 30.44702148 -21.2565918 32.70043945 C-21.26303711 33.50610352 -21.26948242 34.31176758 -21.27612305 35.1418457 C-21.30125977 36.40448242 -21.30125977 36.40448242 -21.3269043 37.69262695 C-21.33592773 38.54211914 -21.34495117 39.39161133 -21.35424805 40.2668457 C-21.37784782 42.36722579 -21.41371947 44.46746139 -21.4519043 46.56762695 C-16.1719043 46.56762695 -10.8919043 46.56762695 -5.4519043 46.56762695 C-5.46761475 45.35179932 -5.4833252 44.13597168 -5.49951172 42.88330078 C-5.5538923 38.36399992 -5.58828402 33.84472789 -5.61669922 29.32519531 C-5.6317673 27.37071872 -5.65222554 25.41627584 -5.67822266 23.46191406 C-5.71469295 20.64941072 -5.73165052 17.83735522 -5.74487305 15.0246582 C-5.7603569 14.15363968 -5.77584076 13.28262115 -5.79179382 12.38520813 C-5.79484379 1.34153259 -5.79484379 1.34153259 0 0 Z " fill="#B0D5C1" transform="translate(110.451904296875,338.432373046875)"/>
<path d="M0 0 C0 7.34090518 -0.61417059 14.6692412 -1 22 C-20.47 22 -39.94 22 -60 22 C-60.33 21.34 -60.66 20.68 -61 20 C-41.86 20 -22.72 20 -3 20 C-3 14.72 -3 9.44 -3 4 C-2.01 2.68 -1.02 1.36 0 0 Z " fill="#83BA94" transform="translate(62,365)"/>
<path d="M0 0 C0.66 0.33 1.32 0.66 2 1 C-0.89042395 5.09476726 -4.13637084 7.73671172 -8.1953125 10.5703125 C-10.25817474 12.05387157 -10.25817474 12.05387157 -12 15 C-13.66509886 16.00260837 -15.33210307 17.0020533 -17 18 C-19.33799394 19.86076431 -21.57060165 21.83768262 -23.8125 23.8125 C-28.73472267 28.09572444 -33.70051211 32.18436872 -39 36 C-39.66 35.67 -40.32 35.34 -41 35 C-38.95857689 33.27054511 -36.91686798 31.54142952 -34.875 29.8125 C-34.30523437 29.32974609 -33.73546875 28.84699219 -33.1484375 28.34960938 C-32.00237726 27.37936519 -30.85491337 26.41077659 -29.70605469 25.44384766 C-28.56439471 24.47765174 -27.4296244 23.50325828 -26.30175781 22.52099609 C-22.21566358 19 -22.21566358 19 -20 19 C-20 18.34 -20 17.68 -20 17 C-18.28667246 15.41466298 -16.50310953 13.90458785 -14.6875 12.4375 C-13.70136719 11.63183594 -12.71523437 10.82617188 -11.69921875 9.99609375 C-9 8 -9 8 -6 7 C-6 6.34 -6 5.68 -6 5 C-4.04072937 3.2856382 -2.04119788 1.61594832 0 0 Z " fill="#BFBB9E" transform="translate(219,213)"/>
<path d="M0 0 C0.46828953 8.7283966 -0.98418206 17.06927591 -2.5 25.625 C-2.74164731 27.02460825 -2.98253828 28.42434731 -3.22265625 29.82421875 C-3.80640314 33.21769639 -4.40032703 36.60929591 -5 40 C-5.33 40 -5.66 40 -6 40 C-5.51208183 27.50929475 -3.16167214 15.28652982 -1 3 C-2.27609323 3.90933009 -3.54565553 4.82782853 -4.8125 5.75 C-5.52019531 6.26046875 -6.22789062 6.7709375 -6.95703125 7.296875 C-9.08699111 8.93706027 -9.08699111 8.93706027 -10.63671875 11.203125 C-11.08660156 11.79609375 -11.53648437 12.3890625 -12 13 C-12.66 13 -13.32 13 -14 13 C-14 11 -14 11 -12.125 8.875 C-10 7 -10 7 -8 7 C-7.67 6.01 -7.34 5.02 -7 4 C-6.34 4 -5.68 4 -5 4 C-4.67 3.01 -4.34 2.02 -4 1 C-2 0 -2 0 0 0 Z " fill="#8EB9CB" transform="translate(398,0)"/>
<path d="M0 0 C2 0.0625 2 0.0625 4 1 C5.25 3.5625 5.25 3.5625 6 6 C5.01 5.34 4.02 4.68 3 4 C-1.64260065 4.21031916 -4.22674375 6.45099525 -7.75 9.3125 C-13.14015646 13.61345386 -18.66518745 17.66773749 -24.3125 21.625 C-25.07208008 22.15778564 -25.83166016 22.69057129 -26.61425781 23.23950195 C-28.40791855 24.49527064 -30.20371941 25.74798168 -32 27 C-32.66 26.67 -33.32 26.34 -34 26 C-32.37388021 24.78041016 -30.74775091 23.56083298 -29.12158203 22.34130859 C-27.69531932 21.27152949 -26.26921509 20.20153906 -24.84326172 19.13134766 C-21.04760636 16.28314915 -17.24935151 13.43855657 -13.4453125 10.6015625 C-12.35863281 9.78993652 -12.35863281 9.78993652 -11.25 8.96191406 C-9.85252638 7.9183044 -8.45411448 6.87594978 -7.0546875 5.83496094 C-4.57787542 3.98364459 -2.18979365 2.18979365 0 0 Z " fill="#BAA1A5" transform="translate(140,279)"/>
<path d="M0 0 C0.66 0.33 1.32 0.66 2 1 C1.75440395 4.22251791 0.89059132 5.10129181 -1.52734375 7.33984375 C-2.65549524 8.21686215 -3.79295347 9.08198828 -4.9375 9.9375 C-5.54416504 10.40260986 -6.15083008 10.86771973 -6.77587891 11.34692383 C-14.72696474 17.39648964 -22.86336611 23.20379426 -31 29 C-31.66 28.67 -32.32 28.34 -33 28 C-32.55309814 27.65855957 -32.10619629 27.31711914 -31.64575195 26.96533203 C-31.01628662 26.48435059 -30.38682129 26.00336914 -29.73828125 25.5078125 C-28.68664795 24.7044043 -28.68664795 24.7044043 -27.61376953 23.88476562 C-26.07088986 22.70493572 -24.52890676 21.52393247 -22.98779297 20.34179688 C-19.36898423 17.56700106 -15.74553463 14.8015414 -12.08203125 12.0859375 C-11.49446045 11.64620605 -10.90688965 11.20647461 -10.30151367 10.75341797 C-8.71816067 9.56965005 -7.1287912 8.39394185 -5.5390625 7.21875 C-2.98869019 4.99011697 -1.54774744 2.99020594 0 0 Z " fill="#C2AAAD" transform="translate(148,288)"/>
<path d="M0 0 C0.33 0.99 0.66 1.98 1 3 C-0.22827148 5.36914062 -0.22827148 5.36914062 -2.12109375 8.15625 C-3.15459961 9.69152344 -3.15459961 9.69152344 -4.20898438 11.2578125 C-4.94439453 12.32773438 -5.67980469 13.39765625 -6.4375 14.5 C-7.13810547 15.53898437 -7.83871094 16.57796875 -8.56054688 17.6484375 C-22.02052393 37.51026196 -22.02052393 37.51026196 -25 39 C-23.67990292 35.31283229 -22.07038644 32.53474211 -19.6875 29.4375 C-13.82133169 21.56192596 -8.5992572 13.26053104 -3.29345703 5.00195312 C-2.21010887 3.32519682 -1.10733984 1.66100976 0 0 Z " fill="#99B9C8" transform="translate(360,62)"/>
<path d="M0 0 C0 0.66 0 1.32 0 2 C-1.96875 3.5078125 -1.96875 3.5078125 -4.5 5.125 C-5.3353125 5.66382813 -6.170625 6.20265625 -7.03125 6.7578125 C-7.6809375 7.16773438 -8.330625 7.57765625 -9 8 C-10.0209375 7.2575 -10.0209375 7.2575 -11.0625 6.5 C-14.86295554 4.55934185 -16.77131446 4.28327364 -21 5 C-23.94014926 7.07357895 -26.48215483 9.43637583 -29 12 C-29.33 11.01 -29.66 10.02 -30 9 C-26.7200064 5.73994557 -24.03781932 3.32078052 -19.5625 1.9375 C-15.05234924 2.01662545 -12.11842241 3.19367438 -8 5 C-6.576875 3.7625 -6.576875 3.7625 -5.125 2.5 C-2.25 0 -2.25 0 0 0 Z " fill="#C8C5AE" transform="translate(178,249)"/>
<path d="M0 0 C0 0.66 0 1.32 0 2 C-1.80078125 3.62890625 -1.80078125 3.62890625 -4.3125 5.5625 C-8.12675384 8.5351363 -11.89755725 11.54399487 -15.625 14.625 C-19.47400339 17.79155598 -23.37950307 20.82284834 -27.44140625 23.7109375 C-29.27607818 25.10250432 -29.27607818 25.10250432 -31 28 C-30.92005961 25.28202683 -30.48651346 23.52648199 -28.62109375 21.5078125 C-25.15333693 18.51328424 -21.4751314 15.83051803 -17.67578125 13.2734375 C-15.59062391 11.68891234 -13.84990753 9.85332696 -12 8 C-10.31200649 6.55915819 -8.60294811 5.1426746 -6.875 3.75 C-6.00617188 3.04359375 -5.13734375 2.3371875 -4.2421875 1.609375 C-2 0 -2 0 0 0 Z " fill="#B5B39C" transform="translate(205,245)"/>
<path d="M0 0 C0.66 0.33 1.32 0.66 2 1 C-4.6375489 9.36398207 -11.69264895 17.22280235 -19 25 C-19 21.53205412 -18.66959706 21.28935887 -16.3671875 18.92578125 C-15.8105542 18.34393066 -15.2539209 17.76208008 -14.68041992 17.16259766 C-14.08463135 16.55206543 -13.48884277 15.9415332 -12.875 15.3125 C-8.20688386 10.42257409 -3.88515431 5.55022044 0 0 Z " fill="#97BACB" transform="translate(328,129)"/>
<path d="M0 0 C0.66 0.33 1.32 0.66 2 1 C-0.06057175 2.91877545 -2.12337063 4.83505798 -4.1875 6.75 C-4.76564453 7.28882813 -5.34378906 7.82765625 -5.93945312 8.3828125 C-15.23971037 17 -15.23971037 17 -18 17 C-16.86280581 13.58841744 -15.95657056 12.88145399 -13 11 C-12.34 11 -11.68 11 -11 11 C-11 10.34 -11 9.68 -11 9 C-9.5390625 7.4921875 -9.5390625 7.4921875 -7.625 5.875 C-6.68527344 5.06675781 -6.68527344 5.06675781 -5.7265625 4.2421875 C-4 3 -4 3 -2 3 C-2 2.34 -2 1.68 -2 1 C-1.34 0.67 -0.68 0.34 0 0 Z " fill="#C2BD9E" transform="translate(223,228)"/>
<path d="M0 0 C0 0.99 0 1.98 0 3 C-1.37695312 4.3503418 -1.37695312 4.3503418 -3.28125 5.69921875 C-3.95800781 6.18583984 -4.63476562 6.67246094 -5.33203125 7.17382812 C-6.04746094 7.67333984 -6.76289062 8.17285156 -7.5 8.6875 C-8.21542969 9.19861328 -8.93085937 9.70972656 -9.66796875 10.23632812 C-11.43924023 11.49983511 -13.21653709 12.75378948 -15 14 C-15.66 13.67 -16.32 13.34 -17 13 C-11.39 8.71 -5.78 4.42 0 0 Z " fill="#C0A0A3" transform="translate(132,303)"/>
<path d="M0 0 C0 0.66 0 1.32 0 2 C-2.01171875 3.91015625 -2.01171875 3.91015625 -4.6875 6.0625 C-5.55761719 6.77535156 -6.42773438 7.48820313 -7.32421875 8.22265625 C-10.00545566 10.00362383 -11.83603715 10.62944579 -15 11 C-14.34 10.484375 -13.68 9.96875 -13 9.4375 C-9.82346429 6.85656474 -6.79578443 4.14492043 -3.76953125 1.390625 C-2 0 -2 0 0 0 Z " fill="#C0BC9D" transform="translate(205,245)"/>
<path d="M0 0 C1.32 0.33 2.64 0.66 4 1 C0.04 4.465 0.04 4.465 -4 8 C-4.33 7.01 -4.66 6.02 -5 5 C-2.75 2.4375 -2.75 2.4375 0 0 Z " fill="#CFB966" transform="translate(153,253)"/>
<path d="M0 0 C0.33 0.66 0.66 1.32 1 2 C0.34 2 -0.32 2 -1 2 C-1.33 2.99 -1.66 3.98 -2 5 C-3.9375 7.1875 -3.9375 7.1875 -6 9 C-6.66 9 -7.32 9 -8 9 C-8 9.66 -8 10.32 -8 11 C-8.99 11.33 -9.98 11.66 -11 12 C-10.1875 10.0625 -10.1875 10.0625 -9 8 C-8.01 7.67 -7.02 7.34 -6 7 C-5.690625 6.38125 -5.38125 5.7625 -5.0625 5.125 C-3.79701313 2.59402625 -2.32727163 1.55151442 0 0 Z " fill="#9EC4D7" transform="translate(298,163)"/>
<path d="M0 0 C2.53110135 1.57102842 2.95607528 3.34161967 3.8125 6.125 C2.8225 5.465 1.8325 4.805 0.8125 4.125 C-1.70349015 4.46152369 -1.70349015 4.46152369 -4.1875 5.125 C-5.1775 5.125 -6.1675 5.125 -7.1875 5.125 C-2.82946625 0.16168379 -2.82946625 0.16168379 0 0 Z " fill="#B78F95" transform="translate(142.1875,278.875)"/>
<path d="M0 0 C0.66 0.33 1.32 0.66 2 1 C0.73427767 2.15147661 -0.53777906 3.29599314 -1.8125 4.4375 C-2.52019531 5.07558594 -3.22789062 5.71367187 -3.95703125 6.37109375 C-6 8 -6 8 -9 9 C-7.83709195 5.51127585 -6.86032391 4.90023136 -3.9375 2.8125 C-3.20402344 2.28269531 -2.47054687 1.75289063 -1.71484375 1.20703125 C-1.14894531 0.80871094 -0.58304688 0.41039062 0 0 Z " fill="#CAABBB" transform="translate(134,284)"/>
<path d="M0 0 C0.66 0 1.32 0 2 0 C2 0.66 2 1.32 2 2 C1.34 2 0.68 2 0 2 C-0.66 3.32 -1.32 4.64 -2 6 C-2.66 6 -3.32 6 -4 6 C-4.33 6.99 -4.66 7.98 -5 9 C-5.66 9 -6.32 9 -7 9 C-6.1875 7.0625 -6.1875 7.0625 -5 5 C-4.01 4.67 -3.02 4.34 -2 4 C-0.79117904 1.99983534 -0.79117904 1.99983534 0 0 Z " fill="#97BED0" transform="translate(306,154)"/>
<path d="M0 0 C0.33 0.66 0.66 1.32 1 2 C-0.98 4.31 -2.96 6.62 -5 9 C-5.66 8.67 -6.32 8.34 -7 8 C-4.69 5.36 -2.38 2.72 0 0 Z " fill="#A3C6D7" transform="translate(382,13)"/>
<path d="M0 0 C0.66 0.66 1.32 1.32 2 2 C1.01 2.66 0.02 3.32 -1 4 C-0.67 2.68 -0.34 1.36 0 0 Z " fill="#ABAEB0" transform="translate(129,276)"/>
<path d="M0 0 C0.33 0.99 0.66 1.98 1 3 C0.34 3 -0.32 3 -1 3 C-0.67 2.01 -0.34 1.02 0 0 Z " fill="#E1E1E1" transform="translate(143,253)"/>
<path d="" fill="#FFFFFF" transform="translate(0,0)"/>
</svg>
