<?xml version="1.0" encoding="UTF-8"?>
<svg version="1.1" xmlns="http://www.w3.org/2000/svg" width="120" height="90">
<path d="M0 0 C1.093125 0.00257812 2.18625 0.00515625 3.3125 0.0078125 C4.405625 0.00523438 5.49875 0.00265625 6.625 0 C9.3125 0.1328125 9.3125 0.1328125 10.3125 1.1328125 C10.40631302 2.97399279 10.42993954 4.81878891 10.42602539 6.66235352 C10.42590454 7.86009399 10.42578369 9.05783447 10.42565918 10.29187012 C10.42054321 11.56067017 10.41542725 12.82947021 10.41015625 14.13671875 C10.40914917 15.29554565 10.40814209 16.45437256 10.40710449 17.64831543 C10.40185327 21.99732445 10.38789216 26.34631942 10.375 30.6953125 C10.354375 40.4096875 10.33375 50.1240625 10.3125 60.1328125 C-27.9675 60.1328125 -66.2475 60.1328125 -105.6875 60.1328125 C-105.6875 58.8128125 -105.6875 57.4928125 -105.6875 56.1328125 C-100.0775 56.1328125 -94.4675 56.1328125 -88.6875 56.1328125 C-88.3575 54.4828125 -88.0275 52.8328125 -87.6875 51.1328125 C-80.9375 51.0078125 -80.9375 51.0078125 -78.6875 52.1328125 C-78.6875 53.4528125 -78.6875 54.7728125 -78.6875 56.1328125 C-77.3675 56.1328125 -76.0475 56.1328125 -74.6875 56.1328125 C-74.6875 52.8328125 -74.6875 49.5328125 -74.6875 46.1328125 C-71.3875 46.1328125 -68.0875 46.1328125 -64.6875 46.1328125 C-64.6875 49.4328125 -64.6875 52.7328125 -64.6875 56.1328125 C-63.3675 56.1328125 -62.0475 56.1328125 -60.6875 56.1328125 C-60.6875 50.1928125 -60.6875 44.2528125 -60.6875 38.1328125 C-57.3875 38.1328125 -54.0875 38.1328125 -50.6875 38.1328125 C-50.6875 44.0728125 -50.6875 50.0128125 -50.6875 56.1328125 C-49.3675 56.1328125 -48.0475 56.1328125 -46.6875 56.1328125 C-46.6875 47.2228125 -46.6875 38.3128125 -46.6875 29.1328125 C-43.3875 29.1328125 -40.0875 29.1328125 -36.6875 29.1328125 C-36.6875 38.0428125 -36.6875 46.9528125 -36.6875 56.1328125 C-35.3675 56.1328125 -34.0475 56.1328125 -32.6875 56.1328125 C-32.6875 44.5828125 -32.6875 33.0328125 -32.6875 21.1328125 C-28.7275 21.1328125 -24.7675 21.1328125 -20.6875 21.1328125 C-19.18143485 24.14494279 -19.56589669 27.24563872 -19.58984375 30.546875 C-19.5912587 31.27651459 -19.59267365 32.00615417 -19.59413147 32.75790405 C-19.59973469 35.09124835 -19.61228765 37.42449714 -19.625 39.7578125 C-19.63001459 41.33854028 -19.63457757 42.91926957 -19.63867188 44.5 C-19.64970516 48.37764104 -19.66697189 52.25521057 -19.6875 56.1328125 C-18.6975 56.1328125 -17.7075 56.1328125 -16.6875 56.1328125 C-16.6875 40.6228125 -16.6875 25.1128125 -16.6875 9.1328125 C-13.7175 9.1328125 -10.7475 9.1328125 -7.6875 9.1328125 C-6.6875 10.1328125 -6.6875 10.1328125 -6.56724548 11.99940491 C-6.56946609 12.81436935 -6.57168671 13.6293338 -6.57397461 14.46899414 C-6.57408791 15.85031273 -6.57408791 15.85031273 -6.57420349 17.25953674 C-6.57936478 18.26056931 -6.58452606 19.26160187 -6.58984375 20.29296875 C-6.5912587 21.31257187 -6.59267365 22.33217499 -6.59413147 23.38267517 C-6.59974903 26.65358357 -6.6123045 29.92442463 -6.625 33.1953125 C-6.63001274 35.40690006 -6.63457604 37.61848868 -6.63867188 39.83007812 C-6.64972416 45.26434607 -6.66647937 50.69857447 -6.6875 56.1328125 C-5.6975 56.1328125 -4.7075 56.1328125 -3.6875 56.1328125 C-3.68972061 55.44598892 -3.69194122 54.75916534 -3.69422913 54.05152893 C-3.71627895 46.93076088 -3.73140533 39.81000246 -3.74243164 32.68920898 C-3.74747383 30.02839769 -3.75430736 27.36758918 -3.76293945 24.70678711 C-3.77501009 20.89175734 -3.78072929 17.07676406 -3.78515625 13.26171875 C-3.79031754 12.06382217 -3.79547882 10.8659256 -3.80079651 9.63172913 C-3.80087204 8.5306633 -3.80094757 7.42959747 -3.80102539 6.29516602 C-3.803246 5.32031754 -3.80546661 4.34546906 -3.80775452 3.34107971 C-3.62976601 0.07262712 -3.30153875 0.16315744 0 0 Z " fill="#22CC52" transform="translate(105.6875,29.8671875)"/>
<path d="M0 0 C-0.58490879 6.14154225 -1.54066252 12.00679849 -3 18 C-7 18 -7 18 -9 17 C-9.23203125 17.55558594 -9.4640625 18.11117188 -9.703125 18.68359375 C-14.39092884 27.05668917 -23.68973124 33.57806982 -31.22753906 39.29516602 C-33.73356897 41.19692283 -36.05638481 43.05874648 -38.23828125 45.33203125 C-38.81964844 45.88246094 -39.40101562 46.43289062 -40 47 C-42.75 46.75 -42.75 46.75 -45 46 C-45 46.66 -45 47.32 -45 48 C-46.66479492 49.24926758 -46.66479492 49.24926758 -48.98046875 50.64453125 C-49.81513672 51.15693359 -50.64980469 51.66933594 -51.50976562 52.19726562 C-52.83524414 52.99680664 -52.83524414 52.99680664 -54.1875 53.8125 C-61.00056953 57.78333713 -61.00056953 57.78333713 -66.953125 62.8828125 C-69 65 -69 65 -71.5625 65.0625 C-72.366875 65.041875 -73.17125 65.02125 -74 65 C-75.33939005 66.32724897 -76.67190027 67.66145352 -78 69 C-80.25488281 70.32446289 -80.25488281 70.32446289 -82.703125 71.47265625 C-83.60160156 71.89740234 -84.50007813 72.32214844 -85.42578125 72.75976562 C-86.35777344 73.18966797 -87.28976563 73.61957031 -88.25 74.0625 C-89.16652344 74.49626953 -90.08304688 74.93003906 -91.02734375 75.37695312 C-95.13219173 77.30055165 -99.20646279 79.11717081 -103.484375 80.62109375 C-106.90919527 81.67864144 -106.90919527 81.67864144 -108.52441406 83.60180664 C-109.01135742 84.06321045 -109.49830078 84.52461426 -110 85 C-115.43478261 84.56521739 -115.43478261 84.56521739 -117 83 C-117.1875 80.5625 -117.1875 80.5625 -117 78 C-116.01 77.01 -116.01 77.01 -115 76 C-113.98421875 76.03351563 -112.9684375 76.06703125 -111.921875 76.1015625 C-106.99371732 75.97394089 -103.64982363 74.45675798 -99.25 72.375 C-98.46302734 72.01470703 -97.67605469 71.65441406 -96.86523438 71.28320312 C-91.42844118 68.76327847 -86.15283836 66.03930127 -80.96875 63.03125 C-79 62 -79 62 -77 62 C-76.855625 61.195625 -76.71125 60.39125 -76.5625 59.5625 C-76 57 -76 57 -75 56 C-74.18789062 56.10183594 -73.37578125 56.20367187 -72.5390625 56.30859375 C-67.22016097 55.84480432 -63.72330643 53.00931382 -59.375 50.0625 C-57.69850786 48.94441264 -56.01892947 47.83093566 -54.3359375 46.72265625 C-53.59907715 46.22515869 -52.8622168 45.72766113 -52.10302734 45.21508789 C-50.04477327 44.02586912 -48.32274013 43.44309827 -46 43 C-45.67 41.35 -45.34 39.7 -45 38 C-43.97261719 37.76023438 -42.94523437 37.52046875 -41.88671875 37.2734375 C-30.52289039 34.00216212 -20.94536944 22.33190093 -13 14 C-13.99 13.34 -14.98 12.68 -16 12 C-14.47317422 7.98869439 -11.9985939 6.21413108 -8.5625 3.75 C-7.59441406 3.04359375 -6.62632813 2.3371875 -5.62890625 1.609375 C-3 0 -3 0 0 0 Z " fill="#D24349" transform="translate(120,0)"/>
<path d="M0 0 C-0.58490879 6.14154225 -1.54066252 12.00679849 -3 18 C-7 18 -7 18 -9 17 C-9.34804687 17.83337891 -9.34804687 17.83337891 -9.703125 18.68359375 C-14.39092884 27.05668917 -23.68973124 33.57806982 -31.22753906 39.29516602 C-33.73356897 41.19692283 -36.05638481 43.05874648 -38.23828125 45.33203125 C-38.81964844 45.88246094 -39.40101562 46.43289062 -40 47 C-42.75 46.75 -42.75 46.75 -45 46 C-45.33 43.69 -45.66 41.38 -46 39 C-42.38865004 37.06534824 -42.38865004 37.06534824 -40.234375 36.703125 C-37.01950831 35.69145366 -34.62089211 33.73611242 -32 31.6875 C-31.15755737 31.03612061 -31.15755737 31.03612061 -30.2980957 30.37158203 C-24.03796949 25.41561233 -18.50201287 19.76967836 -13 14 C-13.99 13.34 -14.98 12.68 -16 12 C-14.47317422 7.98869439 -11.9985939 6.21413108 -8.5625 3.75 C-7.59441406 3.04359375 -6.62632813 2.3371875 -5.62890625 1.609375 C-3 0 -3 0 0 0 Z " fill="#26A8E0" transform="translate(120,0)"/>
<path d="M0 0 C2.0625 0.4375 2.0625 0.4375 4 1 C4 2.32 4 3.64 4 5 C2.33520508 6.47631836 2.33520508 6.47631836 0.01953125 7.83984375 C-1.2324707 8.5987793 -1.2324707 8.5987793 -2.50976562 9.37304688 C-3.83524414 10.14745117 -3.83524414 10.14745117 -5.1875 10.9375 C-11.99805628 14.80449561 -11.99805628 14.80449561 -17.875 19.890625 C-18.926875 20.93476562 -18.926875 20.93476562 -20 22 C-23.8125 21.8125 -23.8125 21.8125 -27 21 C-27.625 18.6875 -27.625 18.6875 -28 16 C-27.34 15.01 -26.68 14.02 -26 13 C-25.17113281 13.06058594 -24.34226563 13.12117188 -23.48828125 13.18359375 C-18.12647391 12.90139336 -14.57291537 9.98721684 -10.1875 7.0625 C-9.31673828 6.49853516 -8.44597656 5.93457031 -7.54882812 5.35351562 C-3.57880537 2.92831198 -3.57880537 2.92831198 0 0 Z " fill="#E6BF34" transform="translate(71,43)"/>
<path d="M0 0 C1 3 1 3 0.375 5.0625 C-1.41425335 7.58372062 -3.13533325 7.95195119 -6 9 C-6.7115625 9.8353125 -6.7115625 9.8353125 -7.4375 10.6875 C-9 12 -9 12 -12.125 11.75 C-15 11 -15 11 -16 10 C-16.1875 7.5625 -16.1875 7.5625 -16 5 C-15.34 4.34 -14.68 3.68 -14 3 C-12.948125 3.020625 -11.89625 3.04125 -10.8125 3.0625 C-6.32771985 2.98897901 -3.97862494 1.94871426 0 0 Z " fill="#DC3A40" transform="translate(19,73)"/>
<path d="M0 0 C0.53625 0.2475 1.0725 0.495 1.625 0.75 C1.625 2.07 1.625 3.39 1.625 4.75 C-1 6.890625 -1 6.890625 -4.375 9 C-5.48875 9.70640625 -6.6025 10.4128125 -7.75 11.140625 C-8.61625 11.67171875 -9.4825 12.2028125 -10.375 12.75 C-11.035 12.42 -11.695 12.09 -12.375 11.75 C-12.375 7.75 -12.375 7.75 -10.75 5.75 C-3.48611111 -0.36695906 -3.48611111 -0.36695906 0 0 Z " fill="#DDBB43" transform="translate(73.375,43.25)"/>
<path d="M0 0 C0.99 0.495 0.99 0.495 2 1 C1.01 1.495 1.01 1.495 0 2 C0 1.34 0 0.68 0 0 Z M0 2 C0 3.32 0 4.64 0 6 C-1.875 6.625 -1.875 6.625 -4 7 C-4.66 6.34 -5.32 5.68 -6 5 C-2.25 2 -2.25 2 0 2 Z " fill="#E02E37" transform="translate(32,68)"/>
<path d="M0 0 C2 1 2 1 2 1 Z " fill="#D4D4D4" transform="translate(38,62)"/>
</svg>
