<?xml version="1.0" encoding="UTF-8"?>
<svg version="1.1" xmlns="http://www.w3.org/2000/svg" width="350" height="50">
<path d="M0 0 C0.67434586 -0.00524185 1.34869171 -0.0104837 2.04347229 -0.0158844 C3.46817652 -0.02230064 4.89293376 -0.02097264 6.31762695 -0.01245117 C8.49331447 -0.00394765 10.66636928 -0.03268967 12.84179688 -0.06445312 C14.2278638 -0.06606552 15.61393536 -0.06548687 17 -0.0625 C18.25868896 -0.06435303 19.51737793 -0.06620605 20.81420898 -0.06811523 C24.61521546 0.51825728 25.74729413 1.43750629 28.06640625 4.43359375 C29.36114669 7.02307463 29.15917857 8.73462113 29.00390625 11.62109375 C28.97167969 12.54277344 28.93945312 13.46445313 28.90625 14.4140625 C27.71650904 18.69159628 25.10361806 21.283957 22.06640625 24.43359375 C23.30798467 27.16687439 24.55923517 29.89499404 25.81640625 32.62109375 C26.16445312 33.39001953 26.5125 34.15894531 26.87109375 34.95117188 C28.87706459 39.27886823 31.04635738 42.71294796 34.06640625 46.43359375 C34.06640625 47.42359375 34.06640625 48.41359375 34.06640625 49.43359375 C30.43640625 49.43359375 26.80640625 49.43359375 23.06640625 49.43359375 C22.35613281 47.85707031 21.64585938 46.28054687 20.9140625 44.65625 C19.98579556 42.60281102 19.05740371 40.54942851 18.12890625 38.49609375 C17.66033203 37.45517578 17.19175781 36.41425781 16.70898438 35.34179688 C16.03706055 33.85776367 16.03706055 33.85776367 15.3515625 32.34375 C14.73099976 30.96908569 14.73099976 30.96908569 14.09790039 29.56665039 C13.24302719 27.50063246 13.24302719 27.50063246 12.06640625 26.43359375 C11.73640625 32.70359375 11.40640625 38.97359375 11.06640625 45.43359375 C13.04640625 45.92859375 13.04640625 45.92859375 15.06640625 46.43359375 C15.06640625 47.42359375 15.06640625 48.41359375 15.06640625 49.43359375 C9.12640625 49.43359375 3.18640625 49.43359375 -2.93359375 49.43359375 C-2.60359375 48.11359375 -2.27359375 46.79359375 -1.93359375 45.43359375 C-0.61359375 45.43359375 0.70640625 45.43359375 2.06640625 45.43359375 C2.06640625 31.90359375 2.06640625 18.37359375 2.06640625 4.43359375 C0.41640625 4.43359375 -1.23359375 4.43359375 -2.93359375 4.43359375 C-3.26359375 6.41359375 -3.59359375 8.39359375 -3.93359375 10.43359375 C-4.92359375 10.43359375 -5.91359375 10.43359375 -6.93359375 10.43359375 C-8.63891698 12.37368897 -8.63891698 12.37368897 -9.93359375 14.43359375 C-7.45859375 15.42359375 -7.45859375 15.42359375 -4.93359375 16.43359375 C-4.93359375 27.65359375 -4.93359375 38.87359375 -4.93359375 50.43359375 C-22.09359375 50.43359375 -39.25359375 50.43359375 -56.93359375 50.43359375 C-56.60359375 49.11359375 -56.27359375 47.79359375 -55.93359375 46.43359375 C-56.42859375 44.94859375 -56.42859375 44.94859375 -56.93359375 43.43359375 C-55.93359375 41.43359375 -55.93359375 41.43359375 -54.078125 40.72265625 C-53.30855469 40.50351562 -52.53898437 40.284375 -51.74609375 40.05859375 C-48.67216518 39.10562702 -46.1810666 38.11551394 -43.55859375 36.24609375 C-40.93359375 34.43359375 -40.93359375 34.43359375 -37.93359375 34.43359375 C-37.93359375 33.11359375 -37.93359375 31.79359375 -37.93359375 30.43359375 C-36.88171875 30.02109375 -35.82984375 29.60859375 -34.74609375 29.18359375 C-30.05415773 27.17005036 -26.78754983 24.71452787 -23.93359375 20.43359375 C-23.155 19.96695312 -22.37640625 19.5003125 -21.57421875 19.01953125 C-18.73979327 17.31719879 -16.88206699 15.51719168 -14.68359375 13.05859375 C-13.9978125 12.30835938 -13.31203125 11.558125 -12.60546875 10.78515625 C-10.78981215 8.23135888 -10.50604102 6.46361637 -9.93359375 3.43359375 C-7.36434577 -0.37416351 -4.32680274 0.03354111 0 0 Z M11.06640625 4.43359375 C11.06640625 10.70359375 11.06640625 16.97359375 11.06640625 23.43359375 C17.69797249 22.28828601 17.69797249 22.28828601 19.484375 19.59375 C20.10956703 17.27340643 20.3667052 15.27469992 20.37890625 12.87109375 C20.39566406 12.10667969 20.41242188 11.34226562 20.4296875 10.5546875 C20.20750646 8.39322842 20.20750646 8.39322842 18.921875 6.71875 C16.60406025 4.91819326 16.60406025 4.91819326 11.06640625 4.43359375 Z M-12.93359375 16.43359375 C-13.59359375 17.75359375 -14.25359375 19.07359375 -14.93359375 20.43359375 C-13.94359375 20.76359375 -12.95359375 21.09359375 -11.93359375 21.43359375 C-11.93359375 19.78359375 -11.93359375 18.13359375 -11.93359375 16.43359375 C-12.26359375 16.43359375 -12.59359375 16.43359375 -12.93359375 16.43359375 Z M-18.93359375 22.43359375 C-19.26359375 23.09359375 -19.59359375 23.75359375 -19.93359375 24.43359375 C-21.99609375 25.55859375 -21.99609375 25.55859375 -23.93359375 26.43359375 C-23.93359375 26.76359375 -23.93359375 27.09359375 -23.93359375 27.43359375 C-20.96359375 27.92859375 -20.96359375 27.92859375 -17.93359375 28.43359375 C-17.93359375 26.45359375 -17.93359375 24.47359375 -17.93359375 22.43359375 C-18.26359375 22.43359375 -18.59359375 22.43359375 -18.93359375 22.43359375 Z M-27.49609375 29.93359375 C-27.97046875 30.42859375 -28.44484375 30.92359375 -28.93359375 31.43359375 C-27.94359375 31.92859375 -27.94359375 31.92859375 -26.93359375 32.43359375 C-26.62118004 34.98300748 -26.42055954 37.43720888 -26.30859375 39.99609375 C-26.26992188 40.70701172 -26.23125 41.41792969 -26.19140625 42.15039062 C-26.09687592 43.911018 -26.01413558 45.67227103 -25.93359375 47.43359375 C-25.60359375 47.43359375 -25.27359375 47.43359375 -24.93359375 47.43359375 C-24.93359375 41.16359375 -24.93359375 34.89359375 -24.93359375 28.43359375 C-26.17435677 28.31817178 -26.17435677 28.31817178 -27.49609375 29.93359375 Z M-32.93359375 33.43359375 C-33.26359375 34.75359375 -33.59359375 36.07359375 -33.93359375 37.43359375 C-33.27359375 37.43359375 -32.61359375 37.43359375 -31.93359375 37.43359375 C-31.93359375 40.73359375 -31.93359375 44.03359375 -31.93359375 47.43359375 C-31.60359375 47.43359375 -31.27359375 47.43359375 -30.93359375 47.43359375 C-30.93359375 42.81359375 -30.93359375 38.19359375 -30.93359375 33.43359375 C-31.59359375 33.43359375 -32.25359375 33.43359375 -32.93359375 33.43359375 Z M-38.93359375 38.43359375 C-40.25359375 39.42359375 -41.57359375 40.41359375 -42.93359375 41.43359375 C-40.45859375 41.92859375 -40.45859375 41.92859375 -37.93359375 42.43359375 C-38.26359375 41.11359375 -38.59359375 39.79359375 -38.93359375 38.43359375 Z M-45.93359375 42.43359375 C-46.59359375 43.09359375 -47.25359375 43.75359375 -47.93359375 44.43359375 C-46.94359375 44.43359375 -45.95359375 44.43359375 -44.93359375 44.43359375 C-44.60359375 45.42359375 -44.27359375 46.41359375 -43.93359375 47.43359375 C-43.93359375 45.78359375 -43.93359375 44.13359375 -43.93359375 42.43359375 C-44.59359375 42.43359375 -45.25359375 42.43359375 -45.93359375 42.43359375 Z M-51.93359375 45.43359375 C-51.93359375 46.09359375 -51.93359375 46.75359375 -51.93359375 47.43359375 C-51.27359375 47.43359375 -50.61359375 47.43359375 -49.93359375 47.43359375 C-49.93359375 46.77359375 -49.93359375 46.11359375 -49.93359375 45.43359375 C-50.59359375 45.43359375 -51.25359375 45.43359375 -51.93359375 45.43359375 Z " fill="#14CF49" transform="translate(56.93359375,-0.43359375)"/>
<path d="M0 0 C3.74973906 -0.11622939 7.49901464 -0.1872595 11.25 -0.25 C12.31347656 -0.28351562 13.37695312 -0.31703125 14.47265625 -0.3515625 C15.49746094 -0.36445312 16.52226562 -0.37734375 17.578125 -0.390625 C18.99206543 -0.4220459 18.99206543 -0.4220459 20.43457031 -0.45410156 C23.71907875 0.12728269 24.89169466 1.49259159 27 4 C25.25 9.75 25.25 9.75 23 12 C23.639375 12.391875 24.27875 12.78375 24.9375 13.1875 C27 15 27 15 27.9375 17.3125 C28.02167939 20.93221386 26.89559482 22.95350833 25 26 C24.01 26.66 23.02 27.32 22 28 C22.74765625 28.04898437 23.4953125 28.09796875 24.265625 28.1484375 C25.25046875 28.22320313 26.2353125 28.29796875 27.25 28.375 C28.71179688 28.47941406 28.71179688 28.47941406 30.203125 28.5859375 C32.89633189 28.98465249 34.66963279 29.63507063 37 31 C37.1875 33.8125 37.1875 33.8125 37 37 C35.48828125 38.69921875 35.48828125 38.69921875 34 40 C34.75827092 41.17487036 35.53207755 42.33972592 36.3125 43.5 C36.74175781 44.1496875 37.17101562 44.799375 37.61328125 45.46875 C38.07089844 45.9740625 38.52851563 46.479375 39 47 C39.99 47 40.98 47 42 47 C42.18175781 46.443125 42.36351562 45.88625 42.55078125 45.3125 C44.24862185 40.15803009 46.06422235 35.06989385 48 30 C47.41992188 29.91363281 46.83984375 29.82726562 46.2421875 29.73828125 C40.42237327 28.69148298 36.93532206 27.51122285 33 23 C30.87971933 18.06210191 30.37320654 12.99263436 32.08984375 7.86328125 C34.02507132 3.90146343 35.83151373 1.67718831 40 0 C43.02470267 -0.47582924 46.00347732 -0.59303272 49.0625 -0.625 C50.23232422 -0.64143555 50.23232422 -0.64143555 51.42578125 -0.65820312 C56.6951764 -0.52826056 59.8499284 0.50154025 64 4 C66.89093933 8.75606148 67.44439816 12.48975654 66.55859375 17.859375 C65.64923945 21.34417331 64.46006231 23.35543302 62 26 C59.09131734 27.60980541 56.12215542 28.86588372 53 30 C53.433125 30.97582031 53.86625 31.95164062 54.3125 32.95703125 C54.8752871 34.2420618 55.43777134 35.52722502 56 36.8125 C56.28617187 37.45509766 56.57234375 38.09769531 56.8671875 38.75976562 C58.13711041 41.67756469 59 43.78265714 59 47 C59.66 47 60.32 47 61 47 C61 47.66 61 48.32 61 49 C58.03 49 55.06 49 52 49 C52.33 47.35 52.66 45.7 53 44 C50.69 44 48.38 44 46 44 C46.495 46.475 46.495 46.475 47 49 C35.36143498 50.0735426 35.36143498 50.0735426 32.0234375 47.44140625 C30.6875 45.5 30.6875 45.5 29 42 C28.67 43.65 28.34 45.3 28 47 C28.66 47 29.32 47 30 47 C30 47.66 30 48.32 30 49 C26.7 49 23.4 49 20 49 C20 48.34 20 47.68 20 47 C20.99 47 21.98 47 23 47 C22.88658509 44.51979503 22.75985314 42.04155031 22.625 39.5625 C22.5940625 38.85544922 22.563125 38.14839844 22.53125 37.41992188 C22.42719371 35.60760812 22.22080108 33.80182012 22 32 C21.34 31.67 20.68 31.34 20 31 C20 32.32 20 33.64 20 35 C18.515 34.505 18.515 34.505 17 34 C17 33.34 17 32.68 17 32 C15.68 32 14.36 32 13 32 C13 36.95 13 41.9 13 47 C13.66 47 14.32 47 15 47 C15 47.66 15 48.32 15 49 C12.03 49 9.06 49 6 49 C6 48.34 6 47.68 6 47 C6.66 47 7.32 47 8 47 C8 42.05 8 37.1 8 32 C6.68 32 5.36 32 4 32 C4 32.99 4 33.98 4 35 C3.34 35 2.68 35 2 35 C1.375 32.1875 1.375 32.1875 1 29 C1.66 28.01 2.32 27.02 3 26 C3.36749389 23.38710506 3.36749389 23.38710506 3.4140625 20.45703125 C3.45273438 19.38388672 3.49140625 18.31074219 3.53125 17.20507812 C3.5621875 16.08552734 3.593125 14.96597656 3.625 13.8125 C3.66367188 12.68134766 3.70234375 11.55019531 3.7421875 10.38476562 C3.83652533 7.5900075 3.92211652 4.79525722 4 2 C2.68 2 1.36 2 0 2 C0 1.34 0 0.68 0 0 Z M13 2 C11.79438816 2.98267859 11.79438816 2.98267859 11.90234375 4.84765625 C11.91394531 5.57855469 11.92554688 6.30945313 11.9375 7.0625 C11.958125 8.361875 11.97875 9.66125 12 11 C13.98 10.67 15.96 10.34 18 10 C18.33 8.35 18.66 6.7 19 5 C16.18567371 2.95112791 16.18567371 2.95112791 13 2 Z M40 7 C38.85522791 12.62846276 38.79922047 16.5504507 41 22 C42.47993156 24.56338689 42.47993156 24.56338689 45 26 C48.18350395 26.45478628 49.98509505 26.7058706 53 26 C56.21954645 23.46546343 57.70432435 21.88702695 59 18 C59.39567015 12.75737048 58.83592201 9.45644888 56 5 C53.81445542 2.81445542 52.61570223 2.09472342 49.5625 1.625 C45.49428313 2.22034881 42.86579787 4.13420213 40 7 Z M12 14 C12 17.96 12 21.92 12 26 C14.93443402 25.73343428 14.93443402 25.73343428 18 25 C20.30787112 22.17537932 20.30787112 22.17537932 19.875 18.9375 C19.30131669 15.93069727 19.30131669 15.93069727 17.125 14.625 C14.88948486 13.85891684 14.88948486 13.85891684 12 14 Z M28 32 C28 33.98 28 35.96 28 38 C29.32 37.67 30.64 37.34 32 37 C31.67 35.35 31.34 33.7 31 32 C30.01 32 29.02 32 28 32 Z M49 36 C48.67 37.65 48.34 39.3 48 41 C48.99 41 49.98 41 51 41 C50.67 39.35 50.34 37.7 50 36 C49.67 36 49.34 36 49 36 Z " fill="#509AC4" transform="translate(212,0)"/>
<path d="M0 0 C5.94 0 11.88 0 18 0 C18 1.32 18 2.64 18 4 C16.68 4 15.36 4 14 4 C14 9.61 14 15.22 14 21 C19.28 21 24.56 21 30 21 C29.87625 17.101875 29.87625 17.101875 29.75 13.125 C29.73420898 12.30789551 29.71841797 11.49079102 29.70214844 10.64892578 C29.63280371 8.39343721 29.63280371 8.39343721 29 5 C27.09371218 3.39662601 27.09371218 3.39662601 25 3 C25 2.01 25 1.02 25 0 C30.94 0 36.88 0 43 0 C43 1.32 43 2.64 43 4 C41.68 4 40.36 4 39 4 C39 17.53 39 31.06 39 45 C40.32 45.33 41.64 45.66 43 46 C42.67 47.32 42.34 48.64 42 50 C36.72 50 31.44 50 26 50 C25.67 48.68 25.34 47.36 25 46 C26.32 45.34 27.64 44.68 29 44 C29.33 38.06 29.66 32.12 30 26 C24.72 26 19.44 26 14 26 C14 32.27 14 38.54 14 45 C15.32 45.33 16.64 45.66 18 46 C18 46.99 18 47.98 18 49 C12.06 49 6.12 49 0 49 C0.33 47.68 0.66 46.36 1 45 C2.32 45 3.64 45 5 45 C5 31.47 5 17.94 5 4 C3.35 3.67 1.7 3.34 0 3 C0 2.01 0 1.02 0 0 Z " fill="#ECECEC" transform="translate(125,0)"/>
<path d="M0 0 C5.28 0 10.56 0 16 0 C16 0.66 16 1.32 16 2 C14.68 2 13.36 2 12 2 C12 5.3 12 8.6 12 12 C16.29 12 20.58 12 25 12 C25 8.7 25 5.4 25 2 C23.68 1.67 22.36 1.34 21 1 C21 0.67 21 0.34 21 0 C26.28 0 31.56 0 37 0 C37 0.66 37 1.32 37 2 C36.01 2.33 35.02 2.66 34 3 C33.67 10.59 33.34 18.18 33 26 C34.32 26 35.64 26 37 26 C36.67 28.97 36.34 31.94 36 35 C35.34 35 34.68 35 34 35 C34 34.01 34 33.02 34 32 C32.02 32 30.04 32 28 32 C28.33 33.32 28.66 34.64 29 36 C30.670625 36.433125 30.670625 36.433125 32.375 36.875 C36 38 36 38 38 40 C37.86764207 43.63984314 37.75811748 46.0960907 35.375 48.9375 C31.1735316 50.81710428 27.28914818 50.42971606 23 49 C23 47.02 23 45.04 23 43 C23.66 43 24.32 43 25 43 C25.33 44.32 25.66 45.64 26 47 C28.97 46.505 28.97 46.505 32 46 C32.33 44.68 32.66 43.36 33 42 C32.04287109 41.81824219 32.04287109 41.81824219 31.06640625 41.6328125 C30.24011719 41.46523438 29.41382813 41.29765625 28.5625 41.125 C27.73878906 40.96257813 26.91507812 40.80015625 26.06640625 40.6328125 C25.38449219 40.42398438 24.70257813 40.21515625 24 40 C22.61874982 37.23749964 22.80920694 35.05268901 23 32 C23.66 31.34 24.32 30.68 25 30 C23.68 29.34 22.36 28.68 21 28 C21.33 27.34 21.66 26.68 22 26 C22.99 26 23.98 26 25 26 C25 22.37 25 18.74 25 15 C20.71 15 16.42 15 12 15 C12 18.63 12 22.26 12 26 C13.32 26 14.64 26 16 26 C16 26.99 16 27.98 16 29 C16.99 29.66 17.98 30.32 19 31 C18.25 37.75 18.25 37.75 16 40 C17.98 42.97 19.96 45.94 22 49 C18.8125 49.5 18.8125 49.5 15 49 C12.84975764 46.57299378 11.40896506 43.90883109 10 41 C10.66 43.64 11.32 46.28 12 49 C8.7 49 5.4 49 2 49 C2 48.34 2 47.68 2 47 C2.66 47 3.32 47 4 47 C4 41.72 4 36.44 4 31 C3.34 31 2.68 31 2 31 C2 30.34 2 29.68 2 29 C1.34 29 0.68 29 0 29 C0 28.01 0 27.02 0 26 C1.32 26 2.64 26 4 26 C4 18.08 4 10.16 4 2 C2.68 2 1.36 2 0 2 C0 1.34 0 0.68 0 0 Z M10 32 C9.67 33.98 9.34 35.96 9 38 C10.32 37.67 11.64 37.34 13 37 C13.33 35.68 13.66 34.36 14 33 C12.68 32.67 11.36 32.34 10 32 Z " fill="#E2E2E2" transform="translate(312,0)"/>
<path d="M0 0 C4.24977046 -0.11611395 8.49913337 -0.18722349 12.75 -0.25 C13.9565625 -0.28351562 15.163125 -0.31703125 16.40625 -0.3515625 C18.14648438 -0.37089844 18.14648438 -0.37089844 19.921875 -0.390625 C20.99018555 -0.41157227 22.05849609 -0.43251953 23.15917969 -0.45410156 C26.68638554 0.10971787 27.79946143 1.25283896 30 4 C31.29474044 6.58948088 31.09277232 8.30102738 30.9375 11.1875 C30.90527344 12.10917969 30.87304688 13.03085938 30.83984375 13.98046875 C29.65010279 18.25800253 27.03721181 20.85036325 24 24 C25.24157842 26.73328064 26.49282892 29.46140029 27.75 32.1875 C28.09804687 32.95642578 28.44609375 33.72535156 28.8046875 34.51757812 C30.81065834 38.84527448 32.97995113 42.27935421 36 46 C36 46.99 36 47.98 36 49 C32.37 49 28.74 49 25 49 C24.28972656 47.42347656 23.57945313 45.84695312 22.84765625 44.22265625 C21.91938931 42.16921727 20.99099746 40.11583476 20.0625 38.0625 C19.35963867 36.50112305 19.35963867 36.50112305 18.64257812 34.90820312 C18.19462891 33.91884766 17.74667969 32.92949219 17.28515625 31.91015625 C16.87144775 30.99371338 16.45773926 30.07727051 16.03149414 29.13305664 C15.17662094 27.06703871 15.17662094 27.06703871 14 26 C13.67 32.27 13.34 38.54 13 45 C14.32 45.33 15.64 45.66 17 46 C17 46.99 17 47.98 17 49 C11.06 49 5.12 49 -1 49 C-0.67 47.68 -0.34 46.36 0 45 C1.32 45 2.64 45 4 45 C4 31.47 4 17.94 4 4 C2.68 4 1.36 4 0 4 C0 2.68 0 1.36 0 0 Z M13 4 C13 10.27 13 16.54 13 23 C19.63156624 21.85469226 19.63156624 21.85469226 21.41796875 19.16015625 C22.04316078 16.83981268 22.30029895 14.84110617 22.3125 12.4375 C22.32925781 11.67308594 22.34601563 10.90867187 22.36328125 10.12109375 C22.14110021 7.95963467 22.14110021 7.95963467 20.85546875 6.28515625 C18.537654 4.48459951 18.537654 4.48459951 13 4 Z " fill="#ECECEC" transform="translate(55,0)"/>
<path d="M0 0 C1.0986438 -0.01643555 1.0986438 -0.01643555 2.21948242 -0.03320312 C7.35631833 0.10153355 10.35847824 1.28983572 14.4375 4.625 C20.51432 12.22102501 21.16577343 20.22792347 20.4375 29.625 C19.27613354 37.56452344 16.5897309 43.34598897 10.4375 48.625 C5.21427944 52.09576747 -1.58004856 51.17519053 -7.5625 50.625 C-13.30243204 48.10748595 -16.95901999 43.4670016 -19.3515625 37.734375 C-21.69524434 29.54711309 -21.44259549 17.84114035 -17.9375 10 C-16.81640625 8.2421875 -16.81640625 8.2421875 -15.5625 6.625 C-15.15902344 6.02945312 -14.75554687 5.43390625 -14.33984375 4.8203125 C-10.33009063 0.17969156 -5.7841488 0.06408346 0 0 Z M-8.5625 8.625 C-12.98328987 18.03471337 -12.82713969 28.78758888 -9.47265625 38.4921875 C-8.21449018 41.440508 -6.97187759 43.49097985 -4.5625 45.625 C-0.98628519 46.84243483 0.65694206 46.96989769 4.125 45.4375 C8.94148099 41.66242031 10.56929279 37.63416454 11.4375 31.625 C12.07892267 21.88584769 11.64691255 13.58080982 5.4375 5.625 C0.07987658 2.94618829 -4.80825763 4.24505057 -8.5625 8.625 Z " fill="#EDEDED" transform="translate(191.5625,-0.625)"/>
<path d="M0 0 C9.9 0 19.8 0 30 0 C30 1.98 30 3.96 30 6 C29.01 6.33 28.02 6.66 27 7 C26.505 5.02 26.505 5.02 26 3 C23.69 3 21.38 3 19 3 C19 10.59 19 18.18 19 26 C20.32 26.33 21.64 26.66 23 27 C23 27.33 23 27.66 23 28 C25.64 28.33 28.28 28.66 31 29 C31 30.65 31 32.3 31 34 C30.34 34 29.68 34 29 34 C29 33.34 29 32.68 29 32 C27.35 32 25.7 32 24 32 C24 33.98 24 35.96 24 38 C25.98 37.34 27.96 36.68 30 36 C30 38.31 30 40.62 30 43 C29.01 42.67 28.02 42.34 27 42 C27 41.34 27 40.68 27 40 C26.01 40 25.02 40 24 40 C24 42.31 24 44.62 24 47 C26.47266765 46.65555119 26.47266765 46.65555119 29 46 C29.495 45.01 29.495 45.01 30 44 C30.66 44 31.32 44 32 44 C32 45.65 32 47.3 32 49 C27.05 49 22.1 49 17 49 C17.33 43.06 17.66 37.12 18 31 C17.34 31 16.68 31 16 31 C16 30.34 16 29.68 16 29 C14.35 29.33 12.7 29.66 11 30 C11.66 30.495 12.32 30.99 13 31.5 C15.30522247 34.38152809 15.57635908 36.30376513 15.3984375 39.96484375 C14.75339639 43.25961258 13.11044862 45.45504725 11 48 C7.93618406 49.53190797 4.73034134 49.10243613 1.375 49.0625 C-1.05875 49.041875 -3.4925 49.02125 -6 49 C-5.505 40.09 -5.505 40.09 -5 31 C-5.66 31 -6.32 31 -7 31 C-7 30.34 -7 29.68 -7 29 C-2.38 29 2.24 29 7 29 C7 28.01 7 27.02 7 26 C8.32 26 9.64 26 11 26 C11 18.41 11 10.82 11 3 C8.36 3 5.72 3 3 3 C3 4.32 3 5.64 3 7 C2.01 7 1.02 7 0 7 C0 4.69 0 2.38 0 0 Z M0 32 C0 36.95 0 41.9 0 47 C6.67376087 46.78941036 6.67376087 46.78941036 9 43.875 C10.28596488 40.17785097 9.92518423 37.77190494 9 34 C8.34 33.34 7.68 32.68 7 32 C4.69 32 2.38 32 0 32 Z " fill="#569ABF" transform="translate(281,0)"/>
<path d="M0 0 C9.24 0 18.48 0 28 0 C28 3.63 28 7.26 28 11 C27.01 11 26.02 11 25 11 C24.67 9.02 24.34 7.04 24 5 C20.37 5 16.74 5 13 5 C13 10.28 13 15.56 13 21 C15.97 21 18.94 21 22 21 C22 19.35 22 17.7 22 16 C22.99 16 23.98 16 25 16 C25 21.28 25 26.56 25 32 C24.01 32 23.02 32 22 32 C21.505 29.525 21.505 29.525 21 27 C18.36 26.67 15.72 26.34 13 26 C13 31.94 13 37.88 13 44 C18.94 43.505 18.94 43.505 25 43 C25.66 40.69 26.32 38.38 27 36 C28.485 36.495 28.485 36.495 30 37 C29.67 41.29 29.34 45.58 29 50 C20.09 49.67 11.18 49.34 2 49 C2.33 47.68 2.66 46.36 3 45 C3.10897379 43.5966353 3.17491848 42.18948751 3.20532227 40.78222656 C3.22526749 39.96167786 3.24521271 39.14112915 3.26576233 38.29571533 C3.28247482 37.41953552 3.29918732 36.54335571 3.31640625 35.640625 C3.3475779 34.28405792 3.3475779 34.28405792 3.37937927 32.90008545 C3.4446594 30.01679945 3.50365952 27.1334239 3.5625 24.25 C3.60570571 22.29295956 3.64932065 20.33592812 3.69335938 18.37890625 C3.80031872 13.5860288 3.90164673 8.79306146 4 4 C2.68 3.67 1.36 3.34 0 3 C0 2.01 0 1.02 0 0 Z " fill="#E8E8E9" transform="translate(93,0)"/>
<path d="M0 0 C3.74973906 -0.11622939 7.49901464 -0.1872595 11.25 -0.25 C12.31347656 -0.28351562 13.37695312 -0.31703125 14.47265625 -0.3515625 C15.49746094 -0.36445312 16.52226562 -0.37734375 17.578125 -0.390625 C18.99206543 -0.4220459 18.99206543 -0.4220459 20.43457031 -0.45410156 C23.71907875 0.12728269 24.89169466 1.49259159 27 4 C25.25 9.75 25.25 9.75 23 12 C23.639375 12.391875 24.27875 12.78375 24.9375 13.1875 C27 15 27 15 27.9375 17.3125 C28.02167939 20.93221386 26.89559482 22.95350833 25 26 C21.84685215 28.10209857 21.13896919 28.2434761 17.55078125 28.1953125 C16.78677002 28.19031738 16.02275879 28.18532227 15.2355957 28.18017578 C13.78866333 28.15286377 13.78866333 28.15286377 12.3125 28.125 C9.239375 28.08375 6.16625 28.0425 3 28 C3.33 19.42 3.66 10.84 4 2 C2.68 2 1.36 2 0 2 C0 1.34 0 0.68 0 0 Z M13 2 C11.79438816 2.98267859 11.79438816 2.98267859 11.90234375 4.84765625 C11.91394531 5.57855469 11.92554688 6.30945313 11.9375 7.0625 C11.958125 8.361875 11.97875 9.66125 12 11 C13.98 10.67 15.96 10.34 18 10 C18.33 8.35 18.66 6.7 19 5 C16.18567371 2.95112791 16.18567371 2.95112791 13 2 Z M12 14 C12 17.96 12 21.92 12 26 C14.93443402 25.73343428 14.93443402 25.73343428 18 25 C20.30787112 22.17537932 20.30787112 22.17537932 19.875 18.9375 C19.30131669 15.93069727 19.30131669 15.93069727 17.125 14.625 C14.88948486 13.85891684 14.88948486 13.85891684 12 14 Z " fill="#E8E8E8" transform="translate(212,0)"/>
<path d="M0 0 C1.16982422 -0.01643555 1.16982422 -0.01643555 2.36328125 -0.03320312 C7.6326764 0.09673944 10.7874284 1.12654025 14.9375 4.625 C17.82986134 9.38340091 18.36805876 13.10850543 17.5078125 18.48046875 C16.29058282 23.05758585 14.25278409 25.82785813 10.23046875 28.265625 C6.55393196 29.78334125 3.90085826 30.02607473 -0.0625 30 C-1.238125 30.00773437 -2.41375 30.01546875 -3.625 30.0234375 C-8.13339065 29.50087404 -11.31467266 28.01488449 -14.85546875 25.19921875 C-17.6034352 21.61530134 -18.14453815 16.88925284 -17.984375 12.46875 C-17.19101941 7.98456622 -15.33726185 4.5041143 -11.72265625 1.6953125 C-7.8351921 0.1311933 -4.16003357 0.04347302 0 0 Z M-9.0625 7.625 C-10.20727209 13.25346276 -10.26327953 17.1754507 -8.0625 22.625 C-6.58256844 25.18838689 -6.58256844 25.18838689 -4.0625 26.625 C-0.87899605 27.07978628 0.92259505 27.3308706 3.9375 26.625 C7.15704645 24.09046343 8.64182435 22.51202695 9.9375 18.625 C10.33317015 13.38237048 9.77342201 10.08144888 6.9375 5.625 C4.75195542 3.43945542 3.55320223 2.71972342 0.5 2.25 C-3.56821687 2.84534881 -6.19670213 4.75920213 -9.0625 7.625 Z " fill="#EAEAEA" transform="translate(261.0625,-0.625)"/>
<path d="M0 0 C5.28 0 10.56 0 16 0 C16 0.66 16 1.32 16 2 C15.01 2.33 14.02 2.66 13 3 C12.67 10.59 12.34 18.18 12 26 C13.32 26 14.64 26 16 26 C15.67 28.97 15.34 31.94 15 35 C14.34 35 13.68 35 13 35 C13 34.01 13 33.02 13 32 C11.02 32 9.04 32 7 32 C7.33 33.32 7.66 34.64 8 36 C9.670625 36.433125 9.670625 36.433125 11.375 36.875 C15 38 15 38 17 40 C16.86764207 43.63984314 16.75811748 46.0960907 14.375 48.9375 C10.1735316 50.81710428 6.28914818 50.42971606 2 49 C2 47.02 2 45.04 2 43 C2.66 43 3.32 43 4 43 C4.33 44.32 4.66 45.64 5 47 C7.97 46.505 7.97 46.505 11 46 C11.33 44.68 11.66 43.36 12 42 C11.04287109 41.81824219 11.04287109 41.81824219 10.06640625 41.6328125 C9.24011719 41.46523438 8.41382813 41.29765625 7.5625 41.125 C6.73878906 40.96257813 5.91507812 40.80015625 5.06640625 40.6328125 C4.38449219 40.42398438 3.70257813 40.21515625 3 40 C1.61874982 37.23749964 1.80920694 35.05268901 2 32 C2.66 31.34 3.32 30.68 4 30 C2.68 29.34 1.36 28.68 0 28 C0.33 27.34 0.66 26.68 1 26 C2.32 26 3.64 26 5 26 C5 22.04 5 18.08 5 14 C0.38 14 -4.24 14 -9 14 C-9 13.67 -9 13.34 -9 13 C-4.38 13 0.24 13 5 13 C5 9.37 5 5.74 5 2 C3.35 1.67 1.7 1.34 0 1 C0 0.67 0 0.34 0 0 Z " fill="#F4F4F4" transform="translate(333,0)"/>
<path d="M0 0 C0.99 0.33 1.98 0.66 3 1 C2.625 2.9375 2.625 2.9375 2 5 C1.01 5.495 1.01 5.495 0 6 C0.33 6.66 0.66 7.32 1 8 C0.01 8 -0.98 8 -2 8 C-2 13.28 -2 18.56 -2 24 C-2.99 24 -3.98 24 -5 24 C-5 20.7 -5 17.4 -5 14 C-5.99 14 -6.98 14 -8 14 C-8 17.63 -8 21.26 -8 25 C2.23 25 12.46 25 23 25 C23 25.33 23 25.66 23 26 C5.84 26 -11.32 26 -29 26 C-28.67 24.68 -28.34 23.36 -28 22 C-28.33 21.01 -28.66 20.02 -29 19 C-28 17 -28 17 -26.14453125 16.2890625 C-25.37496094 16.06992187 -24.60539062 15.85078125 -23.8125 15.625 C-20.73857143 14.67203327 -18.24747285 13.68192019 -15.625 11.8125 C-13 10 -13 10 -10 10 C-10 8.68 -10 7.36 -10 6 C-8.906875 5.566875 -7.81375 5.13375 -6.6875 4.6875 C-3.90591207 3.50504359 -1.93638061 2.39199957 0 0 Z M-5 9 C-5.33 10.32 -5.66 11.64 -6 13 C-5.34 13 -4.68 13 -4 13 C-4 16.3 -4 19.6 -4 23 C-3.67 23 -3.34 23 -3 23 C-3 18.38 -3 13.76 -3 9 C-3.66 9 -4.32 9 -5 9 Z M-11 14 C-12.32 14.99 -13.64 15.98 -15 17 C-12.525 17.495 -12.525 17.495 -10 18 C-10.33 16.68 -10.66 15.36 -11 14 Z M-18 18 C-18.66 18.66 -19.32 19.32 -20 20 C-19.01 20 -18.02 20 -17 20 C-16.67 20.99 -16.34 21.98 -16 23 C-16 21.35 -16 19.7 -16 18 C-16.66 18 -17.32 18 -18 18 Z M-24 21 C-24 21.66 -24 22.32 -24 23 C-23.34 23 -22.68 23 -22 23 C-22 22.34 -22 21.68 -22 21 C-22.66 21 -23.32 21 -24 21 Z " fill="#57A972" transform="translate(29,24)"/>
<path d="M0 0 C9.9 0 19.8 0 30 0 C30 1.98 30 3.96 30 6 C29.01 6.33 28.02 6.66 27 7 C26.67 5.68 26.34 4.36 26 3 C23.69 3 21.38 3 19 3 C19 10.59 19 18.18 19 26 C20.32 26.33 21.64 26.66 23 27 C23 27.33 23 27.66 23 28 C18.05 28 13.1 28 8 28 C8.99 27.67 9.98 27.34 11 27 C11 19.08 11 11.16 11 3 C8.36 3 5.72 3 3 3 C3 4.32 3 5.64 3 7 C2.01 7 1.02 7 0 7 C0 4.69 0 2.38 0 0 Z " fill="#E6E6E6" transform="translate(281,0)"/>
<path d="M0 0 C0.495 0.165 0.99 0.33 1.5 0.5 C6.25659235 1.45131847 11.35968313 1.54677229 16 0 C16 0.99 16 1.98 16 3 C16.99 3.66 17.98 4.32 19 5 C18.25 11.75 18.25 11.75 16 14 C17.98 16.97 19.96 19.94 22 23 C18.8125 23.5 18.8125 23.5 15 23 C12.84975764 20.57299378 11.40896506 17.90883109 10 15 C10.66 17.64 11.32 20.28 12 23 C8.7 23 5.4 23 2 23 C2 22.34 2 21.68 2 21 C2.66 21 3.32 21 4 21 C4 15.72 4 10.44 4 5 C3.34 5 2.68 5 2 5 C2 4.34 2 3.68 2 3 C1.34 3 0.68 3 0 3 C0 2.01 0 1.02 0 0 Z M10 6 C9.67 7.98 9.34 9.96 9 12 C10.32 11.67 11.64 11.34 13 11 C13.33 9.68 13.66 8.36 14 7 C12.68 6.67 11.36 6.34 10 6 Z " fill="#659BB8" transform="translate(312,26)"/>
<path d="M0 0 C-0.66 3.3 -1.32 6.6 -2 10 C-2.99 10 -3.98 10 -5 10 C-7.60606227 12.39968335 -7.99305973 13.94408593 -8.43237305 17.48339844 C-8.47358585 18.85836074 -8.49918365 20.2338523 -8.51171875 21.609375 C-8.52966995 22.33618469 -8.54762115 23.06299438 -8.56611633 23.81182861 C-8.62013241 26.12449407 -8.6540856 28.43695421 -8.6875 30.75 C-8.72068093 32.3216431 -8.75517132 33.89325914 -8.79101562 35.46484375 C-8.87585328 39.30974746 -8.94270506 43.15459122 -9 47 C-9.66 47 -10.32 47 -11 47 C-11 37.43 -11 27.86 -11 18 C-12.98 18.99 -12.98 18.99 -15 20 C-15 28.91 -15 37.82 -15 47 C-15.66 47 -16.32 47 -17 47 C-17 39.41 -17 31.82 -17 24 C-18.32 24.33 -19.64 24.66 -21 25 C-21.33 23.35 -21.66 21.7 -22 20 C-20.89398438 19.39285156 -20.89398438 19.39285156 -19.765625 18.7734375 C-16.93967972 16.96132005 -14.98176342 15.12082703 -12.75 12.625 C-12.06421875 11.87476563 -11.3784375 11.12453125 -10.671875 10.3515625 C-8.86557602 7.81092702 -8.45036899 6.04510848 -8 3 C-5.52636009 -0.58677787 -4.79627645 0 0 0 Z " fill="#5CA5A5" transform="translate(55,0)"/>
<path d="M0 0 C0.99 0.33 1.98 0.66 3 1 C7.45919157 1.14156164 10.65223895 1.08694026 15 0 C14.67 2.97 14.34 5.94 14 9 C13.34 9 12.68 9 12 9 C12 8.01 12 7.02 12 6 C10.02 6 8.04 6 6 6 C6.33 7.32 6.66 8.64 7 10 C8.670625 10.433125 8.670625 10.433125 10.375 10.875 C14 12 14 12 16 14 C15.86764207 17.63984314 15.75811748 20.0960907 13.375 22.9375 C9.1735316 24.81710428 5.28914818 24.42971606 1 23 C1 21.02 1 19.04 1 17 C1.66 17 2.32 17 3 17 C3.33 18.32 3.66 19.64 4 21 C5.98 20.67 7.96 20.34 10 20 C10.33 18.68 10.66 17.36 11 16 C10.36191406 15.87882812 9.72382813 15.75765625 9.06640625 15.6328125 C7.82697266 15.38144531 7.82697266 15.38144531 6.5625 15.125 C5.73878906 14.96257813 4.91507812 14.80015625 4.06640625 14.6328125 C3.38449219 14.42398438 2.70257813 14.21515625 2 14 C0.61874982 11.23749964 0.80920694 9.05268901 1 6 C1.66 5.34 2.32 4.68 3 4 C1.68 3.34 0.36 2.68 -1 2 C-0.67 1.34 -0.34 0.68 0 0 Z " fill="#3FA0D6" transform="translate(334,26)"/>
<path d="M0 0 C0.99 0.33 1.98 0.66 3 1 C2.75 2.875 2.75 2.875 2 5 C-0 6.125 -0 6.125 -2 7 C-2.33 7.66 -2.66 8.32 -3 9 C-3.66 9 -4.32 9 -5 9 C-5.020625 9.598125 -5.04125 10.19625 -5.0625 10.8125 C-6 13 -6 13 -9.25 14.6875 C-12.20834564 15.72292098 -14.91313706 16.53229349 -18 17 C-18 17.66 -18 18.32 -18 19 C-23.29230769 22.07692308 -23.29230769 22.07692308 -26.875 21.6875 C-27.57625 21.460625 -28.2775 21.23375 -29 21 C-28.76171875 19.09375 -28.76171875 19.09375 -28 17 C-26.14453125 16.09375 -26.14453125 16.09375 -23.8125 15.5 C-20.70298945 14.60521238 -18.25732051 13.70220112 -15.625 11.8125 C-13 10 -13 10 -10 10 C-10 8.68 -10 7.36 -10 6 C-8.906875 5.566875 -7.81375 5.13375 -6.6875 4.6875 C-3.90591207 3.50504359 -1.93638061 2.39199957 0 0 Z " fill="#D54A50" transform="translate(29,24)"/>
<path d="M0 0 C2 3 2 3 2 5 C3.32 5.66 4.64 6.32 6 7 C4.35 7 2.7 7 1 7 C1 13.93 1 20.86 1 28 C-2.96 28 -6.92 28 -11 28 C-11 24.37 -11 20.74 -11 17 C-10.01 17 -9.02 17 -8 17 C-8 20.3 -8 23.6 -8 27 C-7.01 27 -6.02 27 -5 27 C-5 21.72 -5 16.44 -5 11 C-3.68 11 -2.36 11 -1 11 C-0.67 8.69 -0.34 6.38 0 4 C-0.66 3.67 -1.32 3.34 -2 3 C-1.34 2.01 -0.68 1.02 0 0 Z " fill="#19CD4C" transform="translate(32,21)"/>
<path d="M0 0 C5.61 0 11.22 0 17 0 C17 1.32 17 2.64 17 4 C16.34 4 15.68 4 15 4 C15 3.34 15 2.68 15 2 C13.68 2 12.36 2 11 2 C11 6.95 11 11.9 11 17 C11.66 17 12.32 17 13 17 C13 17.66 13 18.32 13 19 C10.03 19 7.06 19 4 19 C4 18.34 4 17.68 4 17 C4.66 17 5.32 17 6 17 C6 12.05 6 7.1 6 2 C4.68 2 3.36 2 2 2 C2 2.99 2 3.98 2 5 C1.34 5 0.68 5 0 5 C0 3.35 0 1.7 0 0 Z " fill="#3DA0D8" transform="translate(214,30)"/>
<path d="M0 0 C3.3 0 6.6 0 10 0 C8.68 0.33 7.36 0.66 6 1 C6.3080144 3.62559844 6.62120182 6.25039806 6.9375 8.875 C7.06801758 9.99455078 7.06801758 9.99455078 7.20117188 11.13671875 C7.63326063 15.1953231 7.63326063 15.1953231 9 19 C5.7 19 2.4 19 -1 19 C-1 18.34 -1 17.68 -1 17 C-0.34 17 0.32 17 1 17 C0.67 11.39 0.34 5.78 0 0 Z " fill="#3CA1D9" transform="translate(315,30)"/>
<path d="M0 0 C0.33 0 0.66 0 1 0 C1 5.61 1 11.22 1 17 C2.32 17 3.64 17 5 17 C5 11.39 5 5.78 5 0 C6.98 0 8.96 0 11 0 C11 0.33 11 0.66 11 1 C9.35 1 7.7 1 6 1 C6 2.98 6 4.96 6 7 C7.98 6.34 9.96 5.68 12 5 C12 7.31 12 9.62 12 12 C11.01 11.67 10.02 11.34 9 11 C9 10.34 9 9.68 9 9 C8.01 9 7.02 9 6 9 C6 11.31 6 13.62 6 16 C8.47266765 15.65555119 8.47266765 15.65555119 11 15 C11.33 14.34 11.66 13.68 12 13 C12.66 13 13.32 13 14 13 C14 14.65 14 16.3 14 18 C9.05 18 4.1 18 -1 18 C-0.505 9.09 -0.505 9.09 0 0 Z " fill="#5397BD" transform="translate(299,31)"/>
<path d="M0 0 C3.3 0 6.6 0 10 0 C8.68 0.33 7.36 0.66 6 1 C6 6.61 6 12.22 6 18 C6.66 18.33 7.32 18.66 8 19 C5.03 19 2.06 19 -1 19 C-1 18.34 -1 17.68 -1 17 C-0.01 17 0.98 17 2 17 C1.85941524 14.54126232 1.71277001 12.08314825 1.5625 9.625 C1.52318359 8.92632812 1.48386719 8.22765625 1.44335938 7.5078125 C1.25719866 3.62639508 1.25719866 3.62639508 0 0 Z " fill="#31A6E8" transform="translate(233,30)"/>
<path d="M0 0 C2.31 0 4.62 0 7 0 C7.33 2.64 7.66 5.28 8 8 C1.73 8 -4.54 8 -11 8 C-11 7.34 -11 6.68 -11 6 C-6.25 4.875 -6.25 4.875 -4 6 C-3.67 4.68 -3.34 3.36 -3 2 C-1.68 2.33 -0.36 2.66 1 3 C1.33 2.34 1.66 1.68 2 1 C1.34 0.67 0.68 0.34 0 0 Z " fill="#37C05B" transform="translate(11,41)"/>
<path d="M0 0 C4.62 0 9.24 0 14 0 C14 1.32 14 2.64 14 4 C13.34 4 12.68 4 12 4 C12 3.01 12 2.02 12 1 C10.02 1 8.04 1 6 1 C6 6.61 6 12.22 6 18 C4.68 18 3.36 18 2 18 C2 12.39 2 6.78 2 1 C1.34 0.67 0.68 0.34 0 0 Z " fill="#2EA7ED" transform="translate(298,30)"/>
<path d="M0 0 C4.29 0 8.58 0 13 0 C13 0.33 13 0.66 13 1 C10.69 1 8.38 1 6 1 C6 6.61 6 12.22 6 18 C4.68 18 3.36 18 2 18 C2 12.39 2 6.78 2 1 C1.34 0.67 0.68 0.34 0 0 Z " fill="#2DA7EE" transform="translate(275,30)"/>
<path d="M0 0 C1.65 0 3.3 0 5 0 C4.34 3.3 3.68 6.6 3 10 C2.01 10 1.02 10 0 10 C-2.18777466 11.9375006 -2.18777466 11.9375006 -4 14 C-4 13.34 -4 12.68 -4 12 C-4.66 11.67 -5.32 11.34 -6 11 C-2.81818182 2.81818182 -2.81818182 2.81818182 0 0 Z " fill="#34A5D5" transform="translate(50,0)"/>
<path d="M0 0 C0.99 0.33 1.98 0.66 3 1 C2.75 2.875 2.75 2.875 2 5 C0 6.125 0 6.125 -2 7 C-2.33 7.66 -2.66 8.32 -3 9 C-3.66 9 -4.32 9 -5 9 C-5.33 10.32 -5.66 11.64 -6 13 C-6.99 13 -7.98 13 -9 13 C-9.33 10.69 -9.66 8.38 -10 6 C-8.906875 5.566875 -7.81375 5.13375 -6.6875 4.6875 C-3.90591207 3.50504359 -1.93638061 2.39199957 0 0 Z " fill="#E1C036" transform="translate(29,24)"/>
<path d="M0 0 C3.82053924 1.27351308 4.23021375 2.62637525 6.1875 6.0625 C6.71730469 6.98160156 7.24710937 7.90070312 7.79296875 8.84765625 C8.19128906 9.55792969 8.58960938 10.26820312 9 11 C6.69 11 4.38 11 2 11 C-0.99481865 6.41968912 -0.99481865 6.41968912 -2 4 C-1.25 1.5625 -1.25 1.5625 0 0 Z " fill="#3C9FD8" transform="translate(325,38)"/>
<path d="M0 0 C0.99 0 1.98 0 3 0 C4.60546875 1.8984375 4.60546875 1.8984375 6.1875 4.375 C6.98220703 5.59316406 6.98220703 5.59316406 7.79296875 6.8359375 C9 9 9 9 9 11 C6.70703125 11.28125 6.70703125 11.28125 4 11 C2.19921875 9.03125 2.19921875 9.03125 0.6875 6.5 C0.17574219 5.6646875 -0.33601562 4.829375 -0.86328125 3.96875 C-1.23839844 3.3190625 -1.61351562 2.669375 -2 2 C-1.34 1.34 -0.68 0.68 0 0 Z " fill="#39A2DD" transform="translate(242,38)"/>
<path d="M0 0 C0.99 0.33 1.98 0.66 3 1 C7.45919157 1.14156164 10.65223895 1.08694026 15 0 C14.67 2.97 14.34 5.94 14 9 C13.34 9 12.68 9 12 9 C12 8.01 12 7.02 12 6 C10.02 6 8.04 6 6 6 C5.67 5.34 5.34 4.68 5 4 C3.02111039 3.27306096 1.02045442 2.60183749 -1 2 C-0.67 1.34 -0.34 0.68 0 0 Z " fill="#7D9EB0" transform="translate(334,26)"/>
<path d="M0 0 C1.98 0 3.96 0 6 0 C6 0.33 6 0.66 6 1 C4.35 1 2.7 1 1 1 C1 2.98 1 4.96 1 7 C2.98 6.34 4.96 5.68 7 5 C7 7.31 7 9.62 7 12 C6.01 11.67 5.02 11.34 4 11 C4 10.34 4 9.68 4 9 C3.01 9 2.02 9 1 9 C1 11.31 1 13.62 1 16 C0.67 16 0.34 16 0 16 C0 10.72 0 5.44 0 0 Z " fill="#5F8FA8" transform="translate(304,31)"/>
<path d="M0 0 C2 3 2 3 2 5 C3.32 5.66 4.64 6.32 6 7 C4.35 7 2.7 7 1 7 C1 13.6 1 20.2 1 27 C0.34 26.67 -0.32 26.34 -1 26 C-1.02895225 22.70835171 -1.0467823 19.41673601 -1.0625 16.125 C-1.07506836 14.71927734 -1.07506836 14.71927734 -1.08789062 13.28515625 C-1.09111328 12.38925781 -1.09433594 11.49335937 -1.09765625 10.5703125 C-1.10289307 9.74289551 -1.10812988 8.91547852 -1.11352539 8.06298828 C-1 6 -1 6 0 4 C-0.66 3.67 -1.32 3.34 -2 3 C-1.34 2.01 -0.68 1.02 0 0 Z " fill="#66B967" transform="translate(32,21)"/>
<path d="M0 0 C0.33 0.66 0.66 1.32 1 2 C3.64 2 6.28 2 9 2 C9 2.33 9 2.66 9 3 C6.69 3 4.38 3 2 3 C2.33 4.65 2.66 6.3 3 8 C0.36 8 -2.28 8 -5 8 C-4.67 7.34 -4.34 6.68 -4 6 C-3.34 6 -2.68 6 -2 6 C-1.34 4.02 -0.68 2.04 0 0 Z " fill="#5297BC" transform="translate(256,41)"/>
<path d="M0 0 C2.31 0 4.62 0 7 0 C6.67 1.32 6.34 2.64 6 4 C4.02 4.33 2.04 4.66 0 5 C-0.33 4.01 -0.66 3.02 -1 2 C-0.67 1.34 -0.34 0.68 0 0 Z " fill="#D23A40" transform="translate(1,41)"/>
<path d="M0 0 C0.99 0 1.98 0 3 0 C3 3.63 3 7.26 3 11 C2.01 11 1.02 11 0 11 C0 7.37 0 3.74 0 0 Z " fill="#0ED045" transform="translate(21,38)"/>
<path d="M0 0 C0.66 0 1.32 0 2 0 C2.309375 0.9590625 2.309375 0.9590625 2.625 1.9375 C3.89538209 4.34925077 3.89538209 4.34925077 7.125 4.75 C8.07375 4.8325 9.0225 4.915 10 5 C10 5.66 10 6.32 10 7 C3.375 7.125 3.375 7.125 0 6 C0 4.02 0 2.04 0 0 Z " fill="#479CCB" transform="translate(335,43)"/>
<path d="M0 0 C1.32 0 2.64 0 4 0 C4.33 2.31 4.66 4.62 5 7 C3.02 7 1.04 7 -1 7 C-0.67 4.69 -0.34 2.38 0 0 Z " fill="#10D046" transform="translate(14,42)"/>
<path d="M0 0 C0.99 0 1.98 0 3 0 C3 5.28 3 10.56 3 16 C2.01 16 1.02 16 0 16 C0 14.35 0 12.7 0 11 C0.33 11 0.66 11 1 11 C1.33 8.69 1.66 6.38 2 4 C1.34 4 0.68 4 0 4 C0 2.68 0 1.36 0 0 Z " fill="#CDCECE" transform="translate(115,16)"/>
<path d="M0 0 C1.32 0.66 2.64 1.32 4 2 C2.68 2 1.36 2 0 2 C0 3.32 0 4.64 0 6 C-2.64 6 -5.28 6 -8 6 C-8 5.34 -8 4.68 -8 4 C-3.25 2.875 -3.25 2.875 -1 4 C-0.67 2.68 -0.34 1.36 0 0 Z " fill="#49BD67" transform="translate(8,43)"/>
<path d="M0 0 C-0.33 1.32 -0.66 2.64 -1 4 C-1.66 3.34 -2.32 2.68 -3 2 C-5.0245738 3.93254772 -6.42105792 5.63158688 -8 8 C-8.75 6.25 -8.75 6.25 -9 4 C-6.34633802 0.3256988 -4.47218731 -0.4969097 0 0 Z " fill="#4298BC" transform="translate(55,0)"/>
<path d="M0 0 C0.33 0.66 0.66 1.32 1 2 C1.66 2.33 2.32 2.66 3 3 C2.34 4.65 1.68 6.3 1 8 C1.99 8 2.98 8 4 8 C4.33 7.34 4.66 6.68 5 6 C5 6.99 5 7.98 5 9 C3.35 9 1.7 9 0 9 C0 8.34 0 7.68 0 7 C-0.66 7 -1.32 7 -2 7 C-1.34 4.69 -0.68 2.38 0 0 Z " fill="#5396BA" transform="translate(259,33)"/>
<path d="M0 0 C1.98 0 3.96 0 6 0 C5.34 1.65 4.68 3.3 4 5 C2.68 4.67 1.36 4.34 0 4 C0 2.68 0 1.36 0 0 Z " fill="#13A9E7" transform="translate(33,20)"/>
<path d="M0 0 C1.32 0 2.64 0 4 0 C3.67 1.32 3.34 2.64 3 4 C1.35 4.33 -0.3 4.66 -2 5 C-1.125 1.125 -1.125 1.125 0 0 Z " fill="#D9373A" transform="translate(16,34)"/>
<path d="M0 0 C0.93423645 3.01031744 1.04449911 3.86650268 0 7 C-1.32 7 -2.64 7 -4 7 C-3.43628586 3.73045798 -2.50037734 2.17424117 0 0 Z " fill="#03A7F1" transform="translate(52,1)"/>
<path d="M0 0 C0 2 0 4 0 6 C-1.65 6 -3.3 6 -5 6 C-5 5.67 -5 5.34 -5 5 C-6.65 4.67 -8.3 4.34 -10 4 C-10 3.67 -10 3.34 -10 3 C-9.04287109 2.80083984 -9.04287109 2.80083984 -8.06640625 2.59765625 C-7.24011719 2.42105469 -6.41382813 2.24445312 -5.5625 2.0625 C-4.73878906 1.88847656 -3.91507812 1.71445312 -3.06640625 1.53515625 C-1.02338796 1.19247006 -1.02338796 1.19247006 0 0 Z " fill="#CACACA" transform="translate(268,23)"/>
<path d="M0 0 C1.32 0 2.64 0 4 0 C4 1.98 4 3.96 4 6 C3.01 6 2.02 6 1 6 C0.67 4.02 0.34 2.04 0 0 Z " fill="#F6D24B" transform="translate(19,31)"/>
<path d="M0 0 C0.66 0 1.32 0 2 0 C2 2.31 2 4.62 2 7 C1.01 6.67 0.02 6.34 -1 6 C-0.67 4.02 -0.34 2.04 0 0 Z " fill="#5197BD" transform="translate(309,36)"/>
</svg>
